{
.appVersion = "3180";
.formatVersion = 3;
DisplayStrings = (
"рнг"
);
axes = (
{
name = Weight;
tag = wght;
}
);
classes = (
{
code = "phaorya bhaorya laorya phanuktaorya lanuktaorya ngakaorya ngakhaorya ngagaorya ngaghaorya nyajaorya dabhaorya maphaorya lakaorya lagaorya lalaorya lakaUIorya lalaUIorya kassannaorya lapaorya laphaorya lasaorya ngakhaorya phattaUIorya phattaorya sakaorya sakhaUIorya sakhaorya ssakaorya ssattaUIorya ssattaorya yyabaorya yyajaorya yyakaorya yyalaorya yyallaorya yyamaorya yyanaorya yyaraorya yyrvocalicorya yyuorya yyuuorya phalaorya ";
name = abvs;
},
{
code = "kasubscriptorya khasubscriptorya gasubscriptorya ghasubscriptorya ngasubscriptorya casubscriptorya chasubscriptorya jasubscriptorya jhasubscriptorya ttasubscriptorya tthasubscriptorya ddasubscriptorya ddhasubscriptorya nnasubscriptorya tasubscriptorya thasubscriptorya dasubscriptorya dhasubscriptorya nasubscriptorya pasubscriptorya phasubscriptorya bhasubscriptorya masubscriptorya rasubscriptorya lasubscriptorya llasubscriptorya shasubscriptorya ssasubscriptorya sasubscriptorya hasubscriptorya kassasubscriptorya";
name = blws;
},
{
code = "khasubscriptspaceorya gasubscriptspaceorya ghasubscriptspaceorya ngasubscriptspaceorya casubscriptspaceorya chasubscriptspaceorya jhasubscriptspaceorya ttasubscriptspaceorya tthasubscriptspaceorya ddasubscriptspaceorya ddhasubscriptspaceorya nnasubscriptspaceorya dasubscriptspaceorya dhasubscriptspaceorya pasubscriptspaceorya phasubscriptspaceorya bhasubscriptspaceorya shasubscriptspaceorya ssasubscriptspaceorya sasubscriptspaceorya hasubscriptspaceorya kassasubscriptspaceorya";
name = blws10;
},
{

glyphs = (
{
glyphname = aorya;
lastChange = "2021-07-27 08:46:11 +0000";
layers = (
{
anchors = (
{
name = b.tasubscriptorya;
pos = (357,0);
},
{
name = t.ivowelsignorya;
pos = (327,657);
}
);
layerId = "6C4C2116-C5E5-460E-80F0-69F45ED98D3F";
shapes = (
{
closed = 1;
nodes = (
(434,604,o),
(385,667,o),
(324,667,cs),
(283,667,o),
(245,638,o),
(227,599,c),
(256,577,l),
(244,631,o),
(203,667,o),
(154,667,cs),
(94,667,o),
(41,616,o),
(41,555,cs),
(41,518,o),
(59,465,o),
(83,427,c),
(148,464,l),
(122,503,o),
(107,541,o),
(107,567,cs),
(107,592,o),
(119,607,o),
(140,607,cs),
(179,607,o),
(207,565,o),
(207,509,cs),
(207,453,l),
(213,446,l),
(270,465,l),
(270,560,ls),
(270,590,o),
(281,606,o),
(301,606,cs),
(340,606,o),
(369,559,o),
(369,496,cs),
(369,470,o),
(363,453,o),
(347,434,cs),
(328,411,o),
(294,392,o),
(237,371,cs),
(196,356,ls),
(139,335,o),
(100,312,o),
(76,286,cs),
(47,256,o),
(33,218,o),
(33,168,cs),
(33,61,o),
(118,-10,o),
(245,-10,cs),
(365,-10,o),
(469,48,o),
(528,147,c),
(533,223,l),
(469,120,o),
(366,57,o),
(260,57,cs),
(170,57,o),
(105,108,o),
(105,179,cs),
(105,233,o),
(141,271,o),
(221,302,cs),
(273,322,ls),
(318,339,o),
(346,355,o),
(368,373,cs),
(412,408,o),
(434,459,o),
(434,524,cs)
);
},
{
pos = (-13,0);
ref = _part.a;
}
);
width = 631;
},
{
anchors = (
{
name = b.tasubscriptorya;
pos = (353,0);
},
{
name = t.ivowelsignorya;
pos = (327,657);
}
);
layerId = "D0F0E2C3-3B53-4823-9924-A34C50245C28";
shapes = (
{
closed = 1;
nodes = (
(485,604,o),
(439,667,o),
(371,667,cs),
(309,667,o),
(253,615,o),
(248,559,c),
(273,549,l),
(270,631,o),
(224,667,o),
(173,667,cs),
(96,667,o),
(25,600,o),
(24,519,cs),
(23,473,o),
(47,428,o),
(68,397,c),
(174,436,l),
(144,468,o),
(119,508,o),
(119,539,cs),
(119,556,o),
(130,569,o),
(148,569,cs),
(176,569,o),
(209,546,o),
(209,470,cs),
(209,436,l),
(216,429,l),
(295,450,l),
(295,512,ls),
(295,544,o),
(304,564,o),
(324,564,cs),
(353,564,o),
(374,523,o),
(374,472,cs),
(374,446,o),
(368,426,o),
(353,415,cs),
(339,404,o),
(314,392,o),
(235,368,cs),
(188,354,ls),
(135,338,o),
(108,322,o),
(84,300,cs),
(46,265,o),
(25,222,o),
(25,170,cs),
(25,66,o),
(112,-10,o),
(246,-10,cs),
(363,-10,o),
(470,47,o),
(543,131,c),
(540,250,l),
(473,151,o),
(369,110,o),
(286,110,cs),
(195,110,o),
(149,161,o),
(149,202,cs),
(149,234,o),
(176,253,o),
(213,264,cs),
(283,285,ls),
(337,301,o),
(379,320,o),
(410,344,cs),
(443,370,o),
(485,422,o),
(485,511,cs)
);
},
{
ref = _part.a;
}
);
width = 710;
}
);
unicode = 2821;
},
{
glyphname = iiorya;
kernRight = iorya;
lastChange = "2021-07-27 11:08:10 +0000";
layers = (
{
anchors = (
{
name = b.tasubscriptorya;
pos = (334,0);
},
{
name = b.uvowelsignorya;
pos = (401,0);
},
{
name = t.candrabinduorya;
pos = (495,657);
}
);
layerId = "6C4C2116-C5E5-460E-80F0-69F45ED98D3F";
shapes = (
{
closed = 1;
nodes = (
(129,493,o),
(158,461,o),
(191,439,c),
(338,439,l),
(338,449,l),
(225,479,o),
(197,518,o),
(197,540,cs),
(197,574,o),
(261,601,o),
(336,601,cs),
(462,601,o),
(571,524,o),
(571,366,cs),
(571,280,o),
(539,187,o),
(506,125,c),
(506,100,l),
(627,-35,l),
(641,-35,l),
(689,7,l),
(534,153,l),
(549,111,l),
(595,184,o),
(642,275,o),
(642,381,cs),
(642,554,o),
(516,667,o),
(349,667,cs),
(220,667,o),
(129,600,o),
(129,537,cs)
);
},
{
closed = 1;
nodes = (
(32,270,o),
(60,218,o),
(111,180,c),
(150,263,l),
(118,280,o),
(100,306,o),
(100,339,cs),
(100,393,o),
(145,421,o),
(199,421,cs),
(236,421,o),
(272,408,o),
(296,394,c),
(338,439,l),
(284,452,o),
(250,475,o),
(210,475,cs),
(99,475,o),
(32,409,o),
(32,322,cs)
);
},
{
pos = (-18,0);
ref = _part.o;
},
{
pos = (149,0);
ref = _part.o;
}
);
width = 691;
},
{
anchors = (
{
name = b.tasubscriptorya;
pos = (379,0);
},
{
name = b.uvowelsignorya;
pos = (427,0);
},
{
name = t.candrabinduorya;
pos = (531,657);
}
);
layerId = "D0F0E2C3-3B53-4823-9924-A34C50245C28";
shapes = (
{
closed = 1;
nodes = (
(155,459,o),
(192,424,o),
(221,415,c),
(358,427,l),
(358,437,l),
(283,461,o),
(249,489,o),
(249,509,cs),
(249,537,o),
(311,550,o),
(363,550,cs),
(477,550,o),
(587,487,o),
(587,323,cs),
(587,249,o),
(563,179,o),
(535,116,c),
(535,91,l),
(654,-35,l),
(668,-35,l),
(760,48,l),
(602,196,l),
(625,150,l),
(672,212,o),
(710,288,o),
(710,375,cs),
(710,531,o),
(592,667,o),
(401,667,cs),
(263,667,o),
(155,592,o),
(155,507,cs)
);
},
{
closed = 1;
nodes = (
(27,281,o),
(54,223,o),
(120,168,c),
(205,281,l),
(150,293,o),
(120,328,o),
(120,360,cs),
(120,395,o),
(153,402,o),
(186,402,cs),
(223,402,o),
(268,388,o),
(302,371,c),
(358,427,l),
(316,457,o),
(276,471,o),
(196,471,cs),
(107,471,o),
(27,416,o),
(27,330,cs)
);
},
{
pos = (-8,0);
ref = _part.o;
},
{
pos = (165,0);
ref = _part.o;
}
);
width = 758;
}
);
metricLeft = iorya;
metricRight = iorya;
unicode = 2824;
},
{
glyphname = uuorya;
kernRight = iorya;
lastChange = "2021-07-28 11:39:28 +0000";
layers = (
{
anchors = (
{
name = b.tasubscriptorya;
pos = (329,0);
},
{
name = t.candrabinduorya;
pos = (480,657);
}
);
layerId = "6C4C2116-C5E5-460E-80F0-69F45ED98D3F";
shapes = (
{
closed = 1;
nodes = (
(32,349,o),
(72,262,o),
(144,211,c),
(170,304,l),
(131,339,o),
(100,387,o),
(100,442,cs),
(100,536,o),
(174,601,o),
(307,601,cs),
(445,601,o),
(536,520,o),
(536,409,cs),
(536,357,o),
(517,304,o),
(492,272,c),
(493,247,l),
(544,243,o),
(564,233,o),
(564,214,cs),
(564,193,o),
(549,173,o),
(500,128,c),
(500,100,l),
(622,-35,l),
(636,-35,l),
(683,7,l),
(545,137,l),
(538,99,l),
(584,141,o),
(631,184,o),
(631,231,cs),
(631,281,o),
(578,296,o),
(546,302,c),
(544,265,l),
(573,306,o),
(605,366,o),
(605,434,cs),
(605,554,o),
(497,667,o),
(317,667,cs),
(136,667,o),
(32,561,o),
(32,430,cs)
);
},
{
pos = (-4,0);
ref = _part.u;
}
);
width = 674;
},
{
anchors = (
{
name = b.tasubscriptorya;
pos = (363,0);
},
{
name = t.candrabinduorya;
pos = (519,657);
}
);
layerId = "D0F0E2C3-3B53-4823-9924-A34C50245C28";
shapes = (
{
closed = 1;
nodes = (
(27,321,o),
(53,250,o),
(122,172,c),
(210,301,l),
(158,320,o),
(128,364,o),
(128,419,cs),
(128,522,o),
(233,550,o),
(319,550,cs),
(417,550,o),
(543,513,o),
(543,414,cs),
(543,376,o),
(524,345,o),
(503,319,c),
(504,292,l),
(571,286,o),
(596,271,o),
(596,246,cs),
(596,219,o),
(569,188,o),
(514,138,c),
(514,106,l),
(635,-35,l),
(646,-35,l),
(740,49,l),
(599,177,l),
(592,128,l),
(650,170,o),
(710,208,o),
(710,271,cs),
(710,319,o),
(678,355,o),
(583,368,c),
(550,312,l),
(620,350,o),
(660,404,o),
(660,465,cs),
(660,576,o),
(529,667,o),
(351,667,cs),
(148,667,o),
(27,554,o),
(27,396,cs)
);
},
{
pos = (-15,0);
ref = _part.u;
}
);
width = 740;
}
);
metricLeft = iorya;
unicode = 2826;
},
{
glyphname = rvocalicorya;
kernRight = iorya;
lastChange = "2021-07-26 14:53:37 +0000";
layers = (
{
anchors = (
{
name = b.tasubscriptorya;
pos = (329,0);
},
{
name = t.candrabinduorya;
pos = (500,657);
}
);
layerId = "6C4C2116-C5E5-460E-80F0-69F45ED98D3F";
shapes = (
{
closed = 1;
nodes = (
(32,339,o),
(79,252,o),
(158,199,c),
(193,287,l),
(135,320,o),
(100,377,o),
(100,442,cs),
(100,538,o),
(181,601,o),
(304,601,cs),
(441,601,o),
(535,519,o),
(535,405,cs),
(535,356,o),
(519,308,o),
(492,272,c),
(493,247,l),
(543,243,o),
(564,233,o),
(564,214,cs),
(564,193,o),
(549,173,o),
(500,128,c),
(500,100,l),
(622,-35,l),
(636,-35,l),
(683,7,l),
(545,137,l),
(538,99,l),
(607,162,o),
(631,196,o),
(631,231,cs),
(631,266,o),
(601,292,o),
(546,302,c),
(544,265,l),
(584,323,o),
(604,376,o),
(604,430,cs),
(604,564,o),
(480,667,o),
(314,667,cs),
(150,667,o),
(32,568,o),
(32,430,cs)
);
},
{
pos = (73,0);
ref = _part.vo;
}
);
width = 677;
},
{
anchors = (
{
name = b.tasubscriptorya;
pos = (356,0);
},
{
name = t.candrabinduorya;
pos = (529,657);
}
);
layerId = "D0F0E2C3-3B53-4823-9924-A34C50245C28";
shapes = (
{
closed = 1;
nodes = (
(27,324,o),
(59,265,o),
(117,187,c),
(201,303,l),
(152,327,o),
(126,365,o),
(126,415,cs),
(126,515,o),
(225,550,o),
(318,550,cs),
(413,550,o),
(534,514,o),
(534,414,cs),
(534,377,o),
(517,346,o),
(497,319,c),
(498,292,l),
(565,286,o),
(590,271,o),
(590,246,cs),
(590,219,o),
(557,188,o),
(490,138,c),
(490,106,l),
(611,-35,l),
(622,-35,l),
(716,49,l),
(575,177,l),
(586,128,l),
(644,170,o),
(704,208,o),
(704,271,cs),
(704,319,o),
(672,355,o),
(577,368,c),
(544,312,l),
(612,351,o),
(651,405,o),
(651,467,cs),
(651,577,o),
(521,667,o),
(347,667,cs),
(155,667,o),
(27,555,o),
(27,402,cs)
);
},
{
pos = (1,0);
ref = _part.vo;
}
);
width = 721;
}
);
metricLeft = iorya;
unicode = 2827;
},
{
glyphname = rrvocalicorya;
kernRight = iorya;
lastChange = "2021-07-22 07:43:36 +0000";
layers = (
{
anchors = (
{
name = b.tasubscriptorya;
pos = (317,0);
},
{
name = t.candrabinduorya;
pos = (470,657);
}
);
layerId = "6C4C2116-C5E5-460E-80F0-69F45ED98D3F";
shapes = (
{
closed = 1;
nodes = (
(32,349,o),
(80,258,o),
(153,203,c),
(187,290,l),
(132,328,o),
(100,386,o),
(100,450,cs),
(100,539,o),
(171,601,o),
(297,601,cs),
(430,601,o),
(517,529,o),
(517,433,cs),
(517,391,o),
(501,350,o),
(486,327,c),
(486,299,l),
(534,291,o),
(561,281,o),
(561,259,cs),
(561,239,o),
(540,217,o),
(487,180,c),
(487,152,l),
(542,144,o),
(564,132,o),
(564,111,cs),
(564,92,o),
(546,76,o),
(487,35,c),
(487,7,l),
(599,-115,l),
(613,-115,l),
(659,-73,l),
(524,46,l),
(519,7,l),
(576,46,o),
(631,84,o),
(631,128,cs),
(631,173,o),
(584,192,o),
(551,199,c),
(549,172,l),
(593,205,o),
(625,242,o),
(625,281,cs),
(625,319,o),
(592,340,o),
(541,352,c),
(529,319,l),
(557,354,o),
(586,402,o),
(586,458,cs),
(586,565,o),
(482,667,o),
(309,667,cs),
(133,667,o),
(32,564,o),
(32,438,cs)
);
},
{
pos = (65,0);
ref = _part.vo;
}
);
width = 664;
},
{
anchors = (
{
name = b.tasubscriptorya;
pos = (356,0);
},
{
name = t.candrabinduorya;
pos = (529,657);
}
);
layerId = "D0F0E2C3-3B53-4823-9924-A34C50245C28";
shapes = (
{
closed = 1;
nodes = (
(27,329,o),
(54,254,o),
(122,172,c),
(204,303,l),
(149,329,o),
(127,384,o),
(127,427,cs),
(127,518,o),
(222,550,o),
(314,550,cs),
(412,550,o),
(534,514,o),
(534,413,cs),
(534,377,o),
(514,346,o),
(490,319,c),
(491,292,l),
(563,287,o),
(589,276,o),
(589,256,cs),
(589,238,o),
(562,217,o),
(504,192,c),
(504,152,l),
(570,148,o),
(590,136,o),
(590,118,cs),
(590,98,o),
(566,77,o),
(490,42,c),
(490,10,l),
(611,-131,l),
(622,-131,l),
(716,-47,l),
(591,66,l),
(595,22,l),
(647,44,o),
(704,84,o),
(704,132,cs),
(704,169,o),
(676,206,o),
(580,204,c),
(601,184,l),
(656,208,o),
(704,237,o),
(704,284,cs),
(704,327,o),
(672,367,o),
(559,369,c),
(589,341,l),
(629,376,o),
(651,421,o),
(651,466,cs),
(651,579,o),
(515,667,o),
(341,667,cs),
(149,667,o),
(27,561,o),
(27,403,cs)
);
},
{
pos = (1,0);
ref = _part.vo;
}
);
width = 731;
}
);
metricLeft = iorya;
unicode = 2912;
},
{
glyphname = lvocalicorya;
lastChange = "2021-07-28 11:39:58 +0000";
layers = (
{
anchors = (
{
name = b.tasubscriptorya;
pos = (257,0);
},
{
name = t.candrabinduorya;
pos = (337,657);
}
);
layerId = "6C4C2116-C5E5-460E-80F0-69F45ED98D3F";
shapes = (
{
closed = 1;
nodes = (
(32,70,o),
(118,-10,o),
(268,-10,cs),
(392,-10,o),
(490,44,o),
(490,134,cs),
(490,202,o),
(428,263,o),
(358,263,cs),
(293,263,o),
(242,210,o),
(242,154,cs),
(242,115,o),
(265,64,o),
(335,20,c),
(386,58,l),
(334,91,o),
(304,130,o),
(304,162,cs),
(304,183,o),
(318,201,o),
(345,201,cs),
(385,201,o),
(429,159,o),
(429,122,cs),
(429,83,o),
(366,51,o),
(277,51,cs),
(159,51,o),
(104,115,o),
(104,179,cs),
(104,203,o),
(109,225,o),
(128,247,cs),
(145,267,o),
(176,285,o),
(220,302,cs),
(272,322,ls),
(305,335,o),
(334,348,o),
(358,365,cs),
(400,395,o),
(426,435,o),
(426,498,cs),
(426,598,o),
(357,667,o),
(251,667,cs),
(159,667,o),
(67,614,o),
(67,506,cs),
(67,472,o),
(77,437,o),
(91,404,c),
(156,427,l),
(147,451,o),
(135,482,o),
(135,513,cs),
(135,582,o),
(194,602,o),
(240,602,cs),
(315,602,o),
(359,550,o),
(359,488,cs),
(359,455,o),
(346,432,o),
(324,414,cs),
(303,397,o),
(272,384,o),
(236,371,cs),
(195,356,ls),
(155,341,o),
(122,325,o),
(97,305,cs),
(54,272,o),
(32,228,o),
(32,168,cs)
);
}
);
width = 508;
},
{
anchors = (
{
name = b.tasubscriptorya;
pos = (282,0);
},
{
name = t.candrabinduorya;
pos = (383,657);
}
);
layerId = "D0F0E2C3-3B53-4823-9924-A34C50245C28";
shapes = (
{
closed = 1;
nodes = (
(27,69,o),
(122,-10,o),
(281,-10,cs),
(429,-10,o),
(544,59,o),
(544,161,cs),
(544,238,o),
(484,297,o),
(406,297,cs),
(333,297,o),
(269,234,o),
(269,162,cs),
(269,121,o),
(294,72,o),
(337,28,c),
(436,91,l),
(393,112,o),
(358,151,o),
(358,179,cs),
(358,191,o),
(368,198,o),
(384,198,cs),
(416,198,o),
(453,170,o),
(453,145,cs),
(453,121,o),
(361,98,o),
(293,98,cs),
(209,98,o),
(145,147,o),
(145,211,cs),
(145,228,o),
(150,240,o),
(158,249,cs),
(169,261,o),
(185,268,o),
(212,277,cs),
(288,301,ls),
(328,314,o),
(366,330,o),
(391,347,cs),
(440,381,o),
(465,430,o),
(465,493,cs),
(465,598,o),
(388,667,o),
(271,667,cs),
(147,667,o),
(56,590,o),
(56,485,cs),
(56,459,o),
(62,430,o),
(74,396,c),
(190,440,l),
(179,464,o),
(172,487,o),
(172,503,cs),
(172,536,o),
(202,556,o),
(252,556,cs),
(316,556,o),
(363,522,o),
(363,474,cs),
(363,458,o),
(358,445,o),
(348,435,cs),
(327,416,o),
(306,404,o),
(214,377,cs),
(177,366,ls),
(126,351,o),
(87,326,o),
(61,293,cs),
(38,265,o),
(27,230,o),
(27,189,cs)
);
}
);
width = 556;
}
);
metricLeft = iorya;
unicode = 2828;
},
{
glyphname = llvocalicorya;
lastChange = "2021-07-31 19:40:18 +0000";
layers = (
{
anchors = (
{
name = b.tasubscriptorya;
pos = (254,0);
}
);
layerId = "6C4C2116-C5E5-460E-80F0-69F45ED98D3F";
shapes = (
{
closed = 1;
nodes = (
(330,12,l),
(362,-13,o),
(409,-42,o),
(461,-70,c),
(474,-70,l),
(512,-20,l),
(458,2,o),
(420,25,o),
(389,47,c)
);
},
{
ref = lvocalicorya;
}
);
width = 510;
},
{
anchors = (
{
name = b.tasubscriptorya;
pos = (283,0);
}
);
layerId = "D0F0E2C3-3B53-4823-9924-A34C50245C28";
shapes = (
{
closed = 1;
nodes = (
(326,43,l),
(354,-1,o),
(399,-47,o),
(457,-91,c),
(470,-91,l),
(544,-13,l),
(493,15,o),
(457,45,o),
(428,74,c)
);
},
{
ref = lvocalicorya;
}
);
width = 562;
}
);
metricLeft = iorya;
unicode = 2913;
},
{
glyphname = eorya;
lastChange = "2021-07-31 19:41:09 +0000";
layers = (
{
anchors = (
{
name = b.tasubscriptorya;
pos = (329,0);
},
{
name = t.candrabinduorya;
pos = (458,657);
}
);
layerId = "6C4C2116-C5E5-460E-80F0-69F45ED98D3F";
shapes = (
{
closed = 1;
nodes = (
(491,-10,l),
(554,2,l),
(554,354,l),
(487,354,l),
(487,0,l)
);
},
{
closed = 1;
nodes = (
(35,199,o),
(62,140,o),
(107,97,cs),
(192,15,o),
(341,-10,o),
(491,-10,c),
(496,54,l),
(198,64,o),
(105,154,o),
(105,288,cs),
(105,388,o),
(153,504,o),
(250,649,c),
(190,678,l),
(115,566,o),
(35,398,o),
(35,278,cs)
);
},
{
pos = (110,302);
ref = _part.na;
}
);
width = 615;
},
{
anchors = (
{
name = b.tasubscriptorya;
pos = (385,0);
},
{
name = t.candrabinduorya;
pos = (498,657);
}
);
layerId = "D0F0E2C3-3B53-4823-9924-A34C50245C28";
shapes = (
{
closed = 1;
nodes = (
(502,-10,l),
(615,20,l),
(615,343,l),
(495,340,l),
(495,-3,l)
);
},
{
closed = 1;
nodes = (
(28,233,o),
(53,162,o),
(103,108,cs),
(173,33,o),
(297,-10,o),
(502,-10,c),
(516,113,l),
(244,117,o),
(134,215,o),
(134,344,cs),
(134,430,o),
(184,528,o),
(286,650,c),
(196,690,l),
(101,577,o),
(28,420,o),
(28,302,cs)
);
},
{
pos = (130,302);
ref = _part.na;
}
);
width = 671;
}
);
metricRight = aorya;
unicode = 2831;
},
{
glyphname = aiorya;
lastChange = "2021-07-31 19:42:08 +0000";
layers = (
{
anchors = (
{
name = b.tasubscriptorya;
pos = (392,0);
}
);
layerId = "6C4C2116-C5E5-460E-80F0-69F45ED98D3F";
shapes = (
{
closed = 1;
nodes = (
(516,289,o),
(547,266,o),
(590,266,cs),
(651,266,o),
(694,311,o),
(711,408,c),
(678,427,l),
(678,376,o),
(651,335,o),
(605,335,cs),
(584,335,o),
(564,346,o),
(554,365,c),
(512,300,l)
);
},
{
ref = eorya;
},
{
pos = (-18,0);
ref = _part.ai;
}
);
width = 803;
},
{
anchors = (
{
name = b.tasubscriptorya;
pos = (462,0);
}
);
layerId = "D0F0E2C3-3B53-4823-9924-A34C50245C28";
shapes = (
{
closed = 1;
nodes = (
(540,295,o),
(579,268,o),
(634,268,cs),
(717,268,o),
(777,324,o),
(800,446,c),
(751,470,l),
(751,415,o),
(719,371,o),
(663,371,cs),
(636,371,o),
(616,385,o),
(609,405,c),
(522,335,l)
);
},
{
ref = eorya;
},
{
ref = _part.ai;
}
);
width = 924;
}
);
metricLeft = eorya;
unicode = 2832;
},
{
glyphname = oorya;
lastChange = "2021-07-22 07:46:18 +0000";
layers = (
{
anchors = (
{
name = b.tasubscriptorya;
pos = (307,0);
},
{
name = b.uvowelsignorya;
pos = (408,0);
},
{
name = t.candrabinduorya;
pos = (482,657);
}
);
layerId = "6C4C2116-C5E5-460E-80F0-69F45ED98D3F";
shapes = (
{
closed = 1;
nodes = (
(35,95,o),
(163,-10,o),
(334,-10,cs),
(484,-10,o),
(594,71,o),
(594,181,cs),
(594,239,o),
(563,291,o),
(502,319,cs),
(467,334,o),
(425,343,o),
(379,346,c),
(373,320,l),
(425,343,o),
(467,367,o),
(498,395,cs),
(541,434,o),
(559,475,o),
(559,522,cs),
(559,606,o),
(495,667,o),
(409,667,cs),
(310,667,o),
(250,605,o),
(250,524,cs),
(250,502,o),
(257,473,o),
(268,452,c),
(333,478,l),
(324,496,o),
(317,520,o),
(317,540,cs),
(317,574,o),
(337,601,o),
(396,601,cs),
(453,601,o),
(493,563,o),
(493,512,cs),
(493,484,o),
(481,456,o),
(458,434,cs),
(441,418,o),
(416,401,o),
(380,381,cs),
(354,367,o),
(329,356,o),
(307,347,c),
(289,303,l),
(298,292,l),
(330,292,o),
(361,289,o),
(388,285,cs),
(482,270,o),
(526,229,o),
(526,174,cs),
(526,104,o),
(454,58,o),
(345,58,cs),
(207,58,o),
(104,133,o),
(104,308,cs),
(104,439,o),
(160,545,o),
(238,657,c),
(174,688,l),
(102,572,o),
(35,417,o),
(35,283,cs)
);
}
);
width = 627;
},
{
anchors = (
{
name = b.tasubscriptorya;
pos = (331,0);
},
{
name = b.uvowelsignorya;
pos = (468,0);
},
{
name = t.candrabinduorya;
pos = (502,657);
}
);
layerId = "D0F0E2C3-3B53-4823-9924-A34C50245C28";
shapes = (
{
closed = 1;
nodes = (
(28,102,o),
(164,-10,o),
(355,-10,cs),
(540,-10,o),
(645,82,o),
(645,202,cs),
(645,270,o),
(606,308,o),
(570,330,cs),
(540,348,o),
(502,356,o),
(460,360,c),
(457,340,l),
(500,357,o),
(529,374,o),
(548,390,cs),
(594,429,o),
(610,475,o),
(610,518,cs),
(610,603,o),
(539,667,o),
(439,667,cs),
(349,667,o),
(249,606,o),
(249,504,cs),
(249,484,o),
(254,461,o),
(266,434,c),
(369,475,l),
(362,492,o),
(358,509,o),
(358,522,cs),
(358,550,o),
(385,563,o),
(418,563,cs),
(476,563,o),
(502,528,o),
(502,492,cs),
(502,473,o),
(496,462,o),
(483,448,cs),
(473,436,o),
(458,425,o),
(435,411,cs),
(404,392,o),
(360,375,o),
(325,365,c),
(294,287,l),
(303,276,l),
(340,276,o),
(376,274,o),
(408,269,cs),
(483,257,o),
(539,232,o),
(539,189,cs),
(539,138,o),
(461,111,o),
(376,111,cs),
(205,111,o),
(133,227,o),
(133,346,cs),
(133,438,o),
(176,537,o),
(264,650,c),
(168,690,l),
(92,582,o),
(28,428,o),
(28,295,cs)
);
}
);
width = 675;
}
);
metricLeft = eorya;
unicode = 2835;
},
{
glyphname = auorya;
lastChange = "2021-07-26 12:00:29 +0000";
layers = (
{
anchors = (
{
name = b.tasubscriptorya;
pos = (400,0);
}
);
layerId = "6C4C2116-C5E5-460E-80F0-69F45ED98D3F";
shapes = (
{
closed = 1;
nodes = (
(512,260,l),
(523,233,o),
(553,213,o),
(591,213,cs),
(654,213,o),
(691,259,o),
(707,349,c),
(672,365,l),
(672,318,o),
(646,282,o),
(596,282,cs),
(575,282,o),
(556,288,o),
(540,297,c)
);
},
{
pos = (-21,0);
ref = _part.ai;
},
{
ref = oorya;
}
);
width = 810;
},
{
anchors = (
{
name = b.tasubscriptorya;
pos = (456,0);
}
);
layerId = "D0F0E2C3-3B53-4823-9924-A34C50245C28";
shapes = (
{
closed = 1;
nodes = (
(517,269,l),
(535,227,o),
(574,198,o),
(629,198,cs),
(718,198,o),
(769,260,o),
(790,386,c),
(739,410,l),
(739,352,o),
(706,305,o),
(641,305,cs),
(610,305,o),
(582,313,o),
(559,324,c)
);
},
{
pos = (-11,0);
ref = _part.ai;
},
{
ref = oorya;
}
);
width = 913;
}
);
metricLeft = eorya;
unicode = 2836;
},
{
glyphname = kaorya;
lastChange = "2021-08-01 20:44:27 +0000";
layers = (
{
anchors = (
{
name = b.tasubscriptorya;
pos = (361,0);
},
{
name = b.uvowelsignorya;
pos = (562,0);
},
{
name = t.candrabinduorya;
pos = (529,657);
},
{
name = t.ivowelsignorya;
pos = (328,657);
}
);
layerId = "D0F0E2C3-3B53-4823-9924-A34C50245C28";
shapes = (
{
closed = 1;
nodes = (
(79,106,o),
(144,53,o),
(209,53,cs),
(291,53,o),
(347,126,o),
(347,215,c),
(347,300,o),
(287,355,o),
(218,355,cs),
(144,355,o),
(79,283,o),
(79,197,cs)
);
},
{
closed = 1;
nodes = (
(175,235,o),
(188,249,o),
(211,249,cs),
(244,249,o),
(271,221,o),
(271,186,cs),
(271,164,o),
(258,150,o),
(236,150,cs),
(202,150,o),
(175,179,o),
(175,213,cs)
);
},
{
closed = 1;
nodes = (
(267,-9,l),
(372,20,l),
(372,224,ls),
(372,240,o),
(387,250,o),
(403,250,cs),
(422,250,o),
(442,236,o),
(442,168,cs),
(442,0,l),
(456,-9,l),
(562,20,l),
(562,191,ls),
(562,323,o),
(496,355,o),
(437,355,cs),
(361,355,o),
(290,301,o),
(290,246,cs),
(290,109,l),
(254,95,l),
(254,0,l)
);
},
{
pos = (-5,0);
ref = _part.swash3;
}
);
width = 680;
},
{
anchors = (
{
name = b.tasubscriptorya;
pos = (368,0);
},
{
name = b.uvowelsignorya;
pos = (526,0);
},
{
name = t.candrabinduorya;
pos = (494,657);
},
{
name = t.ivowelsignorya;
pos = (347,657);
}
);
layerId = "6C4C2116-C5E5-460E-80F0-69F45ED98D3F";
shapes = (
{
closed = 1;
nodes = (
(103,130,o),
(158,70,o),
(231,70,cs),
(308,70,o),
(349,135,o),
(367,218,c),
(367,282,o),
(315,355,o),
(241,355,cs),
(164,355,o),
(103,291,o),
(103,210,cs)
);
},
{
closed = 1;
nodes = (
(164,265,o),
(186,294,o),
(224,294,cs),
(270,294,o),
(312,253,o),
(312,196,cs),
(312,157,o),
(287,129,o),
(250,129,cs),
(208,129,o),
(164,169,o),
(164,228,cs)
);
},
{
closed = 1;
nodes = (
(308,-7,l),
(368,7,l),
(368,252,ls),
(368,270,o),
(386,289,o),
(411,289,cs),
(442,289,o),
(459,258,o),
(459,207,cs),
(459,0,l),
(465,-7,l),
(526,7,l),
(526,230,ls),
(526,319,o),
(489,355,o),
(431,355,cs),
(380,355,o),
(318,317,o),
(318,250,cs),
(318,134,l),
(301,134,l),
(301,0,l)
);
},
{
pos = (-2,0);
ref = _part.swash3;
}
);
width = 637;
}
);
metricLeft = iorya;
unicode = 2837;
},
{
glyphname = khaorya;
lastChange = "2021-07-26 14:53:37 +0000";
layers = (
{
anchors = (
{
name = b.tasubscriptorya;
pos = (367,0);
},
{
name = b.uvowelsignorya;
pos = (592,0);
},
{
name = t.ivowelsignorya;
pos = (324,657);
}
);
layerId = "6C4C2116-C5E5-460E-80F0-69F45ED98D3F";
shapes = (
{
closed = 1;
nodes = (
(285,430,o),
(333,382,o),
(405,382,cs),
(492,382,o),
(551,453,o),
(562,564,c),
(527,610,l),
(527,510,o),
(489,447,o),
(421,447,cs),
(381,447,o),
(352,470,o),
(352,510,cs),
(352,546,o),
(376,591,o),
(420,635,c),
(420,649,l),
(359,628,l),
(307,579,o),
(285,539,o),
(285,495,cs)
);
},
{
closed = 1;
nodes = (
(32,346,o),
(78,266,o),
(158,216,c),
(206,285,l),
(148,315,o),
(100,369,o),
(100,449,cs),
(100,521,o),
(156,601,o),
(290,601,cs),
(316,601,o),
(350,598,o),
(371,595,c),
(420,649,l),
(393,659,o),
(346,667,o),
(300,667,cs),
(121,667,o),
(32,550,o),
(32,434,cs)
);
},
{
pos = (455,0);
ref = aavowelsignorya;
},
{
pos = (61,0);
ref = _part.vo;
}
);
width = 653;
},
{
anchors = (
{
name = b.tasubscriptorya;
pos = (435,0);
},
{
name = b.uvowelsignorya;
pos = (665,0);
},
{
name = t.ivowelsignorya;
pos = (358,657);
}
);
layerId = "D0F0E2C3-3B53-4823-9924-A34C50245C28";
shapes = (
{
closed = 1;
nodes = (
(298,421,o),
(348,368,o),
(429,368,cs),
(520,368,o),
(586,436,o),
(611,586,c),
(546,610,l),
(546,533,o),
(514,471,o),
(458,471,cs),
(423,471,o),
(400,495,o),
(400,525,cs),
(400,555,o),
(423,586,o),
(471,627,c),
(467,648,l),
(418,641,l),
(349,597,o),
(298,555,o),
(298,488,cs)
);
},
{
closed = 1;
nodes = (
(27,325,o),
(49,243,o),
(128,167,c),
(216,288,l),
(150,315,o),
(128,365,o),
(128,415,cs),
(128,501,o),
(205,550,o),
(305,550,cs),
(334,550,o),
(360,546,o),
(385,538,c),
(467,648,l),
(429,660,o),
(386,667,o),
(339,667,cs),
(158,667,o),
(27,553,o),
(27,393,cs)
);
},
{
pos = (484,0);
ref = aavowelsignorya;
},
{
pos = (1,0);
ref = _part.vo;
}
);
width = 722;
}
);
metricLeft = iorya;
metricRight = aorya;
unicode = 2838;
},
{
glyphname = ghaorya;
lastChange = "2021-07-29 09:36:08 +0000";
layers = (
{
anchors = (
{
name = b.tasubscriptorya;
pos = (359,0);
},
{
name = b.uvowelsignorya;
pos = (584,0);
},
{
name = t.ivowelsignorya;
pos = (321,657);
}
);
layerId = "6C4C2116-C5E5-460E-80F0-69F45ED98D3F";
shapes = (
{
closed = 1;
nodes = (
(98,44,o),
(151,-10,o),
(224,-10,cs),
(284,-10,o),
(339,24,o),
(363,95,c),
(343,145,l),
(329,121,o),
(305,58,o),
(246,58,cs),
(205,58,o),
(167,89,o),
(167,145,cs),
(167,188,o),
(196,252,o),
(283,329,c),
(249,371,l),
(161,296,o),
(98,207,o),
(98,123,cs)
);
},
{
closed = 1;
nodes = (
(327,28,o),
(358,-10,o),
(414,-10,cs),
(476,-10,o),
(527,36,o),
(548,113,c),
(518,157,l),
(516,78,o),
(464,58,o),
(433,58,cs),
(401,58,o),
(382,79,o),
(382,125,cs),
(382,228,l),
(375,235,l),
(315,221,l),
(315,93,l)
);
},
{
pos = (446,0);
ref = aavowelsignorya;
},
{
pos = (-2,0);
ref = _part.g;
}
);
width = 644;
},
{
anchors = (
{
name = b.tasubscriptorya;
pos = (426,0);
},
{
name = b.uvowelsignorya;
pos = (651,0);
},
{
name = t.ivowelsignorya;
pos = (359,657);
}
);
layerId = "D0F0E2C3-3B53-4823-9924-A34C50245C28";
shapes = (
{
closed = 1;
nodes = (
(85,49,o),
(138,-10,o),
(217,-10,cs),
(284,-10,o),
(329,30,o),
(358,87,c),
(329,145,l),
(317,120,o),
(294,93,o),
(258,93,cs),
(221,93,o),
(196,123,o),
(196,158,cs),
(196,201,o),
(224,256,o),
(317,329,c),
(270,378,l),
(166,302,o),
(85,215,o),
(85,129,cs)
);
},
{
closed = 1;
nodes = (
(323,35,o),
(366,-10,o),
(433,-10,cs),
(514,-10,o),
(573,66,o),
(583,202,c),
(537,207,l),
(537,144,o),
(514,93,o),
(474,93,cs),
(445,93,o),
(427,114,o),
(427,176,cs),
(427,228,l),
(420,235,l),
(315,212,l),
(315,104,l)
);
},
{
pos = (470,0);
ref = aavowelsignorya;
},
{
pos = (-5,0);
ref = _part.g;
}
);
width = 708;
}
);
metricLeft = iorya;
metricRight = aorya;
unicode = 2840;
},
{
glyphname = ngaorya;
kernRight = caorya;
lastChange = "2021-07-28 10:49:32 +0000";
layers = (
{
anchors = (
{
name = b.tasubscriptorya;
pos = (316,0);
},
{
name = b.uvowelsignorya;
pos = (399,0);
},
{
name = t.candrabinduorya;
pos = (509,657);
},
{
name = t.ivowelsignorya;
pos = (340,657);
}
);
layerId = "6C4C2116-C5E5-460E-80F0-69F45ED98D3F";
shapes = (
{
closed = 1;
nodes = (
(32,356,o),
(89,268,o),
(166,233,c),
(209,311,l),
(142,330,o),
(100,393,o),
(100,461,cs),
(100,540,o),
(158,602,o),
(240,602,cs),
(318,602,o),
(386,545,o),
(423,457,c),
(456,508,l),
(422,605,o),
(347,667,o),
(251,667,cs),
(129,667,o),
(32,567,o),
(32,449,cs)
);
},
{
pos = (-6,0);
ref = _part.u;
},
{
pos = (-23,42);
ref = _part.osmall;
scale = (0.9384,0.9384);
}
);
width = 697;
},
{
anchors = (
{
name = b.tasubscriptorya;
pos = (342,0);
},
{
name = b.uvowelsignorya;
pos = (414,0);
},
{
name = t.candrabinduorya;
pos = (529,657);
},
{
name = t.ivowelsignorya;
pos = (371,657);
}
);
layerId = "D0F0E2C3-3B53-4823-9924-A34C50245C28";
shapes = (
{
closed = 1;
nodes = (
(27,321,o),
(61,265,o),
(117,187,c),
(201,303,l),
(154,328,o),
(125,373,o),
(125,427,cs),
(125,515,o),
(203,550,o),
(268,550,cs),
(341,550,o),
(401,521,o),
(466,419,c),
(518,531,l),
(460,620,o),
(381,667,o),
(285,667,cs),
(126,667,o),
(27,550,o),
(27,403,cs)
);
},
{
pos = (-11,0);
ref = _part.u;
},
{
pos = (-52,0);
ref = _part.osmall;
}
);
width = 757;
}
);
metricLeft = iorya;
unicode = 2841;
},
{
glyphname = chaorya;
lastChange = "2021-07-28 13:33:46 +0000";
layers = (
{
anchors = (
{
name = b.tasubscriptorya;
pos = (298,0);
},
{
name = b.uvowelsignorya;
pos = (455,0);
},
{
name = t.candrabinduorya;
pos = (480,657);
},
{
name = t.ivowelsignorya;
pos = (290,657);
}
);
layerId = "6C4C2116-C5E5-460E-80F0-69F45ED98D3F";
shapes = (
{
closed = 1;
nodes = (
(41,34,o),
(85,-10,o),
(151,-10,cs),
(207,-10,o),
(262,21,o),
(298,74,c),
(268,105,l),
(243,73,o),
(208,52,o),
(171,52,cs),
(129,52,o),
(101,78,o),
(101,112,cs),
(101,140,o),
(119,155,o),
(150,155,cs),
(193,155,o),
(242,122,o),
(284,74,cs),
(327,24,o),
(373,-9,o),
(429,-9,cs),
(499,-9,o),
(550,43,o),
(550,110,cs),
(550,176,o),
(501,211,o),
(449,211,cs),
(393,211,o),
(330,171,o),
(298,139,c),
(324,112,l),
(349,140,o),
(382,154,o),
(413,154,cs),
(449,154,o),
(493,130,o),
(493,93,cs),
(493,69,o),
(472,55,o),
(442,55,cs),
(403,55,o),
(367,80,o),
(326,126,cs),
(281,179,o),
(225,212,o),
(163,212,cs),
(93,212,o),
(41,169,o),
(41,98,cs)
);
},
{
closed = 1;
nodes = (
(159,202,o),
(217,145,o),
(294,145,cs),
(375,145,o),
(438,208,o),
(438,288,cs),
(438,370,o),
(380,432,o),
(303,432,cs),
(222,432,o),
(159,364,o),
(159,279,cs)
);
},
{
closed = 1;
nodes = (
(221,342,o),
(248,376,o),
(290,376,cs),
(337,376,o),
(376,331,o),
(376,274,cs),
(376,224,o),
(349,188,o),
(307,188,cs),
(261,188,o),
(221,234,o),
(221,294,cs)
);
},
{
closed = 1;
nodes = (
(532,497,l),
(576,547,l),
(524,604,o),
(440,667,o),
(308,667,cs),
(139,667,o),
(32,564,o),
(32,437,cs),
(32,362,o),
(70,279,o),
(176,223,c),
(209,301,l),
(142,323,o),
(100,383,o),
(100,448,cs),
(100,537,o),
(178,601,o),
(292,601,cs),
(392,601,o),
(471,553,o),
(521,497,c)
);
}
);
width = 594;
},
{
anchors = (
{
name = b.tasubscriptorya;
pos = (321,0);
},
{
name = b.uvowelsignorya;
pos = (528,0);
},
{
name = t.candrabinduorya;
pos = (496,657);
},
{
name = t.ivowelsignorya;
pos = (319,657);
}
);
layerId = "D0F0E2C3-3B53-4823-9924-A34C50245C28";
shapes = (
{
closed = 1;
nodes = (
(48,39,o),
(97,-10,o),
(170,-10,cs),
(238,-10,o),
(303,24,o),
(347,80,c),
(304,123,l),
(280,96,o),
(244,80,o),
(206,80,cs),
(160,80,o),
(127,100,o),
(127,127,cs),
(127,144,o),
(144,154,o),
(171,154,cs),
(217,154,o),
(271,124,o),
(313,76,cs),
(359,22,o),
(417,-9,o),
(475,-9,cs),
(559,-9,o),
(618,49,o),
(618,129,cs),
(618,198,o),
(569,243,o),
(493,243,cs),
(435,243,o),
(371,215,o),
(327,169,c),
(358,120,l),
(392,145,o),
(426,158,o),
(459,158,cs),
(503,158,o),
(538,139,o),
(538,111,cs),
(538,94,o),
(524,83,o),
(498,83,cs),
(456,83,o),
(414,105,o),
(373,150,cs),
(324,209,o),
(257,242,o),
(193,242,cs),
(107,242,o),
(48,192,o),
(48,111,cs)
);
},
{
closed = 1;
nodes = (
(184,212,o),
(255,159,o),
(328,159,cs),
(400,159,o),
(475,218,o),
(475,293,cs),
(475,370,o),
(417,430,o),
(330,430,cs),
(250,430,o),
(184,368,o),
(184,276,cs)
);
},
{
closed = 1;
nodes = (
(262,327,o),
(282,341,o),
(310,341,cs),
(357,341,o),
(395,307,o),
(395,263,cs),
(395,237,o),
(377,220,o),
(347,220,cs),
(297,220,o),
(261,261,o),
(262,300,cs)
);
},
{
closed = 1;
nodes = (
(553,425,l),
(641,520,l),
(556,608,o),
(451,667,o),
(325,667,cs),
(153,667,o),
(27,559,o),
(27,407,cs),
(27,334,o),
(56,248,o),
(174,191,c),
(220,306,l),
(160,331,o),
(126,377,o),
(126,429,cs),
(126,502,o),
(192,550,o),
(290,550,cs),
(390,550,o),
(475,501,o),
(541,425,c)
);
}
);
width = 659;
}
);
metricLeft = iorya;
unicode = 2843;
},
{
glyphname = jaorya;
kernRight = caorya;
lastChange = "2021-07-27 13:14:31 +0000";
layers = (
{
anchors = (
{
name = b.tasubscriptorya;
pos = (329,0);
},
{
name = b.uvowelsignorya;
pos = (508,0);
},
{
name = t.candrabinduorya;
pos = (502,657);
},
{
name = t.ivowelsignorya;
pos = (329,657);
}
);
layerId = "6C4C2116-C5E5-460E-80F0-69F45ED98D3F";
shapes = (
{
closed = 1;
nodes = (
(84,42,o),
(148,-10,o),
(230,-10,cs),
(287,-10,o),
(335,15,o),
(366,45,c),
(395,110,l),
(374,115,l),
(345,88,o),
(295,52,o),
(243,52,cs),
(192,52,o),
(147,86,o),
(147,149,cs),
(147,201,o),
(177,266,o),
(256,339,c),
(222,376,l),
(135,302,o),
(84,219,o),
(84,136,cs)
);
},
{
closed = 1;
nodes = (
(250,172,o),
(296,116,o),
(340,79,c),
(395,110,l),
(395,119,l),
(351,166,o),
(317,210,o),
(317,236,cs),
(317,243,o),
(319,246,o),
(325,246,cs),
(490,246,l),
(441,291,l),
(441,0,l),
(448,-7,l),
(508,7,l),
(508,303,l),
(501,310,l),
(344,310,ls),
(311,310,o),
(296,298,o),
(276,276,cs),
(252,247,o),
(250,236,o),
(250,225,cs)
);
},
{
pos = (-2,0);
ref = _part.swash3;
}
);
width = 637;
},
{
anchors = (
{
name = b.tasubscriptorya;
pos = (365,0);
},
{
name = b.uvowelsignorya;
pos = (549,0);
},
{
name = t.candrabinduorya;
pos = (539,657);
},
{
name = t.ivowelsignorya;
pos = (365,657);
}
);
layerId = "D0F0E2C3-3B53-4823-9924-A34C50245C28";
shapes = (
{
closed = 1;
nodes = (
(77,55,o),
(143,-10,o),
(233,-10,cs),
(271,-10,o),
(308,-2,o),
(342,22,c),
(395,89,l),
(382,106,l),
(367,100,o),
(335,90,o),
(291,90,cs),
(215,90,o),
(172,136,o),
(172,187,cs),
(172,233,o),
(203,268,o),
(266,333,c),
(219,382,l),
(135,309,o),
(77,234,o),
(77,147,cs)
);
},
{
closed = 1;
nodes = (
(234,138,o),
(262,95,o),
(287,66,c),
(395,89,l),
(395,103,l),
(362,139,o),
(337,176,o),
(338,197,cs),
(338,206,o),
(340,211,o),
(351,211,cs),
(474,211,l),
(429,256,l),
(429,-3,l),
(436,-10,l),
(549,17,l),
(549,303,l),
(542,310,l),
(379,310,ls),
(328,310,o),
(306,291,o),
(274,257,cs),
(236,214,o),
(234,197,o),
(234,179,cs)
);
},
{
pos = (-5,0);
ref = _part.swash3;
}
);
width = 680;
}
);
metricLeft = iorya;
metricRight = kaorya;
unicode = 2844;
},
{
glyphname = jhaorya;
lastChange = "2021-07-26 14:53:37 +0000";
layers = (
{
anchors = (
{
name = b.tasubscriptorya;
pos = (310,0);
},
{
name = b.uvowelsignorya;
pos = (365,0);
},
{
name = t.candrabinduorya;
pos = (482,657);
},
{
name = t.ivowelsignorya;
pos = (315,657);
}
);
layerId = "6C4C2116-C5E5-460E-80F0-69F45ED98D3F";
shapes = (
{
closed = 1;
nodes = (
(311,430,o),
(366,382,o),
(445,382,cs),
(552,382,o),
(613,444,o),
(613,519,cs),
(613,544,o),
(603,611,o),
(586,657,c),
(519,627,l),
(540,586,o),
(553,536,o),
(553,511,cs),
(553,473,o),
(509,447,o),
(459,447,cs),
(412,447,o),
(378,470,o),
(378,511,cs),
(378,542,o),
(398,580,o),
(444,631,c),
(439,643,l),
(379,628,l),
(335,578,o),
(311,541,o),
(311,496,cs)
);
},
{
closed = 1;
nodes = (
(518,-9,l),
(532,-9,l),
(565,54,l),
(424,122,l),
(396,71,l)
);
},
{
closed = 1;
nodes = (
(32,342,o),
(78,257,o),
(163,206,c),
(199,295,l),
(137,325,o),
(100,376,o),
(100,444,cs),
(100,531,o),
(175,601,o),
(302,601,cs),
(331,601,o),
(360,596,o),
(387,587,c),
(439,643,l),
(400,659,o),
(358,667,o),
(313,667,cs),
(146,667,o),
(32,558,o),
(32,430,cs)
);
},
{
pos = (76,0);
ref = _part.vo;
}
);
width = 630;
},
{
anchors = (
{
name = b.tasubscriptorya;
pos = (338,0);
},
{
name = b.uvowelsignorya;
pos = (409,0);
},
{
name = t.candrabinduorya;
pos = (529,657);
},
{
name = t.ivowelsignorya;
pos = (343,657);
}
);
layerId = "D0F0E2C3-3B53-4823-9924-A34C50245C28";
shapes = (
{
closed = 1;
nodes = (
(338,410,o),
(395,357,o),
(484,357,cs),
(573,357,o),
(671,413,o),
(671,526,cs),
(671,567,o),
(662,609,o),
(643,657,c),
(529,604,l),
(550,568,o),
(566,523,o),
(566,497,cs),
(566,478,o),
(546,460,o),
(505,460,cs),
(461,460,o),
(439,486,o),
(439,522,cs),
(439,552,o),
(454,580,o),
(491,623,c),
(484,637,l),
(439,643,l),
(378,593,o),
(338,540,o),
(338,481,cs)
);
},
{
closed = 1;
nodes = (
(562,-36,l),
(576,-36,l),
(638,74,l),
(454,157,l),
(409,59,l)
);
},
{
closed = 1;
nodes = (
(27,322,o),
(54,237,o),
(149,158,c),
(216,288,l),
(150,315,o),
(128,365,o),
(128,415,cs),
(128,501,o),
(205,550,o),
(305,550,cs),
(334,550,o),
(360,546,o),
(385,538,c),
(484,637,l),
(441,656,o),
(392,667,o),
(339,667,cs),
(158,667,o),
(27,553,o),
(27,393,cs)
);
},
{
pos = (37,0);
ref = _part.vo;
}
);
width = 685;
}
);
metricLeft = iorya;
unicode = 2845;
},
{
glyphname = ttaorya;
kernRight = caorya;
lastChange = "2021-07-28 10:47:56 +0000";
layers = (
{
anchors = (
{
name = b.tasubscriptorya;
pos = (317,0);
},
{
name = b.uvowelsignorya;
pos = (357,0);
},
{
name = t.candrabinduorya;
pos = (515,657);
},
{
name = t.ivowelsignorya;
pos = (317,657);
}
);
layerId = "6C4C2116-C5E5-460E-80F0-69F45ED98D3F";
shapes = (
{
closed = 1;
nodes = (
(522,348,l),
(582,362,l),
(582,657,l),
(575,664,l),
(515,650,l),
(515,355,l)
);
},
{
pos = (64,0);
ref = _part.vo;
},
{
pos = (-2,0);
ref = _part.g;
}
);
width = 616;
},
{
anchors = (
{
name = b.tasubscriptorya;
pos = (366,0);
},
{
name = b.uvowelsignorya;
pos = (401,0);
},
{
name = t.candrabinduorya;
pos = (526,657);
},
{
name = t.ivowelsignorya;
pos = (346,657);
}
);
layerId = "D0F0E2C3-3B53-4823-9924-A34C50245C28";
shapes = (
{
closed = 1;
nodes = (
(533,340,l),
(646,370,l),
(646,663,l),
(639,670,l),
(526,640,l),
(526,347,l)
);
},
{
pos = (13,0);
ref = _part.vo;
},
{
pos = (-5,0);
ref = _part.g;
}
);
width = 677;
}
);
metricLeft = iorya;
unicode = 2847;
},
{
glyphname = tthaorya;
lastChange = "2021-07-15 11:48:06 +0000";
layers = (
{
anchors = (
{
name = b.tasubscriptorya;
pos = (358,0);
},
{
name = b.uvowelsignorya;
pos = (460,0);
},
{
name = t.candrabinduorya;
pos = (534,657);
},
{
name = t.ivowelsignorya;
pos = (352,657);
}
);
layerId = "6C4C2116-C5E5-460E-80F0-69F45ED98D3F";
shapes = (
{
closed = 1;
nodes = (
(38,133,o),
(173,-10,o),
(353,-10,cs),
(536,-10,o),
(678,139,o),
(678,332,cs),
(678,521,o),
(543,664,o),
(363,664,cs),
(180,664,o),
(38,515,o),
(38,322,cs)
);
},
{
closed = 1;
nodes = (
(105,483,o),
(201,598,o),
(343,598,cs),
(493,598,o),
(611,472,o),
(611,314,cs),
(611,172,o),
(515,57,o),
(372,57,cs),
(223,57,o),
(105,180,o),
(105,339,cs)
);
}
);
width = 716;
},
{
anchors = (
{
name = b.tasubscriptorya;
pos = (371,0);
},
{
name = b.uvowelsignorya;
pos = (503,0);
},
{
name = t.candrabinduorya;
pos = (534,657);
},
{
name = t.ivowelsignorya;
pos = (371,657);
}
);
layerId = "D0F0E2C3-3B53-4823-9924-A34C50245C28";
shapes = (
{
closed = 1;
nodes = (
(36,132,o),
(177,-10,o),
(364,-10,cs),
(557,-10,o),
(706,140,o),
(706,334,cs),
(706,522,o),
(565,664,o),
(378,664,cs),
(185,664,o),
(36,514,o),
(36,320,cs)
);
},
{
closed = 1;
nodes = (
(160,477,o),
(237,562,o),
(352,562,cs),
(480,562,o),
(582,447,o),
(582,304,cs),
(582,178,o),
(505,93,o),
(391,93,cs),
(262,93,o),
(160,206,o),
(160,351,cs)
);
}
);
width = 742;
}
);
unicode = 2848;
},
{
glyphname = ddhaorya;
lastChange = "2021-07-26 14:53:37 +0000";
layers = (
{
anchors = (
{
name = b.tasubscriptorya;
pos = (342,0);
},
{
name = b.uvowelsignorya;
pos = (494,0);
},
{
name = t.ivowelsignorya;
pos = (339,657);
}
);
layerId = "D0F0E2C3-3B53-4823-9924-A34C50245C28";
shapes = (
{
closed = 1;
nodes = (
(108,55,o),
(195,-10,o),
(320,-10,cs),
(474,-10,o),
(577,68,o),
(577,165,cs),
(577,245,o),
(515,305,o),
(436,305,cs),
(353,305,o),
(296,233,o),
(296,166,cs),
(296,119,o),
(326,69,o),
(365,29,c),
(467,94,l),
(409,121,o),
(387,163,o),
(387,184,cs),
(387,196,o),
(397,203,o),
(413,203,cs),
(446,203,o),
(490,173,o),
(490,146,cs),
(490,115,o),
(440,91,o),
(351,91,cs),
(254,91,o),
(203,139,o),
(203,183,cs),
(203,234,o),
(236,265,o),
(304,334,c),
(257,383,l),
(169,310,o),
(108,234,o),
(108,147,cs)
);
},
{
closed = 1;
nodes = (
(407,16,o),
(463,-14,o),
(534,-39,c),
(545,-37,l),
(603,47,l),
(543,61,o),
(495,83,o),
(458,105,c),
(367,49,l)
);
},
{
pos = (-5,0);
ref = _part.swash3;
}
);
width = 673;
},
{
anchors = (
{
name = b.tasubscriptorya;
pos = (329,0);
},
{
name = b.uvowelsignorya;
pos = (440,0);
},
{
name = t.ivowelsignorya;
pos = (317,657);
}
);
layerId = "6C4C2116-C5E5-460E-80F0-69F45ED98D3F";
shapes = (
{
closed = 1;
nodes = (
(105,57,o),
(180,-10,o),
(307,-10,cs),
(444,-10,o),
(532,65,o),
(532,157,cs),
(532,241,o),
(469,305,o),
(397,305,cs),
(325,305,o),
(273,244,o),
(273,179,cs),
(273,111,o),
(331,46,o),
(387,32,c),
(438,64,l),
(377,93,o),
(331,141,o),
(331,189,cs),
(331,223,o),
(354,242,o),
(383,242,cs),
(429,242,o),
(472,196,o),
(472,142,cs),
(472,94,o),
(416,52,o),
(327,52,cs),
(221,52,o),
(170,101,o),
(170,170,cs),
(170,215,o),
(198,266,o),
(259,339,c),
(217,370,l),
(154,302,o),
(105,235,o),
(105,156,cs)
);
},
{
closed = 1;
nodes = (
(439,-5,o),
(473,-23,o),
(510,-36,c),
(521,-34,l),
(553,16,l),
(526,24,o),
(498,34,o),
(464,54,c),
(400,18,l)
);
},
{
pos = (-2,0);
ref = _part.swash3;
}
);
width = 629;
}
);
metricLeft = iorya;
unicode = 2850;
},
{
glyphname = taorya;
lastChange = "2021-07-27 09:48:55 +0000";
layers = (
{
anchors = (
{
name = b.tasubscriptorya;
pos = (302,0);
},
{
name = b.uvowelsignorya;
pos = (417,0);
},
{
name = t.candrabinduorya;
pos = (494,657);
},
{
name = t.ivowelsignorya;
pos = (317,657);
}
);
layerId = "6C4C2116-C5E5-460E-80F0-69F45ED98D3F";
shapes = (
{
closed = 1;
nodes = (
(114,58,o),
(195,-10,o),
(319,-10,cs),
(447,-10,o),
(524,55,o),
(524,157,cs),
(524,232,o),
(474,326,o),
(416,326,cs),
(390,326,o),
(364,301,o),
(364,263,cs),
(364,236,o),
(385,206,o),
(423,206,cs),
(452,206,o),
(471,214,o),
(494,228,c),
(442,222,l),
(457,189,o),
(465,163,o),
(465,137,cs),
(465,91,o),
(408,55,o),
(329,55,cs),
(242,55,o),
(182,98,o),
(182,160,cs),
(182,213,o),
(218,269,o),
(300,346,c),
(262,386,l),
(175,310,o),
(114,223,o),
(114,149,cs)
);
},
{
pos = (-2,0);
ref = _part.swash3;
}
);
width = 627;
},
{
anchors = (
{
name = b.tasubscriptorya;
pos = (349,0);
},
{
name = b.uvowelsignorya;
pos = (434,0);
},
{
name = t.candrabinduorya;
pos = (529,657);
},
{
name = t.ivowelsignorya;
pos = (339,657);
}
);
layerId = "D0F0E2C3-3B53-4823-9924-A34C50245C28";
shapes = (
{
closed = 1;
nodes = (
(117,55,o),
(199,-10,o),
(339,-10,cs),
(474,-10,o),
(552,55,o),
(552,157,cs),
(552,232,o),
(501,326,o),
(430,326,cs),
(382,326,o),
(344,295,o),
(344,247,cs),
(344,212,o),
(372,175,o),
(424,175,cs),
(463,175,o),
(488,185,o),
(520,202,c),
(436,192,l),
(453,171,o),
(463,155,o),
(463,138,cs),
(463,122,o),
(418,111,o),
(363,111,cs),
(268,111,o),
(215,147,o),
(215,187,cs),
(215,235,o),
(248,266,o),
(315,337,c),
(268,386,l),
(179,312,o),
(117,235,o),
(117,147,cs)
);
},
{
pos = (-5,0);
ref = _part.swash3;
}
);
width = 672;
}
);
metricLeft = iorya;
unicode = 2852;
},
{
glyphname = thaorya;
lastChange = "2021-07-21 15:39:12 +0000";
layers = (
{
anchors = (
{
name = b.tasubscriptorya;
pos = (342,0);
},
{
name = b.uvowelsignorya;
pos = (567,0);
},
{
name = t.candrabinduorya;
pos = (500,657);
},
{
name = t.ivowelsignorya;
pos = (314,657);
}
);
layerId = "6C4C2116-C5E5-460E-80F0-69F45ED98D3F";
shapes = (
{
closed = 1;
nodes = (
(30,64,o),
(111,-10,o),
(242,-10,cs),
(354,-10,o),
(462,41,o),
(525,147,c),
(530,223,l),
(456,103,o),
(346,57,o),
(257,57,cs),
(155,57,o),
(102,117,o),
(102,179,cs),
(102,235,o),
(141,272,o),
(218,302,cs),
(270,322,ls),
(303,335,o),
(332,348,o),
(356,365,cs),
(398,395,o),
(424,435,o),
(424,498,cs),
(424,598,o),
(355,667,o),
(249,667,cs),
(157,667,o),
(65,614,o),
(65,506,cs),
(65,472,o),
(75,437,o),
(89,404,c),
(154,427,l),
(145,451,o),
(133,482,o),
(133,513,cs),
(133,582,o),
(192,602,o),
(238,602,cs),
(313,602,o),
(357,550,o),
(357,488,cs),
(357,455,o),
(344,432,o),
(322,414,cs),
(301,397,o),
(270,384,o),
(234,371,cs),
(193,356,ls),
(153,341,o),
(120,325,o),
(95,305,cs),
(52,272,o),
(30,228,o),
(30,168,cs)
);
},
{
pos = (-16,0);
ref = _part.a;
}
);
width = 628;
},
{
anchors = (
{
name = b.tasubscriptorya;
pos = (407,0);
},
{
name = b.uvowelsignorya;
pos = (637,0);
},
{
name = t.candrabinduorya;
pos = (518,657);
},
{
name = t.ivowelsignorya;
pos = (346,657);
}
);
layerId = "D0F0E2C3-3B53-4823-9924-A34C50245C28";
shapes = (
{
closed = 1;
nodes = (
(29,66,o),
(116,-10,o),
(247,-10,cs),
(359,-10,o),
(459,47,o),
(527,131,c),
(524,250,l),
(462,151,o),
(362,110,o),
(282,110,cs),
(194,110,o),
(153,158,o),
(153,200,cs),
(153,234,o),
(180,253,o),
(217,264,cs),
(269,280,ls),
(321,296,o),
(356,311,o),
(391,336,cs),
(444,373,o),
(467,430,o),
(467,489,cs),
(467,591,o),
(400,667,o),
(275,667,cs),
(169,667,o),
(57,606,o),
(57,485,cs),
(57,459,o),
(63,430,o),
(75,396,c),
(191,440,l),
(181,461,o),
(173,485,o),
(173,503,cs),
(173,544,o),
(215,556,o),
(253,556,cs),
(325,556,o),
(365,513,o),
(365,464,cs),
(365,441,o),
(356,426,o),
(339,412,cs),
(322,398,o),
(298,387,o),
(221,363,cs),
(192,354,ls),
(139,338,o),
(111,322,o),
(85,298,cs),
(49,265,o),
(29,222,o),
(29,170,cs)
);
},
{
pos = (-17,0);
ref = _part.a;
}
);
width = 693;
}
);
metricRight = aorya;
unicode = 2853;
},
{
glyphname = daorya;
kernRight = caorya;
lastChange = "2021-07-22 07:46:18 +0000";
layers = (
{
anchors = (
{
name = b.tasubscriptorya;
pos = (313,0);
},
{
name = b.uvowelsignorya;
pos = (476,0);
},
{
name = t.candrabinduorya;
pos = (490,657);
},
{
name = t.ivowelsignorya;
pos = (313,657);
}
);
layerId = "6C4C2116-C5E5-460E-80F0-69F45ED98D3F";
shapes = (
{
closed = 1;
nodes = (
(455,178,l),
(430,157,o),
(378,118,o),
(303,118,cs),
(246,118,o),
(208,150,o),
(208,202,cs),
(208,241,o),
(237,277,o),
(290,321,c),
(251,359,l),
(190,310,o),
(139,257,o),
(139,187,cs),
(139,111,o),
(198,52,o),
(287,52,cs),
(364,52,o),
(425,93,o),
(462,142,c)
);
},
{
closed = 1;
nodes = (
(416,-7,l),
(476,7,l),
(476,298,l),
(469,305,l),
(409,290,l),
(409,0,l)
);
},
{
pos = (-2,0);
ref = _part.swash3;
}
);
width = 637;
},
{
anchors = (
{
name = b.tasubscriptorya;
pos = (352,0);
},
{
name = b.uvowelsignorya;
pos = (502,0);
},
{
name = t.candrabinduorya;
pos = (519,657);
},
{
name = t.ivowelsignorya;
pos = (339,657);
}
);
layerId = "D0F0E2C3-3B53-4823-9924-A34C50245C28";
shapes = (
{
closed = 1;
nodes = (
(439,215,l),
(421,193,o),
(376,156,o),
(309,156,cs),
(261,156,o),
(222,179,o),
(222,211,cs),
(222,246,o),
(255,280,o),
(321,333,c),
(274,382,l),
(184,315,o),
(122,246,o),
(122,170,cs),
(122,93,o),
(188,44,o),
(266,44,cs),
(333,44,o),
(382,74,o),
(410,108,c)
);
},
{
closed = 1;
nodes = (
(389,-10,l),
(502,20,l),
(502,313,l),
(495,320,l),
(382,290,l),
(382,-3,l)
);
},
{
pos = (-5,0);
ref = _part.swash3;
}
);
width = 680;
}
);
metricLeft = iorya;
metricRight = kaorya;
unicode = 2854;
},
{
glyphname = dhaorya;
lastChange = "2021-07-28 11:32:35 +0000";
layers = (
{
anchors = (
{
name = b.tasubscriptorya;
pos = (296,0);
},
{
name = b.uvowelsignorya;
pos = (521,0);
},
{
name = t.ivowelsignorya;
pos = (292,657);
}
);
layerId = "6C4C2116-C5E5-460E-80F0-69F45ED98D3F";
shapes = (
{
closed = 1;
nodes = (
(36,84,o),
(123,-10,o),
(255,-10,cs),
(387,-10,o),
(503,80,o),
(503,267,c),
(454,248,l),
(454,113,o),
(353,55,o),
(265,55,cs),
(170,55,o),
(104,123,o),
(104,204,cs),
(104,268,o),
(144,347,o),
(275,373,c),
(234,433,l),
(98,379,o),
(36,291,o),
(36,196,cs)
);
},
{
closed = 1;
nodes = (
(128,519,o),
(228,411,o),
(332,304,c),
(342,304,l),
(377,334,l),
(277,453,o),
(180,567,o),
(102,665,c),
(92,665,l),
(42,618,l)
);
},
{
pos = (-62,0);
ref = _part.a;
}
);
width = 582;
},
{
anchors = (
{
name = b.tasubscriptorya;
pos = (315,0);
},
{
name = b.uvowelsignorya;
pos = (574,0);
},
{
name = t.ivowelsignorya;
pos = (315,657);
}
);
layerId = "D0F0E2C3-3B53-4823-9924-A34C50245C28";
shapes = (
{
closed = 1;
nodes = (
(33,93,o),
(110,-10,o),
(252,-10,cs),
(406,-10,o),
(521,108,o),
(502,252,c),
(455,281,l),
(460,178,o),
(382,111,o),
(286,111,cs),
(193,111,o),
(144,173,o),
(144,234,cs),
(144,285,o),
(178,340,o),
(285,362,c),
(229,459,l),
(107,397,o),
(33,310,o),
(33,199,cs)
);
},
{
closed = 1;
nodes = (
(132,481,o),
(233,384,o),
(340,285,c),
(350,285,l),
(419,356,l),
(320,467,o),
(222,573,o),
(144,665,c),
(134,665,l),
(48,576,l)
);
},
{
pos = (-80,0);
ref = _part.a;
}
);
width = 630;
}
);
metricRight = aorya;
unicode = 2855;
},
{
glyphname = paorya;
lastChange = "2021-07-26 14:53:37 +0000";
layers = (
{
anchors = (
{
name = b.tasubscriptorya;
pos = (349,0);
},
{
name = b.uvowelsignorya;
pos = (645,0);
},
{
name = t.ivowelsignorya;
pos = (351,657);
}
);
layerId = "D0F0E2C3-3B53-4823-9924-A34C50245C28";
shapes = (
{
closed = 1;
nodes = (
(110,55,o),
(183,-10,o),
(302,-10,cs),
(458,-10,o),
(573,101,o),
(573,241,c),
(529,298,l),
(529,184,o),
(433,111,o),
(326,111,cs),
(251,111,o),
(209,148,o),
(209,185,cs),
(209,235,o),
(243,269,o),
(317,337,c),
(270,386,l),
(175,311,o),
(110,235,o),
(110,147,cs)
);
},
{
pos = (-9,0);
ref = _part.a;
},
{
pos = (-5,0);
ref = _part.g;
}
);
width = 701;
},
{
anchors = (
{
name = b.tasubscriptorya;
pos = (352,0);
},
{
name = b.uvowelsignorya;
pos = (577,0);
},
{
name = t.ivowelsignorya;
pos = (324,657);
}
);
layerId = "6C4C2116-C5E5-460E-80F0-69F45ED98D3F";
shapes = (
{
closed = 1;
nodes = (
(119,70,o),
(185,-10,o),
(309,-10,cs),
(453,-10,o),
(555,98,o),
(552,299,c),
(511,280,l),
(511,135,o),
(420,55,o),
(318,55,cs),
(234,55,o),
(187,109,o),
(187,173,cs),
(187,223,o),
(218,277,o),
(302,346,c),
(264,386,l),
(175,318,o),
(119,235,o),
(119,156,cs)
);
},
{
pos = (-6,0);
ref = _part.a;
},
{
pos = (-2,0);
ref = _part.g;
}
);
width = 638;
}
);
metricLeft = iorya;
metricRight = aorya;
unicode = 2858;
},
{
glyphname = baorya;
kernRight = caorya;
lastChange = "2021-07-27 13:06:57 +0000";
layers = (
{
anchors = (
{
name = b.tasubscriptorya;
pos = (312,0);
},
{
name = b.uvowelsignorya;
pos = (457,0);
},
{
name = t.candrabinduorya;
pos = (486,657);
},
{
name = t.ivowelsignorya;
pos = (309,657);
}
);
layerId = "6C4C2116-C5E5-460E-80F0-69F45ED98D3F";
shapes = (
{
closed = 1;
nodes = (
(457,187,ls),
(457,336,o),
(371,372,o),
(316,372,c),
(409,261,l),
(409,130,l),
(390,130,l),
(390,0,l),
(397,-7,l),
(457,7,l)
);
},
{
pos = (-4,0);
ref = _part.swash5;
},
{
pos = (-304,-295);
ref = _part.osmall;
}
);
width = 613;
},
{
anchors = (
{
name = b.tasubscriptorya;
pos = (364,0);
},
{
name = b.uvowelsignorya;
pos = (484,0);
},
{
name = t.candrabinduorya;
pos = (539,657);
},
{
name = t.ivowelsignorya;
pos = (350,657);
}
);
layerId = "D0F0E2C3-3B53-4823-9924-A34C50245C28";
shapes = (
{
closed = 1;
nodes = (
(484,114,ls),
(484,324,o),
(380,372,o),
(299,372,c),
(397,233,l),
(397,102,l),
(364,102,l),
(364,0,l),
(378,-9,l),
(484,20,l)
);
},
{
pos = (-5,0);
ref = _part.swash5;
},
{
pos = (-350,-294);
ref = _part.osmall;
}
);
width = 665;
}
);
metricLeft = iorya;
metricRight = caorya;
unicode = 2860;
},
{
glyphname = bhaorya;
kernRight = iorya;
lastChange = "2021-07-22 07:49:10 +0000";
layers = (
{
anchors = (
{
name = b.tasubscriptorya;
pos = (276,0);
},
{
name = b.uvowelsignorya;
pos = (379,0);
},
{
name = t.candrabinduorya;
pos = (506,657);
},
{
name = t.ivowelsignorya;
pos = (329,657);
}
);
layerId = "6C4C2116-C5E5-460E-80F0-69F45ED98D3F";
shapes = (
{
closed = 1;
nodes = (
(462,199,l),
(440,189,o),
(410,181,o),
(382,181,cs),
(333,181,o),
(317,206,o),
(317,231,cs),
(317,248,o),
(324,271,o),
(345,310,c),
(297,331,l),
(278,296,o),
(256,255,o),
(256,216,cs),
(256,162,o),
(300,130,o),
(357,130,cs),
(391,130,o),
(429,141,o),
(462,157,c)
);
},
{
closed = 1;
nodes = (
(400,314,l),
(412,263,o),
(426,189,o),
(426,130,cs),
(426,84,o),
(375,54,o),
(303,54,cs),
(212,54,o),
(155,101,o),
(155,170,cs),
(155,215,o),
(183,266,o),
(244,339,c),
(202,370,l),
(139,302,o),
(90,233,o),
(90,156,cs),
(90,56,o),
(166,-10,o),
(291,-10,cs),
(414,-10,o),
(482,54,o),
(482,146,cs),
(482,205,o),
(472,268,o),
(461,327,c)
);
},
{
pos = (-4,0);
ref = _part.i;
}
);
width = 685;
},
{
anchors = (
{
name = b.tasubscriptorya;
pos = (234,0);
},
{
name = b.uvowelsignorya;
pos = (388,0);
},
{
name = t.candrabinduorya;
pos = (535,657);
},
{
name = t.ivowelsignorya;
pos = (370,657);
}
);
layerId = "D0F0E2C3-3B53-4823-9924-A34C50245C28";
shapes = (
{
closed = 1;
nodes = (
(442,211,l),
(430,209,o),
(419,208,o),
(408,208,cs),
(347,208,o),
(322,223,o),
(322,245,cs),
(322,257,o),
(329,271,o),
(344,300,c),
(282,331,l),
(259,296,o),
(237,255,o),
(237,216,cs),
(237,162,o),
(280,130,o),
(339,130,cs),
(370,130,o),
(406,139,o),
(440,157,c)
);
},
{
closed = 1;
nodes = (
(378,305,l),
(392,257,o),
(402,195,o),
(402,151,cs),
(402,117,o),
(363,99,o),
(306,99,cs),
(215,99,o),
(161,137,o),
(161,189,cs),
(161,227,o),
(188,271,o),
(242,331,c),
(192,380,l),
(113,306,o),
(60,234,o),
(60,153,cs),
(60,57,o),
(142,-10,o),
(280,-10,cs),
(416,-10,o),
(495,59,o),
(495,165,cs),
(495,220,o),
(489,272,o),
(476,327,c)
);
},
{
pos = (-5,0);
ref = _part.i;
}
);
width = 739;
}
);
metricLeft = iorya;
metricRight = iorya;
unicode = 2861;
},
{
glyphname = maorya;
lastChange = "2021-07-28 13:40:23 +0000";
layers = (
{
anchors = (
{
name = b.tasubscriptorya;
pos = (358,0);
},
{
name = b.uvowelsignorya;
pos = (583,0);
},
{
name = t.ivowelsignorya;
pos = (320,657);
}
);
layerId = "6C4C2116-C5E5-460E-80F0-69F45ED98D3F";
shapes = (
{
closed = 1;
nodes = (
(106,13,o),
(137,-7,o),
(166,-7,cs),
(197,-7,o),
(222,17,o),
(222,50,cs),
(222,84,o),
(198,110,o),
(159,116,c),
(173,97,l),
(199,185,o),
(258,258,o),
(390,304,c),
(364,363,l),
(194,297,o),
(106,171,o),
(106,67,cs)
);
},
{
closed = 1;
nodes = (
(32,337,o),
(85,250,o),
(175,196,c),
(233,270,l),
(154,296,o),
(100,362,o),
(100,443,cs),
(100,527,o),
(164,601,o),
(289,601,cs),
(404,601,o),
(508,535,o),
(536,419,c),
(571,470,l),
(550,585,o),
(435,667,o),
(296,667,cs),
(135,667,o),
(32,554,o),
(32,431,cs)
);
},
{
ref = _part.a;
}
);
width = 644;
},
{
anchors = (
{
name = b.tasubscriptorya;
pos = (416,0);
},
{
name = b.uvowelsignorya;
pos = (645,0);
},
{
name = t.ivowelsignorya;
pos = (349,657);
}
);
layerId = "D0F0E2C3-3B53-4823-9924-A34C50245C28";
shapes = (
{
closed = 1;
nodes = (
(129,28,o),
(163,-10,o),
(218,-10,cs),
(270,-10,o),
(312,30,o),
(312,86,cs),
(312,135,o),
(275,171,o),
(232,172,c),
(248,148,l),
(247,194,o),
(296,254,o),
(417,290,c),
(386,362,l),
(210,310,o),
(129,195,o),
(129,86,cs)
);
},
{
closed = 1;
nodes = (
(27,312,o),
(70,239,o),
(157,178,c),
(247,292,l),
(174,313,o),
(127,366,o),
(127,424,cs),
(127,497,o),
(199,547,o),
(302,547,cs),
(420,547,o),
(517,481,o),
(561,379,c),
(608,500,l),
(561,598,o),
(448,667,o),
(320,667,cs),
(154,667,o),
(27,552,o),
(27,401,cs)
);
},
{
pos = (-8,0);
ref = _part.a;
}
);
width = 702;
}
);
metricLeft = iorya;
metricRight = aorya;
unicode = 2862;
},
{
glyphname = vaorya;
kernRight = caorya;
lastChange = "2021-07-22 07:46:18 +0000";
layers = (
{
anchors = (
{
name = b.tasubscriptorya;
pos = (327,0);
},
{
name = b.uvowelsignorya;
pos = (443,0);
},
{
name = t.candrabinduorya;
pos = (490,657);
},
{
name = t.ivowelsignorya;
pos = (313,657);
}
);
layerId = "6C4C2116-C5E5-460E-80F0-69F45ED98D3F";
shapes = (
{
closed = 1;
nodes = (
(395,261,l),
(395,130,l),
(376,130,l),
(376,0,l),
(383,-7,l),
(443,7,l),
(443,187,ls),
(443,336,o),
(360,372,o),
(302,372,c)
);
},
{
closed = 1;
nodes = (
(149,129,o),
(209,63,o),
(288,63,cs),
(372,63,o),
(416,134,o),
(436,223,c),
(436,309,o),
(379,372,o),
(302,372,cs),
(216,372,o),
(149,302,o),
(149,214,cs)
);
},
{
closed = 1;
nodes = (
(208,278,o),
(232,308,o),
(280,308,cs),
(336,308,o),
(383,255,o),
(383,198,cs),
(383,156,o),
(357,125,o),
(312,125,cs),
(263,125,o),
(208,168,o),
(208,239,cs)
);
},
{
closed = 1;
nodes = (
(267,201,o),
(283,187,o),
(298,170,c),
(342,218,l),
(326,235,o),
(311,249,o),
(295,262,c),
(250,214,l)
);
},
{
pos = (-4,0);
ref = _part.swash5;
}
);
width = 613;
},
{
anchors = (
{
name = b.tasubscriptorya;
pos = (326,0);
},
{
name = b.uvowelsignorya;
pos = (466,0);
},
{
name = t.candrabinduorya;
pos = (520,657);
},
{
name = t.ivowelsignorya;
pos = (326,657);
}
);
layerId = "D0F0E2C3-3B53-4823-9924-A34C50245C28";
shapes = (
{
closed = 1;
nodes = (
(399,250,l),
(399,119,l),
(346,119,l),
(346,0,l),
(360,-9,l),
(466,20,l),
(466,162,ls),
(466,326,o),
(371,372,o),
(305,372,c)
);
},
{
closed = 1;
nodes = (
(139,136,o),
(201,67,o),
(287,67,cs),
(366,67,o),
(446,126,o),
(454,225,c),
(454,306,o),
(383,372,o),
(300,372,cs),
(212,372,o),
(152,315,o),
(145,221,cs)
);
},
{
closed = 1;
nodes = (
(221,275,o),
(244,290,o),
(275,290,cs),
(333,290,o),
(378,247,o),
(378,198,cs),
(378,167,o),
(359,148,o),
(325,148,cs),
(269,148,o),
(221,190,o),
(221,237,cs)
);
},
{
closed = 1;
nodes = (
(271,201,o),
(287,187,o),
(302,170,c),
(346,218,l),
(330,235,o),
(315,249,o),
(299,262,c),
(254,214,l)
);
},
{
pos = (-5,0);
ref = _part.swash5;
}
);
width = 665;
}
);
metricLeft = iorya;
metricRight = caorya;
unicode = 2869;
},
{
glyphname = shaorya;
lastChange = "2021-07-29 12:33:41 +0000";
layers = (
{
anchors = (
{
name = b.tasubscriptorya;
pos = (373,0);
},
{
name = b.uvowelsignorya;
pos = (598,0);
},
{
name = t.candrabinduorya;
pos = (531,657);
},
{
name = t.ivowelsignorya;
pos = (330,657);
}
);
layerId = "6C4C2116-C5E5-460E-80F0-69F45ED98D3F";
shapes = (
{
closed = 1;
nodes = (
(129,493,o),
(158,461,o),
(191,439,c),
(338,439,l),
(338,449,l),
(225,479,o),
(197,518,o),
(197,540,cs),
(197,574,o),
(243,601,o),
(315,601,cs),
(412,601,o),
(522,545,o),
(563,420,c),
(589,493,l),
(555,598,o),
(449,667,o),
(324,667,cs),
(208,667,o),
(129,600,o),
(129,537,cs)
);
},
{
closed = 1;
nodes = (
(32,270,o),
(60,218,o),
(111,180,c),
(150,263,l),
(118,280,o),
(100,306,o),
(100,339,cs),
(100,393,o),
(145,421,o),
(199,421,cs),
(236,421,o),
(272,408,o),
(296,394,c),
(338,439,l),
(284,452,o),
(250,475,o),
(210,475,cs),
(99,475,o),
(32,409,o),
(32,322,cs)
);
},
{
pos = (51,0);
ref = _part.vo;
},
{
pos = (461,0);
ref = aavowelsignorya;
}
);
width = 659;
},
{
anchors = (
{
name = b.tasubscriptorya;
pos = (350,0);
},
{
name = b.uvowelsignorya;
pos = (663,0);
},
{
name = t.candrabinduorya;
pos = (544,657);
},
{
name = t.ivowelsignorya;
pos = (357,657);
}
);
layerId = "D0F0E2C3-3B53-4823-9924-A34C50245C28";
shapes = (
{
closed = 1;
nodes = (
(135,460,o),
(183,424,o),
(221,415,c),
(391,444,l),
(391,454,l),
(279,471,o),
(229,494,o),
(229,515,cs),
(229,537,o),
(278,550,o),
(327,550,cs),
(424,550,o),
(527,493,o),
(547,399,c),
(604,520,l),
(547,625,o),
(451,667,o),
(355,667,cs),
(224,667,o),
(135,596,o),
(135,513,cs)
);
},
{
closed = 1;
nodes = (
(27,277,o),
(54,214,o),
(120,159,c),
(209,291,l),
(155,302,o),
(125,330,o),
(125,356,cs),
(125,382,o),
(150,392,o),
(189,392,cs),
(223,392,o),
(284,380,o),
(327,366,c),
(391,444,l),
(340,456,o),
(292,471,o),
(196,471,cs),
(107,471,o),
(27,416,o),
(27,330,cs)
);
},
{
pos = (3,0);
ref = _part.vo;
},
{
pos = (482,0);
ref = aavowelsignorya;
}
);
width = 720;
}
);
metricLeft = iorya;
metricRight = aorya;
unicode = 2870;
},
{
glyphname = ssaorya;
lastChange = "2021-07-22 07:42:59 +0000";
layers = (
{
anchors = (
{
name = b.tasubscriptorya;
pos = (352,0);
},
{
name = b.uvowelsignorya;
pos = (578,0);
},
{
name = t.ivowelsignorya;
pos = (316,657);
}
);
layerId = "6C4C2116-C5E5-460E-80F0-69F45ED98D3F";
shapes = (
{
closed = 1;
nodes = (
(457,80,l),
(488,116,l),
(167,592,l),
(136,556,l)
);
},
{
ref = paorya;
}
);
width = 638;
},
{
anchors = (
{
name = b.tasubscriptorya;
pos = (418,0);
},
{
name = b.uvowelsignorya;
pos = (651,0);
},
{
name = t.ivowelsignorya;
pos = (346,657);
}
);
layerId = "D0F0E2C3-3B53-4823-9924-A34C50245C28";
shapes = (
{
closed = 1;
nodes = (
(465,96,l),
(521,148,l),
(228,584,l),
(172,532,l)
);
},
{
ref = paorya;
}
);
width = 701;
}
);
metricLeft = iorya;
metricRight = aorya;
unicode = 2871;
},
{
glyphname = saorya;
lastChange = "2021-07-26 15:37:40 +0000";
layers = (
{
anchors = (
{
name = b.tasubscriptorya;
pos = (360,0);
},
{
name = b.uvowelsignorya;
pos = (585,0);
},
{
name = t.ivowelsignorya;
pos = (324,657);
}
);
layerId = "6C4C2116-C5E5-460E-80F0-69F45ED98D3F";
shapes = (
{
closed = 1;
nodes = (
(92,98,l),
(239,80,o),
(380,48,o),
(525,-7,c),
(563,64,l),
(408,113,o),
(260,145,o),
(114,158,c),
(150,136,l),
(187,209,o),
(244,285,o),
(304,351,c),
(266,392,l),
(193,314,o),
(137,247,o),
(72,129,c)
);
},
{
pos = (2,0);
ref = _part.a;
},
{
pos = (-2,0);
ref = _part.g;
}
);
width = 646;
},
{
anchors = (
{
name = b.tasubscriptorya;
pos = (420,0);
},
{
name = b.uvowelsignorya;
pos = (650,0);
},
{
name = t.ivowelsignorya;
pos = (355,657);
}
);
layerId = "D0F0E2C3-3B53-4823-9924-A34C50245C28";
shapes = (
{
closed = 1;
nodes = (
(97,87,l),
(244,64,o),
(392,32,o),
(537,-7,c),
(569,120,l),
(433,148,o),
(295,173,o),
(153,189,c),
(201,164,l),
(214,196,o),
(248,250,o),
(335,337,c),
(288,386,l),
(175,284,o),
(108,188,o),
(79,126,c)
);
},
{
pos = (-4,0);
ref = _part.a;
},
{
pos = (-5,0);
ref = _part.g;
}
);
width = 706;
}
);
metricLeft = iorya;
metricRight = aorya;
unicode = 2872;
},
{
glyphname = haorya;
lastChange = "2021-07-22 07:46:18 +0000";
layers = (
{
anchors = (
{
name = b.tasubscriptorya;
pos = (258,0);
},
{
name = b.uvowelsignorya;
pos = (425,-1);
},
{
name = t.candrabinduorya;
pos = (480,657);
},
{
name = t.ivowelsignorya;
pos = (294,657);
}
);
layerId = "6C4C2116-C5E5-460E-80F0-69F45ED98D3F";
shapes = (
{
closed = 1;
nodes = (
(178,170,l),
(131,137,o),
(109,113,o),
(70,46,c),
(90,15,l),
(225,2,o),
(355,-21,o),
(479,-52,c),
(517,14,l),
(387,40,o),
(253,62,o),
(121,71,c),
(131,47,l),
(151,82,o),
(175,113,o),
(202,143,c)
);
},
{
closed = 1;
nodes = (
(386,86,l),
(446,100,l),
(446,363,l),
(439,370,l),
(379,355,l),
(379,93,l)
);
},
{
closed = 1;
nodes = (
(420,240,l),
(398,220,o),
(347,185,o),
(289,185,cs),
(239,185,o),
(206,214,o),
(206,260,cs),
(206,299,o),
(235,335,o),
(288,379,c),
(249,417,l),
(191,368,o),
(142,315,o),
(142,245,cs),
(142,176,o),
(194,123,o),
(272,123,cs),
(339,123,o),
(394,156,o),
(427,197,c)
);
},
{
pos = (-4,0);
ref = _part.swash5;
}
);
width = 613;
},
{
anchors = (
{
name = b.tasubscriptorya;
pos = (293,0);
},
{
name = b.uvowelsignorya;
pos = (463,6);
},
{
name = t.candrabinduorya;
pos = (529,657);
},
{
name = t.ivowelsignorya;
pos = (330,657);
}
);
layerId = "D0F0E2C3-3B53-4823-9924-A34C50245C28";
shapes = (
{
closed = 1;
nodes = (
(189,181,l),
(135,144,o),
(110,117,o),
(65,42,c),
(83,9,l),
(232,-5,o),
(375,-29,o),
(511,-63,c),
(582,39,l),
(451,63,o),
(317,84,o),
(184,92,c),
(175,64,l),
(191,96,o),
(210,125,o),
(231,152,c)
);
},
{
closed = 1;
nodes = (
(385,107,l),
(498,137,l),
(498,365,l),
(491,372,l),
(378,342,l),
(378,114,l)
);
},
{
closed = 1;
nodes = (
(415,266,l),
(398,240,o),
(350,219,o),
(313,219,cs),
(249,219,o),
(230,248,o),
(230,274,cs),
(230,294,o),
(244,323,o),
(300,364,c),
(254,412,l),
(184,368,o),
(129,307,o),
(129,239,cs),
(129,182,o),
(173,123,o),
(265,123,cs),
(358,123,o),
(416,177,o),
(431,237,c)
);
},
{
pos = (-5,0);
ref = _part.swash5;
}
);
width = 665;
}
);
metricLeft = iorya;
metricRight = caorya;
unicode = 2873;
},
{
glyphname = waorya;
lastChange = "2021-07-22 07:42:59 +0000";
layers = (
{
anchors = (
{
name = b.tasubscriptorya;
pos = (274,0);
},
{
name = b.uvowelsignorya;
pos = (468,0);
},
{
name = t.candrabinduorya;
pos = (421,657);
},
{
name = t.ivowelsignorya;
pos = (274,657);
}
);
layerId = "6C4C2116-C5E5-460E-80F0-69F45ED98D3F";
shapes = (
{
closed = 1;
nodes = (
(408,-7,l),
(468,7,l),
(468,250,l),
(461,257,l),
(401,242,l),
(401,0,l)
);
},
{
closed = 1;
nodes = (
(32,284,o),
(144,191,o),
(305,191,cs),
(435,191,o),
(526,249,o),
(526,331,cs),
(526,424,o),
(429,440,o),
(335,445,c),
(330,426,l),
(376,442,o),
(413,459,o),
(441,477,cs),
(482,503,o),
(498,531,o),
(498,567,cs),
(498,624,o),
(439,667,o),
(358,667,cs),
(278,667,o),
(212,624,o),
(212,566,cs),
(212,552,o),
(215,534,o),
(221,520,c),
(290,533,l),
(285,546,o),
(282,556,o),
(282,566,cs),
(282,593,o),
(310,607,o),
(349,607,cs),
(396,607,o),
(430,583,o),
(430,558,cs),
(430,520,o),
(371,496,o),
(338,483,cs),
(312,473,o),
(291,465,o),
(271,458,c),
(255,414,l),
(263,396,l),
(292,395,o),
(332,392,o),
(366,387,cs),
(427,378,o),
(460,360,o),
(460,326,cs),
(460,287,o),
(397,259,o),
(310,259,cs),
(181,259,o),
(99,324,o),
(99,431,cs),
(99,499,o),
(122,559,o),
(193,657,c),
(129,679,l),
(63,575,o),
(32,490,o),
(32,416,cs)
);
},
{
closed = 1;
nodes = (
(118,81,o),
(172,30,o),
(254,30,cs),
(326,30,o),
(390,65,o),
(429,108,c),
(422,155,l),
(397,134,o),
(334,96,o),
(269,96,cs),
(218,96,o),
(184,123,o),
(184,162,cs),
(184,193,o),
(202,218,o),
(225,245,c),
(175,270,l),
(144,235,o),
(118,195,o),
(118,150,cs)
);
}
);
width = 558;
},
{
anchors = (
{
name = b.tasubscriptorya;
pos = (304,0);
},
{
name = b.uvowelsignorya;
pos = (536,0);
},
{
name = t.candrabinduorya;
pos = (481,657);
},
{
name = t.ivowelsignorya;
pos = (304,657);
}
);
layerId = "D0F0E2C3-3B53-4823-9924-A34C50245C28";
shapes = (
{
closed = 1;
nodes = (
(423,-10,l),
(536,20,l),
(536,253,l),
(529,260,l),
(416,230,l),
(416,-3,l)
);
},
{
closed = 1;
nodes = (
(27,276,o),
(148,189,o),
(332,189,cs),
(498,189,o),
(590,261,o),
(590,345,cs),
(590,420,o),
(500,446,o),
(425,450,c),
(420,427,l),
(451,440,o),
(482,454,o),
(508,472,cs),
(539,493,o),
(561,520,o),
(561,556,cs),
(561,619,o),
(493,666,o),
(404,666,cs),
(330,666,o),
(238,617,o),
(238,546,cs),
(238,533,o),
(242,515,o),
(254,496,c),
(359,526,l),
(351,538,o),
(349,548,o),
(349,555,cs),
(349,573,o),
(367,578,o),
(387,578,cs),
(425,578,o),
(444,557,o),
(444,537,cs),
(444,517,o),
(415,498,o),
(383,484,cs),
(358,473,o),
(331,465,o),
(312,461,c),
(280,386,l),
(288,379,l),
(320,379,o),
(352,376,o),
(380,372,cs),
(440,363,o),
(484,349,o),
(484,331,cs),
(484,303,o),
(412,291,o),
(353,291,cs),
(201,291,o),
(142,374,o),
(142,454,cs),
(142,507,o),
(168,562,o),
(232,639,c),
(135,672,l),
(86,597,o),
(27,504,o),
(27,416,cs)
);
},
{
closed = 1;
nodes = (
(113,81,o),
(153,21,o),
(254,21,cs),
(347,21,o),
(424,71,o),
(451,125,c),
(429,164,l),
(395,129,o),
(338,118,o),
(297,118,cs),
(233,118,o),
(214,147,o),
(214,173,cs),
(214,199,o),
(228,235,o),
(284,278,c),
(248,296,l),
(168,267,o),
(113,206,o),
(113,138,cs)
);
}
);
width = 621;
}
);
metricLeft = iorya;
unicode = 2929;
},
{
glyphname = yyaorya;
kernLeft = yaorya;
kernRight = yyaorya;
lastChange = "2021-07-27 11:24:52 +0000";
layers = (
{
anchors = (
{
name = b.tasubscriptorya;
pos = (279,0);
},
{
name = b.uvowelsignorya;
pos = (629,0);
},
{
name = t.candrabinduorya;
pos = (576,657);
},
{
name = t.ivowelsignorya;
pos = (366,657);
}
);
layerId = "6C4C2116-C5E5-460E-80F0-69F45ED98D3F";
shapes = (
{
closed = 1;
nodes = (
(165,66,o),
(222,-10,o),
(331,-10,cs),
(401,-10,o),
(464,15,o),
(546,118,cs),
(571,150,o),
(589,168,o),
(612,168,cs),
(633,168,o),
(647,155,o),
(647,137,cs),
(647,114,o),
(625,87,o),
(573,35,c),
(573,7,l),
(701,-111,l),
(715,-111,l),
(760,-64,l),
(619,43,l),
(614,7,l),
(667,61,o),
(706,99,o),
(706,148,cs),
(706,195,o),
(670,232,o),
(621,232,cs),
(588,232,o),
(559,223,o),
(509,161,cs),
(442,78,o),
(395,55,o),
(342,55,cs),
(271,55,o),
(234,104,o),
(234,164,cs),
(234,214,o),
(264,268,o),
(342,336,c),
(304,376,l),
(217,304,o),
(165,224,o),
(165,149,cs)
);
},
{
closed = 1;
nodes = (
(629,174,l),
(629,657,l),
(622,664,l),
(562,650,l),
(562,174,l)
);
},
{
closed = 1;
nodes = (
(13,59,o),
(43,39,o),
(70,39,cs),
(100,39,o),
(126,65,o),
(126,98,cs),
(126,126,o),
(108,145,o),
(78,155,c),
(83,142,l),
(112,199,o),
(179,252,o),
(264,282,c),
(253,316,l),
(150,294,o),
(13,182,o),
(13,104,cs)
);
},
{
closed = 1;
nodes = (
(81,365,o),
(119,287,o),
(212,243,c),
(253,317,l),
(179,341,o),
(149,395,o),
(149,451,cs),
(149,532,o),
(212,601,o),
(333,601,cs),
(451,601,o),
(557,535,o),
(585,419,c),
(620,470,l),
(599,585,o),
(483,667,o),
(342,667,cs),
(183,667,o),
(81,561,o),
(81,439,cs)
);
}
);
width = 750;
},
{
anchors = (
{
name = b.tasubscriptorya;
pos = (309,0);
},
{
name = b.uvowelsignorya;
pos = (608,0);
},
{
name = t.candrabinduorya;
pos = (569,657);
},
{
name = t.ivowelsignorya;
pos = (391,657);
}
);
layerId = "D0F0E2C3-3B53-4823-9924-A34C50245C28";
shapes = (
{
closed = 1;
nodes = (
(211,55,o),
(283,-10,o),
(374,-10,cs),
(468,-10,o),
(520,40,o),
(573,100,cs),
(606,137,o),
(624,154,o),
(648,153,cs),
(668,152,o),
(675,138,o),
(675,123,cs),
(675,100,o),
(656,75,o),
(601,38,c),
(601,6,l),
(722,-135,l),
(733,-135,l),
(827,-51,l),
(686,77,l),
(686,23,l),
(752,63,o),
(784,111,o),
(784,160,cs),
(784,208,o),
(748,253,o),
(684,254,cs),
(642,255,o),
(607,253,o),
(552,194,cs),
(510,149,o),
(459,111,o),
(401,111,cs),
(338,111,o),
(306,147,o),
(306,183,cs),
(306,231,o),
(343,264,o),
(418,327,c),
(371,376,l),
(276,305,o),
(211,231,o),
(211,147,cs)
);
},
{
closed = 1;
nodes = (
(689,198,l),
(689,663,l),
(682,670,l),
(569,643,l),
(569,198,l)
);
},
{
closed = 1;
nodes = (
(10,59,o),
(45,20,o),
(94,20,cs),
(143,20,o),
(182,59,o),
(182,109,cs),
(182,155,o),
(143,201,o),
(104,202,c),
(128,178,l),
(127,198,o),
(197,227,o),
(312,241,c),
(279,297,l),
(95,274,o),
(10,189,o),
(10,111,cs)
);
},
{
closed = 1;
nodes = (
(71,330,o),
(103,272,o),
(175,219,c),
(295,297,l),
(220,318,o),
(171,370,o),
(171,428,cs),
(171,499,o),
(243,547,o),
(346,547,cs),
(464,547,o),
(561,481,o),
(605,379,c),
(652,500,l),
(605,598,o),
(492,667,o),
(364,667,cs),
(198,667,o),
(71,554,o),
(71,404,cs)
);
}
);
width = 805;
}
);
unicode = 2911;
},
{
category = Letter;
glyphname = sakaorya;
kernRight = ssakaorya;
lastChange = "2021-07-22 08:05:40 +0000";
layers = (
{
anchors = (
{
name = b.tasubscriptorya;
pos = (384,-11);
},
{
name = b.uvowelsignorya;
pos = (572,-11);
},
{
name = t.candrabinduorya;
pos = (516,657);
},
{
name = t.ivowelsignorya;
pos = (322,657);
}
);
layerId = "6C4C2116-C5E5-460E-80F0-69F45ED98D3F";
shapes = (
{
closed = 1;
nodes = (
(573,75,l),
(583,75,l),
(583,657,l),
(576,664,l),
(516,650,l),
(516,74,l)
);
},
{
pos = (708,115);
ref = kasubscriptorya;
},
{
pos = (1,0);
ref = _part.sa;
}
);
width = 703;
},
{
anchors = (
{
name = b.tasubscriptorya;
pos = (430,0);
},
{
name = b.uvowelsignorya;
pos = (641,0);
},
{
name = t.candrabinduorya;
pos = (521,657);
},
{
name = t.ivowelsignorya;
pos = (346,657);
}
);
layerId = "D0F0E2C3-3B53-4823-9924-A34C50245C28";
shapes = (
{
closed = 1;
nodes = (
(634,57,l),
(641,66,l),
(641,657,l),
(634,664,l),
(521,637,l),
(521,58,l)
);
},
{
pos = (798,115);
ref = kasubscriptorya;
},
{
pos = (-5,0);
ref = _part.sa;
}
);
width = 800;
}
);
metricLeft = iorya;
script = oriya;
},
{
category = Letter;
glyphname = airephorya;
lastChange = "2021-07-31 19:37:10 +0000";
layers = (
{
anchors = (
{
name = b.tasubscriptorya;
pos = (410,0);
}
);
layerId = "6C4C2116-C5E5-460E-80F0-69F45ED98D3F";
shapes = (
{
closed = 1;
nodes = (
(793,765,l),
(836,753,o),
(875,743,o),
(918,733,c),
(938,797,l),
(888,801,o),
(840,808,o),
(795,817,c),
(787,810,l),
(895,804,o),
(930,828,o),
(1019,890,c),
(998,917,l),
(920,880,o),
(841,859,o),
(757,853,c)
);
},
{
ref = aiorya;
}
);
width = 821;
},
{
anchors = (
{
name = b.tasubscriptorya;
pos = (462,0);
}
);
layerId = "D0F0E2C3-3B53-4823-9924-A34C50245C28";
shapes = (
{
closed = 1;
nodes = (
(837,707,l),
(876,697,o),
(914,689,o),
(953,681,c),
(990,780,l),
(931,785,o),
(874,793,o),
(821,802,c),
(812,788,l),
(938,781,o),
(979,811,o),
(1083,885,c),
(1058,917,l),
(967,874,o),
(875,849,o),
(777,842,c)
);
},
{
ref = aiorya;
}
);
width = 924;
}
);
metricLeft = eorya;
script = oriya;
subCategory = Spacing;
},
{
category = Letter;
glyphname = aurephorya;
lastChange = "2021-07-28 10:48:31 +0000";
layers = (
{
anchors = (
{
name = b.tasubscriptorya;
pos = (410,0);
}
);
layerId = "6C4C2116-C5E5-460E-80F0-69F45ED98D3F";
shapes = (
{
closed = 1;
nodes = (
(771,763,l),
(806,752,o),
(839,743,o),
(875,733,c),
(895,796,l),
(850,801,o),
(806,808,o),
(765,816,c),
(757,811,l),
(851,805,o),
(881,826,o),
(959,879,c),
(938,906,l),
(870,876,o),
(801,858,o),
(727,853,c)
);
},
{
ref = auorya;
}
);
width = 830;
},
{
anchors = (
{
name = b.tasubscriptorya;
pos = (456,0);
}
);
layerId = "D0F0E2C3-3B53-4823-9924-A34C50245C28";
shapes = (
{
closed = 1;
nodes = (
(828,707,l),
(867,698,o),
(905,689,o),
(944,681,c),
(981,780,l),
(922,786,o),
(865,793,o),
(812,802,c),
(803,788,l),
(929,781,o),
(970,811,o),
(1074,885,c),
(1049,917,l),
(958,874,o),
(866,849,o),
(768,842,c)
);
},
{
ref = auorya;
}
);
width = 913;
}
);
metricLeft = eorya;
script = oriya;
subCategory = Spacing;
},
{
category = Letter;
glyphname = babaorya;
kernRight = caorya;
lastChange = "2021-07-22 07:46:18 +0000";
layers = (
{
anchors = (
{
name = b.tasubscriptorya;
pos = (329,0);
},
{
name = b.uvowelsignorya;
pos = (472,0);
},
{
name = t.ivowelsignorya;
pos = (329,657);
}
);
layerId = "6C4C2116-C5E5-460E-80F0-69F45ED98D3F";
shapes = (
{
closed = 1;
nodes = (
(122,111,o),
(158,54,o),
(217,54,cs),
(284,54,o),
(326,117,o),
(326,216,cs),
(326,298,o),
(291,355,o),
(230,355,cs),
(165,355,o),
(122,290,o),
(122,192,cs)
);
},
{
closed = 1;
nodes = (
(183,260,o),
(196,296,o),
(219,296,cs),
(247,296,o),
(265,246,o),
(265,197,cs),
(265,147,o),
(251,112,o),
(229,112,cs),
(202,112,o),
(183,163,o),
(183,211,cs)
);
},
{
closed = 1;
nodes = (
(265,111,o),
(301,54,o),
(360,54,cs),
(416,54,o),
(462,121,o),
(462,205,cs),
(462,298,o),
(430,355,o),
(373,355,cs),
(308,355,o),
(265,290,o),
(265,192,cs)
);
},
{
closed = 1;
nodes = (
(424,261,l),
(424,130,l),
(405,130,l),
(405,0,l),
(412,-7,l),
(472,7,l),
(472,187,ls),
(472,330,o),
(417,355,o),
(373,355,c)
);
},
{
closed = 1;
nodes = (
(326,260,o),
(339,296,o),
(362,296,cs),
(390,296,o),
(408,246,o),
(408,197,cs),
(408,147,o),
(394,112,o),
(372,112,cs),
(345,112,o),
(326,163,o),
(326,211,cs)
);
},
{
pos = (-2,0);
ref = _part.swash3;
}
);
width = 625;
},
{
anchors = (
{
name = b.tasubscriptorya;
pos = (355,0);
},
{
name = b.uvowelsignorya;
pos = (559,0);
},
{
name = t.ivowelsignorya;
pos = (355,657);
}
);
layerId = "D0F0E2C3-3B53-4823-9924-A34C50245C28";
shapes = (
{
closed = 1;
nodes = (
(120,111,o),
(164,54,o),
(238,54,cs),
(316,54,o),
(380,117,o),
(380,217,cs),
(380,295,o),
(333,355,o),
(261,355,cs),
(177,355,o),
(120,290,o),
(120,192,cs)
);
},
{
closed = 1;
nodes = (
(218,249,o),
(229,277,o),
(246,277,cs),
(269,277,o),
(282,237,o),
(282,199,cs),
(282,159,o),
(271,132,o),
(253,132,cs),
(232,132,o),
(218,172,o),
(218,209,cs)
);
},
{
closed = 1;
nodes = (
(282,111,o),
(329,54,o),
(394,54,cs),
(473,54,o),
(526,117,o),
(526,217,cs),
(526,282,o),
(486,355,o),
(421,355,cs),
(345,355,o),
(282,288,o),
(282,192,cs)
);
},
{
closed = 1;
nodes = (
(462,226,l),
(462,95,l),
(439,95,l),
(439,0,l),
(453,-9,l),
(559,20,l),
(559,173,ls),
(559,318,o),
(490,355,o),
(421,355,c)
);
},
{
closed = 1;
nodes = (
(380,249,o),
(391,277,o),
(408,277,cs),
(430,277,o),
(444,237,o),
(444,199,cs),
(444,159,o),
(433,132,o),
(415,132,cs),
(393,132,o),
(380,172,o),
(380,209,cs)
);
},
{
pos = (-5,0);
ref = _part.swash3;
}
);
width = 665;
}
);
metricLeft = iorya;
metricRight = caorya;
script = oriya;
subCategory = Spacing;
},
{
category = Letter;
glyphname = badaorya;
kernRight = caorya;
lastChange = "2023-11-23 07:16:15 +0000";
layers = (
{
anchors = (
{
name = b.tasubscriptorya;
pos = (324,0);
},
{
name = b.uvowelsignorya;
pos = (517,0);
},
{
name = t.ivowelsignorya;
pos = (324,657);
}
);
layerId = "6C4C2116-C5E5-460E-80F0-69F45ED98D3F";
shapes = (
{
closed = 1;
nodes = (
(457,-7,l),
(517,8,l),
(517,324,l),
(510,331,l),
(450,316,l),
(450,0,l)
);
},
{
closed = 1;
nodes = (
(101,121,o),
(158,60,o),
(235,60,cs),
(316,60,o),
(378,127,o),
(378,212,cs),
(378,294,o),
(320,355,o),
(244,355,cs),
(163,355,o),
(101,288,o),
(101,202,cs)
);
},
{
closed = 1;
nodes = (
(329,87,o),
(355,60,o),
(394,60,cs),
(449,60,o),
(476,113,o),
(485,193,c),
(462,208,l),
(456,154,o),
(437,120,o),
(410,120,cs),
(391,120,o),
(375,138,o),
(373,187,c),
(317,126,l)
);
},
{
closed = 1;
nodes = (
(157,247,o),
(176,284,o),
(216,292,cs),
(259,300,o),
(303,266,o),
(313,213,cs),
(322,168,o),
(303,132,o),
(263,124,cs),
(221,116,o),
(176,150,o),
(166,203,cs)
);
},
{
pos = (-2,0);
ref = _part.swash3;
}
);
width = 637;
},
{
anchors = (
{
name = b.tasubscriptorya;
pos = (364,0);
},
{
name = b.uvowelsignorya;
pos = (554,0);
},
{
name = t.ivowelsignorya;
pos = (364,657);
}
);
layerId = "D0F0E2C3-3B53-4823-9924-A34C50245C28";
shapes = (
{
closed = 1;
nodes = (
(441,-10,l),
(554,17,l),
(554,324,l),
(547,331,l),
(434,304,l),
(434,-3,l)
);
},
{
closed = 1;
nodes = (
(84,117,o),
(150,60,o),
(235,60,cs),
(331,60,o),
(376,146,o),
(376,216,cs),
(376,294,o),
(316,355,o),
(231,355,cs),
(136,355,o),
(84,275,o),
(84,199,cs)
);
},
{
closed = 1;
nodes = (
(312,107,o),
(332,75,o),
(375,75,cs),
(431,75,o),
(473,136,o),
(480,237,c),
(455,283,l),
(455,226,o),
(433,182,o),
(400,182,cs),
(379,182,o),
(370,201,o),
(361,239,c),
(303,155,l)
);
},
{
closed = 1;
nodes = (
(179,243,o),
(195,255,o),
(217,255,cs),
(252,255,o),
(287,229,o),
(287,194,cs),
(287,173,o),
(271,161,o),
(248,161,cs),
(210,161,o),
(179,189,o),
(179,220,cs)
);
},
{
pos = (-5,0);
ref = _part.swash3;
}
);
width = 680;
}
);
metricLeft = iorya;
metricRight = kaorya;
script = oriya;
subCategory = Spacing;
},
{
category = Letter;
glyphname = badhaorya;
lastChange = "2021-07-31 14:02:58 +0000";
layers = (
{
anchors = (
{
name = b.rrvocalicvowelsignleftorya;
pos = (534,-49);
},
{
name = b.tasubscriptorya;
pos = (324,0);
},
{
name = b.uvowelsignorya;
pos = (533,0);
},
{
name = m.rrvocalicvowelsignleftorya;
pos = (527,-49);
},
{
name = t.candrabinduorya;
pos = (502,657);
},
{
name = t.ivowelsignorya;
pos = (312,657);
}
);
layerId = "6C4C2116-C5E5-460E-80F0-69F45ED98D3F";
shapes = (
{
closed = 1;
nodes = (
(142,184,o),
(203,120,o),
(284,120,cs),
(369,120,o),
(435,191,o),
(435,281,cs),
(435,367,o),
(374,432,o),
(293,432,cs),
(208,432,o),
(142,361,o),
(142,271,cs)
);
},
{
closed = 1;
nodes = (
(392,321,l),
(392,190,l),
(373,190,l),
(373,60,l),
(380,53,l),
(440,67,l),
(440,247,ls),
(440,396,o),
(354,432,o),
(299,432,c)
);
},
{
closed = 1;
nodes = (
(205,338,o),
(231,371,o),
(277,371,cs),
(326,371,o),
(372,324,o),
(372,261,cs),
(372,216,o),
(346,182,o),
(300,182,cs),
(252,182,o),
(205,227,o),
(205,293,cs)
);
},
{
closed = 1;
nodes = (
(474,-282,l),
(534,-268,l),
(534,82,l),
(527,89,l),
(467,75,l),
(467,-275,l)
);
},
{
closed = 1;
nodes = (
(289,-15,o),
(337,-67,o),
(391,-126,c),
(401,-126,l),
(429,-95,l),
(381,-31,o),
(335,25,o),
(296,77,c),
(286,77,l),
(246,41,l)
);
},
{
closed = 1;
nodes = (
(221,-230,o),
(273,-280,o),
(347,-280,cs),
(411,-280,o),
(467,-243,o),
(485,-199,c),
(474,-140,l),
(449,-202,o),
(398,-224,o),
(357,-224,cs),
(308,-224,o),
(277,-191,o),
(277,-153,cs),
(277,-120,o),
(301,-91,o),
(351,-76,c),
(316,-25,l),
(246,-64,o),
(221,-110,o),
(221,-159,cs)
);
},
{
pos = (-4,0);
ref = _part.halfswash;
}
);
width = 616;
},
{
anchors = (
{
name = b.rrvocalicvowelsignleftorya;
pos = (530,-49);
},
{
name = b.tasubscriptorya;
pos = (310,0);
},
{
name = b.uvowelsignorya;
pos = (545,0);
},
{
name = m.rrvocalicvowelsignleftorya;
pos = (537,-49);
},
{
name = t.candrabinduorya;
pos = (485,657);
},
{
name = t.ivowelsignorya;
pos = (320,657);
}
);
layerId = "D0F0E2C3-3B53-4823-9924-A34C50245C28";
shapes = (
{
closed = 1;
nodes = (
(122,179,o),
(184,110,o),
(275,110,cs),
(349,110,o),
(437,169,o),
(437,268,cs),
(437,353,o),
(373,415,o),
(283,415,cs),
(195,415,o),
(135,358,o),
(128,264,cs)
);
},
{
closed = 1;
nodes = (
(352,293,l),
(352,162,l),
(329,162,l),
(329,67,l),
(343,58,l),
(449,87,l),
(449,205,ls),
(449,377,o),
(360,415,o),
(283,415,c)
);
},
{
closed = 1;
nodes = (
(216,301,o),
(236,315,o),
(267,315,cs),
(312,315,o),
(348,285,o),
(348,247,cs),
(348,222,o),
(329,206,o),
(296,206,cs),
(253,206,o),
(216,239,o),
(216,278,cs)
);
},
{
closed = 1;
nodes = (
(452,-282,l),
(545,-259,l),
(545,82,l),
(537,89,l),
(445,66,l),
(445,-275,l)
);
},
{
closed = 1;
nodes = (
(257,-34,o),
(306,-81,o),
(363,-134,c),
(373,-134,l),
(418,-88,l),
(371,-27,o),
(327,27,o),
(289,77,c),
(279,77,l),
(212,17,l)
);
},
{
closed = 1;
nodes = (
(198,-231,o),
(249,-281,o),
(332,-281,cs),
(400,-281,o),
(447,-251,o),
(480,-205,c),
(455,-137,l),
(437,-172,o),
(396,-194,o),
(359,-193,cs),
(318,-193,o),
(291,-169,o),
(291,-142,cs),
(291,-118,o),
(309,-94,o),
(355,-81,c),
(286,-23,l),
(233,-61,o),
(198,-114,o),
(198,-162,cs)
);
},
{
pos = (-5,0);
ref = _part.halfswash;
}
);
width = 671;
}
);
metricLeft = iorya;
script = oriya;
subCategory = Spacing;
},
{
category = Letter;
glyphname = balaorya;
lastChange = "2021-07-22 07:46:18 +0000";
layers = (
{
anchors = (
{
name = b.rrvocalicvowelsignleftorya;
pos = (544,-49);
},
{
name = b.tasubscriptorya;
pos = (334,0);
},
{
name = b.uvowelsignorya;
pos = (505,0);
},
{
name = t.candrabinduorya;
pos = (474,657);
},
{
name = t.ivowelsignorya;
pos = (304,657);
}
);
layerId = "6C4C2116-C5E5-460E-80F0-69F45ED98D3F";
shapes = (
{
closed = 1;
nodes = (
(142,184,o),
(203,120,o),
(284,120,cs),
(368,120,o),
(433,191,o),
(433,281,cs),
(433,367,o),
(373,432,o),
(293,432,cs),
(208,432,o),
(142,361,o),
(142,271,cs)
);
},
{
closed = 1;
nodes = (
(392,321,l),
(392,190,l),
(373,190,l),
(373,20,l),
(440,47,l),
(440,247,ls),
(440,396,o),
(354,432,o),
(293,432,c)
);
},
{
closed = 1;
nodes = (
(199,324,o),
(221,363,o),
(265,370,cs),
(313,378,o),
(361,338,o),
(371,279,cs),
(378,229,o),
(356,190,o),
(312,183,cs),
(265,175,o),
(216,214,o),
(206,274,cs)
);
},
{
pos = (-51,0);
ref = _part.lasub;
},
{
pos = (-4,0);
ref = _part.halfswash;
}
);
width = 623;
},
{
anchors = (
{
name = b.rrvocalicvowelsignleftorya;
pos = (577,-49);
},
{
name = b.tasubscriptorya;
pos = (337,0);
},
{
name = b.uvowelsignorya;
pos = (535,0);
},
{
name = t.candrabinduorya;
pos = (502,657);
},
{
name = t.ivowelsignorya;
pos = (337,657);
}
);
layerId = "D0F0E2C3-3B53-4823-9924-A34C50245C28";
shapes = (
{
closed = 1;
nodes = (
(125,179,o),
(187,110,o),
(278,110,cs),
(352,110,o),
(440,169,o),
(440,268,cs),
(440,353,o),
(376,415,o),
(286,415,cs),
(198,415,o),
(138,358,o),
(131,264,cs)
);
},
{
closed = 1;
nodes = (
(355,293,l),
(355,162,l),
(336,162,l),
(336,17,l),
(452,17,l),
(452,205,ls),
(452,377,o),
(363,415,o),
(286,415,c)
);
},
{
closed = 1;
nodes = (
(219,301,o),
(239,315,o),
(270,315,cs),
(315,315,o),
(351,285,o),
(351,247,cs),
(351,222,o),
(332,206,o),
(299,206,cs),
(256,206,o),
(219,239,o),
(219,278,cs)
);
},
{
pos = (-87,0);
ref = _part.lasub;
},
{
pos = (-5,0);
ref = _part.halfswash;
}
);
width = 679;
}
);
metricLeft = iorya;
metricRight = kaorya;
script = oriya;
subCategory = Spacing;
},
{
category = Letter;
glyphname = ballaorya;
lastChange = "2021-07-31 19:43:29 +0000";
layers = (
{
anchors = (
{
name = b.rrvocalicvowelsignleftorya;
pos = (567,-49);
},
{
name = b.tasubscriptorya;
pos = (351,0);
},
{
name = b.uvowelsignorya;
pos = (528,0);
},
{
name = t.candrabinduorya;
pos = (481,657);
},
{
name = t.ivowelsignorya;
pos = (311,657);
}
);
layerId = "6C4C2116-C5E5-460E-80F0-69F45ED98D3F";
shapes = (
{
closed = 1;
nodes = (
(142,184,o),
(203,120,o),
(284,120,cs),
(368,120,o),
(433,191,o),
(433,281,cs),
(433,367,o),
(373,432,o),
(293,432,cs),
(208,432,o),
(142,361,o),
(142,271,cs)
);
},
{
closed = 1;
nodes = (
(390,321,l),
(390,190,l),
(371,190,l),
(363,0,l),
(438,47,l),
(438,247,ls),
(438,396,o),
(352,432,o),
(291,432,c)
);
},
{
closed = 1;
nodes = (
(205,338,o),
(231,371,o),
(277,371,cs),
(326,371,o),
(372,324,o),
(372,261,cs),
(372,216,o),
(346,182,o),
(300,182,cs),
(252,182,o),
(205,227,o),
(205,293,cs)
);
},
{
pos = (519,57);
ref = llasubscriptorya;
},
{
pos = (-4,0);
ref = _part.halfswash;
}
);
width = 623;
},
{
anchors = (
{
name = b.rrvocalicvowelsignleftorya;
pos = (544,-49);
},
{
name = b.tasubscriptorya;
pos = (334,0);
},
{
name = b.uvowelsignorya;
pos = (574,0);
},
{
name = t.candrabinduorya;
pos = (499,657);
},
{
name = t.ivowelsignorya;
pos = (334,657);
}
);
layerId = "D0F0E2C3-3B53-4823-9924-A34C50245C28";
shapes = (
{
closed = 1;
nodes = (
(129,169,o),
(184,104,o),
(275,104,cs),
(349,104,o),
(437,163,o),
(437,262,cs),
(437,347,o),
(373,409,o),
(283,409,cs),
(204,409,o),
(127,347,o),
(128,256,cs)
);
},
{
closed = 1;
nodes = (
(352,287,l),
(352,156,l),
(333,156,l),
(333,0,l),
(449,0,l),
(449,199,ls),
(449,371,o),
(360,409,o),
(283,409,c)
);
},
{
closed = 1;
nodes = (
(216,295,o),
(236,309,o),
(267,309,cs),
(312,309,o),
(348,279,o),
(348,241,cs),
(348,216,o),
(329,200,o),
(296,200,cs),
(253,200,o),
(216,233,o),
(216,272,cs)
);
},
{
pos = (562,63);
ref = llasubscriptorya;
},
{
pos = (-5,0);
ref = _part.halfswash;
}
);
width = 679;
}
);
metricLeft = iorya;
metricRight = kaorya;
script = oriya;
subCategory = Spacing;
},
{
category = Letter;
glyphname = cachaorya;
lastChange = "2021-07-28 11:41:33 +0000";
layers = (
{
anchors = (
{
name = b.tasubscriptorya;
pos = (338,29);
},
{
name = b.uvowelsignorya;
pos = (559,29);
},
{
name = t.ivowelsignorya;
pos = (344,657);
}
);
layerId = "D0F0E2C3-3B53-4823-9924-A34C50245C28";
shapes = (
{
closed = 1;
nodes = (
(27,369,o),
(66,300,o),
(144,250,c),
(192,380,l),
(147,401,o),
(128,431,o),
(128,462,cs),
(128,522,o),
(200,550,o),
(277,550,cs),
(389,550,o),
(503,489,o),
(560,400,c),
(570,400,l),
(659,499,l),
(580,601,o),
(464,667,o),
(321,667,cs),
(148,667,o),
(27,569,o),
(27,445,cs)
);
},
{
pos = (561,325);
ref = thasubscriptdeeporya;
scale = (0.9389,0.9389);
},
{
pos = (52,96);
ref = _part.ooo;
scale = (0.9493,0.9493);
}
);
width = 679;
},
{
anchors = (
{
name = b.tasubscriptorya;
pos = (302,44);
},
{
name = b.uvowelsignorya;
pos = (479,48);
},
{
name = t.ivowelsignorya;
pos = (315,657);
}
);
layerId = "6C4C2116-C5E5-460E-80F0-69F45ED98D3F";
shapes = (
{
closed = 1;
nodes = (
(32,384,o),
(56,324,o),
(112,280,c),
(145,353,l),
(115,377,o),
(100,416,o),
(100,453,cs),
(100,537,o),
(176,601,o),
(287,601,cs),
(423,601,o),
(506,520,o),
(543,467,c),
(553,467,l),
(600,516,l),
(555,572,o),
(472,667,o),
(303,667,cs),
(138,667,o),
(32,564,o),
(32,442,cs)
);
},
{
pos = (543,378);
ref = thasubscriptdeeporya;
scale = (1.0231,1.0231);
},
{
pos = (17,117);
ref = _part.ooo;
}
);
width = 623;
}
);
metricLeft = iorya;
metricRight = kaorya;
script = oriya;
subCategory = Spacing;
},
{
category = Letter;
glyphname = dabhaorya;
kernRight = iorya;
lastChange = "2021-07-26 14:53:37 +0000";
layers = (
{
anchors = (
{
name = b.tasubscriptorya;
pos = (347,0);
},
{
name = b.uvowelsignorya;
pos = (443,0);
},
{
name = t.ivowelsignorya;
pos = (361,657);
}
);
layerId = "6C4C2116-C5E5-460E-80F0-69F45ED98D3F";
shapes = (
{
closed = 1;
nodes = (
(32,321,o),
(69,236,o),
(136,184,c),
(162,277,l),
(123,306,o),
(100,359,o),
(100,416,cs),
(100,524,o),
(190,601,o),
(334,601,cs),
(488,601,o),
(611,518,o),
(611,360,cs),
(611,274,o),
(579,187,o),
(546,125,c),
(546,100,l),
(667,-35,l),
(681,-35,l),
(727,9,l),
(572,155,l),
(589,111,l),
(635,184,o),
(682,269,o),
(682,375,cs),
(682,548,o),
(548,667,o),
(346,667,cs),
(152,667,o),
(32,548,o),
(32,404,cs)
);
},
{
closed = 1;
nodes = (
(230,166,o),
(259,136,o),
(296,136,cs),
(330,136,o),
(361,156,o),
(380,177,c),
(367,202,l),
(355,196,o),
(341,188,o),
(322,188,cs),
(297,188,o),
(288,207,o),
(288,227,cs),
(288,245,o),
(295,267,o),
(312,312,c),
(270,335,l),
(250,298,o),
(230,256,o),
(230,216,cs)
);
},
{
closed = 1;
nodes = (
(93,54,o),
(185,-10,o),
(311,-10,cs),
(456,-10,o),
(527,49,o),
(527,159,cs),
(527,209,o),
(523,276,o),
(512,339,c),
(450,324,l),
(461,269,o),
(469,199,o),
(469,150,cs),
(469,85,o),
(418,55,o),
(328,55,cs),
(215,55,o),
(161,104,o),
(161,171,cs),
(161,226,o),
(182,276,o),
(230,356,c),
(186,387,l),
(132,308,o),
(93,232,o),
(93,155,cs)
);
},
{
closed = 1;
nodes = (
(347,164,o),
(379,136,o),
(413,136,cs),
(448,136,o),
(476,164,o),
(493,191,c),
(481,215,l),
(462,200,o),
(444,193,o),
(432,193,cs),
(410,193,o),
(401,208,o),
(401,234,cs),
(401,257,o),
(405,288,o),
(411,320,c),
(361,323,l),
(354,290,o),
(347,252,o),
(347,217,cs)
);
}
);
width = 729;
},
{
anchors = (
{
name = b.tasubscriptorya;
pos = (402,0);
},
{
name = b.uvowelsignorya;
pos = (506,0);
},
{
name = t.ivowelsignorya;
pos = (410,657);
}
);
layerId = "D0F0E2C3-3B53-4823-9924-A34C50245C28";
shapes = (
{
closed = 1;
nodes = (
(27,328,o),
(55,255,o),
(130,193,c),
(200,320,l),
(153,348,o),
(128,379,o),
(128,420,cs),
(128,507,o),
(232,548,o),
(359,548,cs),
(503,548,o),
(656,484,o),
(656,300,cs),
(656,234,o),
(642,176,o),
(620,125,c),
(620,100,l),
(726,-35,l),
(740,-35,l),
(832,48,l),
(677,194,l),
(706,150,l),
(748,211,o),
(780,283,o),
(780,355,cs),
(780,526,o),
(628,667,o),
(391,667,cs),
(159,667,o),
(27,558,o),
(27,401,cs)
);
},
{
closed = 1;
nodes = (
(234,166,o),
(271,136,o),
(318,136,cs),
(364,136,o),
(401,157,o),
(425,180,c),
(409,225,l),
(394,219,o),
(375,211,o),
(351,211,cs),
(325,211,o),
(315,226,o),
(315,242,cs),
(315,257,o),
(324,275,o),
(346,312,c),
(287,343,l),
(260,304,o),
(234,259,o),
(234,216,cs)
);
},
{
closed = 1;
nodes = (
(66,60,o),
(166,-10,o),
(334,-10,cs),
(514,-10,o),
(605,54,o),
(605,172,cs),
(605,221,o),
(599,285,o),
(585,346,c),
(492,324,l),
(506,269,o),
(517,199,o),
(517,165,cs),
(517,116,o),
(461,97,o),
(360,97,cs),
(244,97,o),
(170,144,o),
(170,203,cs),
(170,243,o),
(190,288,o),
(247,356,c),
(189,405,l),
(116,323,o),
(66,246,o),
(66,166,cs)
);
},
{
closed = 1;
nodes = (
(371,165,o),
(411,136,o),
(450,136,cs),
(495,136,o),
(526,170,o),
(546,203,c),
(529,242,l),
(511,220,o),
(492,213,o),
(479,213,cs),
(457,213,o),
(447,229,o),
(447,249,cs),
(447,269,o),
(453,294,o),
(460,320,c),
(388,324,l),
(379,292,o),
(371,254,o),
(371,218,cs)
);
}
);
width = 830;
}
);
metricLeft = iorya;
metricRight = iorya;
script = oriya;
subCategory = Spacing;
},
{
category = Letter;
glyphname = dadaorya;
kernRight = caorya;
lastChange = "2021-07-29 09:33:37 +0000";
layers = (
{
anchors = (
{
name = b.tasubscriptorya;
pos = (329,0);
},
{
name = b.uvowelsignorya;
pos = (495,0);
},
{
name = t.ivowelsignorya;
pos = (329,657);
}
);
layerId = "6C4C2116-C5E5-460E-80F0-69F45ED98D3F";
shapes = (
{
closed = 1;
nodes = (
(87,118,o),
(129,73,o),
(188,73,cs),
(238,73,o),
(278,105,o),
(302,151,c),
(286,197,l),
(274,180,o),
(255,136,o),
(208,136,cs),
(180,136,o),
(156,157,o),
(156,192,cs),
(156,226,o),
(176,273,o),
(237,333,c),
(199,371,l),
(133,313,o),
(87,245,o),
(87,180,cs)
);
},
{
closed = 1;
nodes = (
(292,98,o),
(316,73,o),
(357,73,cs),
(418,73,o),
(446,119,o),
(463,204,c),
(445,212,l),
(424,165,o),
(401,136,o),
(375,136,cs),
(351,136,o),
(334,156,o),
(334,212,cs),
(334,277,l),
(327,284,l),
(271,272,l),
(271,148,l)
);
},
{
closed = 1;
nodes = (
(436,-7,l),
(496,8,l),
(496,314,l),
(489,321,l),
(429,306,l),
(429,0,l)
);
},
{
pos = (-2,0);
ref = _part.swash3;
}
);
width = 625;
},
{
anchors = (
{
name = b.tasubscriptorya;
pos = (361,0);
},
{
name = b.uvowelsignorya;
pos = (548,0);
},
{
name = t.ivowelsignorya;
pos = (361,657);
}
);
layerId = "D0F0E2C3-3B53-4823-9924-A34C50245C28";
shapes = (
{
closed = 1;
nodes = (
(80,118,o),
(122,57,o),
(187,57,cs),
(235,57,o),
(274,89,o),
(295,135,c),
(277,214,l),
(269,187,o),
(249,163,o),
(223,163,cs),
(201,163,o),
(183,177,o),
(183,208,cs),
(183,243,o),
(209,293,o),
(261,350,c),
(212,398,l),
(141,325,o),
(80,262,o),
(80,180,cs)
);
},
{
closed = 1;
nodes = (
(274,87,o),
(307,55,o),
(350,55,cs),
(417,55,o),
(460,117,o),
(477,185,c),
(448,239,l),
(436,199,o),
(419,158,o),
(389,158,cs),
(372,158,o),
(361,174,o),
(361,214,cs),
(361,293,l),
(355,303,l),
(269,284,l),
(269,138,l)
);
},
{
closed = 1;
nodes = (
(435,-7,l),
(548,17,l),
(548,324,l),
(541,331,l),
(428,307,l),
(428,0,l)
);
},
{
pos = (-5,0);
ref = _part.swash3;
}
);
width = 665;
}
);
metricLeft = iorya;
metricRight = caorya;
script = oriya;
subCategory = Spacing;
},
{
category = Letter;
glyphname = dadhaorya;
kernRight = caorya;
lastChange = "2021-07-22 07:46:18 +0000";
layers = (
{
anchors = (
{
name = b.tasubscriptorya;
pos = (331,0);
},
{
name = b.uvowelsignorya;
pos = (495,0);
},
{
name = t.ivowelsignorya;
pos = (331,657);
}
);
layerId = "6C4C2116-C5E5-460E-80F0-69F45ED98D3F";
shapes = (
{
closed = 1;
nodes = (
(435,258,l),
(481,290,l),
(212,627,l),
(166,595,l)
);
},
{
ref = dadaorya;
}
);
width = 625;
},
{
anchors = (
{
name = b.tasubscriptorya;
pos = (366,0);
},
{
name = b.uvowelsignorya;
pos = (553,0);
},
{
name = t.ivowelsignorya;
pos = (366,657);
}
);
layerId = "D0F0E2C3-3B53-4823-9924-A34C50245C28";
shapes = (
{
closed = 1;
nodes = (
(491,186,l),
(547,238,l),
(272,647,l),
(216,595,l)
);
},
{
ref = dadaorya;
}
);
width = 665;
}
);
metricLeft = iorya;
metricRight = caorya;
script = oriya;
subCategory = Spacing;
},
{
category = Letter;
glyphname = dagaorya;
lastChange = "2021-07-22 07:46:18 +0000";
layers = (
{
anchors = (
{
name = b.tasubscriptorya;
pos = (281,0);
},
{
name = b.uvowelsignorya;
pos = (519,0);
},
{
name = t.candrabinduorya;
pos = (495,657);
},
{
name = t.ivowelsignorya;
pos = (302,657);
}
);
layerId = "6C4C2116-C5E5-460E-80F0-69F45ED98D3F";
shapes = (
{
closed = 1;
nodes = (
(112,213,o),
(161,166,o),
(234,166,cs),
(305,166,o),
(364,205,o),
(399,253,c),
(392,296,l),
(369,271,o),
(314,228,o),
(251,228,cs),
(206,228,o),
(176,252,o),
(176,289,cs),
(176,319,o),
(198,347,o),
(239,380,c),
(200,418,l),
(152,377,o),
(112,333,o),
(112,274,cs)
);
},
{
closed = 1;
nodes = (
(357,106,l),
(417,106,l),
(417,373,l),
(410,380,l),
(350,365,l),
(350,113,l)
);
},
{
pos = (496,260);
ref = gasubscriptloworya;
},
{
pos = (-4,0);
ref = _part.halfswash;
}
);
width = 623;
},
{
anchors = (
{
name = b.tasubscriptorya;
pos = (341,0);
},
{
name = b.uvowelsignorya;
pos = (621,0);
},
{
name = t.candrabinduorya;
pos = (516,657);
},
{
name = t.ivowelsignorya;
pos = (344,657);
}
);
layerId = "D0F0E2C3-3B53-4823-9924-A34C50245C28";
shapes = (
{
closed = 1;
nodes = (
(119,200,o),
(159,140,o),
(253,140,cs),
(329,140,o),
(392,192,o),
(416,241,c),
(407,280,l),
(384,256,o),
(341,237,o),
(303,237,cs),
(239,237,o),
(220,266,o),
(220,292,cs),
(220,312,o),
(234,341,o),
(290,382,c),
(244,430,l),
(174,386,o),
(119,325,o),
(119,257,cs)
);
},
{
closed = 1;
nodes = (
(378,80,l),
(491,110,l),
(491,353,l),
(484,360,l),
(371,330,l),
(371,87,l)
);
},
{
pos = (578,260);
ref = gasubscriptloworya;
},
{
pos = (-5,0);
ref = _part.halfswash;
}
);
width = 679;
}
);
metricLeft = iorya;
metricRight = kaorya;
script = oriya;
subCategory = Spacing;
},
{
category = Letter;
glyphname = dhayapostorya;
lastChange = "2021-07-22 07:42:59 +0000";
layers = (
{
anchors = (
{
name = b.uvowelsignorya;
pos = (523,0);
},
{
name = t.ivowelsignorya;
pos = (288,657);
}
);
layerId = "6C4C2116-C5E5-460E-80F0-69F45ED98D3F";
shapes = (
{
closed = 1;
nodes = (
(150,545,o),
(211,479,o),
(277,404,c),
(288,404,l),
(319,438,l),
(256,521,o),
(196,595,o),
(145,663,c),
(134,663,l),
(95,617,l)
);
},
{
closed = 1;
nodes = (
(199,85,o),
(259,34,o),
(340,34,cs),
(408,34,o),
(465,72,o),
(499,134,c),
(473,173,l),
(450,128,o),
(401,99,o),
(354,99,cs),
(304,99,o),
(268,131,o),
(268,173,cs),
(268,208,o),
(292,242,o),
(335,287,c),
(295,325,l),
(228,267,o),
(199,214,o),
(199,162,cs)
);
},
{
closed = 1;
nodes = (
(32,259,o),
(106,195,o),
(210,195,cs),
(227,195,o),
(244,197,o),
(261,201,c),
(276,265,l),
(258,261,o),
(241,260,o),
(227,260,cs),
(147,260,o),
(99,306,o),
(99,359,cs),
(99,405,o),
(137,455,o),
(232,466,c),
(181,525,l),
(68,477,o),
(32,413,o),
(32,347,cs)
);
},
{
pos = (-60,0);
ref = _part.a;
}
);
width = 584;
},
{
anchors = (
{
name = b.uvowelsignorya;
pos = (591,0);
},
{
name = t.ivowelsignorya;
pos = (322,657);
}
);
layerId = "D0F0E2C3-3B53-4823-9924-A34C50245C28";
shapes = (
{
closed = 1;
nodes = (
(153,512,o),
(224,446,o),
(299,379,c),
(309,379,l),
(378,450,l),
(310,528,o),
(244,601,o),
(191,665,c),
(181,665,l),
(95,576,l)
);
},
{
closed = 1;
nodes = (
(200,97,o),
(246,24,o),
(352,24,cs),
(439,24,o),
(491,77,o),
(510,118,c),
(478,182,l),
(460,154,o),
(422,128,o),
(382,128,cs),
(333,128,o),
(310,163,o),
(310,193,cs),
(310,224,o),
(327,250,o),
(365,288,c),
(317,336,l),
(247,282,o),
(200,229,o),
(200,162,cs)
);
},
{
closed = 1;
nodes = (
(27,242,o),
(89,165,o),
(194,165,cs),
(218,165,o),
(241,169,o),
(265,178,c),
(302,282,l),
(284,275,o),
(266,271,o),
(241,271,cs),
(169,271,o),
(141,311,o),
(141,348,cs),
(141,384,o),
(164,423,o),
(250,432,c),
(175,513,l),
(80,462,o),
(27,403,o),
(27,323,cs)
);
},
{
pos = (-63,0);
ref = _part.a;
}
);
width = 647;
}
);
metricLeft = iorya;
metricRight = aorya;
script = oriya;
subCategory = Spacing;
},
{
category = Letter;
glyphname = gadaorya;
lastChange = "2021-07-26 12:00:29 +0000";
layers = (
{
anchors = (
{
name = b.tasubscriptorya;
pos = (405,0);
},
{
name = b.uvowelsignorya;
pos = (588,0);
},
{
name = t.candrabinduorya;
pos = (524,657);
},
{
name = t.ivowelsignorya;
pos = (325,657);
}
);
layerId = "6C4C2116-C5E5-460E-80F0-69F45ED98D3F";
shapes = (
{
closed = 1;
nodes = (
(530,93,l),
(590,107,l),
(590,657,l),
(583,664,l),
(523,650,l),
(523,100,l)
);
},
{
pos = (635,142);
ref = dasubscriptorya;
},
{
pos = (53,0);
ref = _part.vo;
},
{
pos = (-2,0);
ref = _part.g;
}
);
width = 690;
},
{
anchors = (
{
name = b.tasubscriptorya;
pos = (443,0);
},
{
name = b.uvowelsignorya;
pos = (654,0);
},
{
name = t.candrabinduorya;
pos = (534,657);
},
{
name = t.ivowelsignorya;
pos = (352,657);
}
);
layerId = "D0F0E2C3-3B53-4823-9924-A34C50245C28";
shapes = (
{
closed = 1;
nodes = (
(541,51,l),
(654,78,l),
(654,657,l),
(647,664,l),
(534,637,l),
(534,58,l)
);
},
{
pos = (633,142);
ref = dasubscriptorya;
},
{
pos = (-11,0);
ref = _part.vo;
},
{
pos = (-5,0);
ref = _part.g;
}
);
width = 760;
}
);
metricLeft = iorya;
script = oriya;
subCategory = Spacing;
},
{
category = Letter;
glyphname = gadhaorya;
lastChange = "2021-07-27 12:25:11 +0000";
layers = (
{
anchors = (
{
name = b.uvowelsignorya;
pos = (604,0);
},
{
name = t.candrabinduorya;
pos = (527,657);
},
{
name = t.ivowelsignorya;
pos = (328,657);
}
);
layerId = "6C4C2116-C5E5-460E-80F0-69F45ED98D3F";
shapes = (
{
closed = 1;
nodes = (
(544,-282,l),
(604,-266,l),
(604,82,l),
(597,89,l),
(537,73,l),
(537,-275,l)
);
},
{
closed = 1;
nodes = (
(373,58,l),
(333,22,l),
(373,-31,o),
(418,-80,o),
(468,-136,c),
(478,-136,l),
(506,-105,l),
(462,-44,o),
(419,9,o),
(383,58,c)
);
},
{
closed = 1;
nodes = (
(551,-140,l),
(526,-202,o),
(475,-224,o),
(434,-224,cs),
(385,-224,o),
(354,-193,o),
(354,-156,cs),
(354,-123,o),
(378,-91,o),
(434,-85,c),
(399,-34,l),
(323,-65,o),
(298,-113,o),
(298,-162,cs),
(298,-232,o),
(350,-280,o),
(424,-280,cs),
(488,-280,o),
(544,-243,o),
(562,-199,c)
);
},
{
ref = gaorya;
}
);
width = 665;
},
{
anchors = (
{
name = b.uvowelsignorya;
pos = (661,0);
},
{
name = t.candrabinduorya;
pos = (539,657);
},
{
name = t.ivowelsignorya;
pos = (357,657);
}
);
layerId = "D0F0E2C3-3B53-4823-9924-A34C50245C28";
shapes = (
{
closed = 1;
nodes = (
(548,-282,l),
(661,-255,l),
(661,157,l),
(654,164,l),
(541,137,l),
(541,-275,l)
);
},
{
closed = 1;
nodes = (
(391,56,l),
(319,-4,l),
(364,-55,o),
(398,-93,o),
(455,-146,c),
(465,-146,l),
(514,-100,l),
(469,-39,o),
(438,6,o),
(401,56,c)
);
},
{
closed = 1;
nodes = (
(545,-138,l),
(527,-173,o),
(486,-195,o),
(449,-194,cs),
(408,-194,o),
(381,-170,o),
(381,-143,cs),
(381,-119,o),
(399,-95,o),
(445,-82,c),
(376,-24,l),
(323,-62,o),
(288,-115,o),
(288,-163,cs),
(288,-232,o),
(339,-282,o),
(422,-282,cs),
(490,-282,o),
(537,-252,o),
(570,-206,c)
);
},
{
ref = gaorya;
}
);
width = 717;
}
);
metricLeft = iorya;
metricRight = aorya;
script = oriya;
subCategory = Spacing;
},
{
category = Letter;
glyphname = gallaUIorya;
kernRight = kassannaorya;
lastChange = "2021-07-22 07:42:59 +0000";
layers = (
{
anchors = (
{
name = b.uvowelsignorya;
pos = (672,0);
},
{
name = t.ivowelsignorya;
pos = (331,657);
}
);
layerId = "6C4C2116-C5E5-460E-80F0-69F45ED98D3F";
shapes = (
{
closed = 1;
nodes = (
(535,73,l),
(595,89,l),
(595,657,l),
(588,664,l),
(528,648,l),
(528,80,l)
);
},
{
pos = (663,123);
ref = llasubscriptorya;
},
{
pos = (47,10);
ref = _part.vo;
},
{
pos = (-2,0);
ref = _part.g;
}
);
width = 675;
},
{
anchors = (
{
name = b.uvowelsignorya;
pos = (654,0);
},
{
name = t.ivowelsignorya;
pos = (352,657);
}
);
layerId = "D0F0E2C3-3B53-4823-9924-A34C50245C28";
shapes = (
{
closed = 1;
nodes = (
(541,34,l),
(654,61,l),
(654,657,l),
(647,664,l),
(534,637,l),
(534,41,l)
);
},
{
pos = (710,123);
ref = llasubscriptorya;
},
{
pos = (-1,0);
ref = _part.vo;
},
{
pos = (-5,0);
ref = _part.g;
}
);
width = 710;
}
);
metricLeft = iorya;
script = oriya;
subCategory = Spacing;
},
{
category = Letter;
glyphname = gallaorya;
lastChange = "2021-07-22 07:42:59 +0000";
layers = (
{
anchors = (
{
name = b.tasubscriptorya;
pos = (409,0);
},
{
name = b.uvowelsignorya;
pos = (665,0);
},
{
name = t.candrabinduorya;
pos = (528,657);
},
{
name = t.ivowelsignorya;
pos = (329,657);
}
);
layerId = "6C4C2116-C5E5-460E-80F0-69F45ED98D3F";
shapes = (
{
closed = 1;
nodes = (
(535,13,l),
(595,27,l),
(595,657,l),
(588,664,l),
(528,650,l),
(528,20,l)
);
},
{
pos = (61,0);
ref = _part.vo;
},
{
pos = (-2,0);
ref = _part.g;
},
{
pos = (656,63);
ref = llasubscriptorya;
}
);
width = 661;
},
{
anchors = (
{
name = b.tasubscriptorya;
pos = (443,0);
},
{
name = b.uvowelsignorya;
pos = (654,0);
},
{
name = t.candrabinduorya;
pos = (534,657);
},
{
name = t.ivowelsignorya;
pos = (352,657);
}
);
layerId = "D0F0E2C3-3B53-4823-9924-A34C50245C28";
shapes = (
{
closed = 1;
nodes = (
(541,-7,l),
(654,20,l),
(654,657,l),
(647,664,l),
(534,637,l),
(534,0,l)
);
},
{
pos = (1,0);
ref = _part.vo;
},
{
pos = (-5,0);
ref = _part.g;
},
{
pos = (710,63);
ref = llasubscriptorya;
}
);
width = 710;
}
);
metricLeft = iorya;
script = oriya;
subCategory = Spacing;
},
{
category = Letter;
glyphname = hasquishorya;
kernLeft = iorya;
lastChange = "2021-07-26 14:53:37 +0000";
layers = (
{
anchors = (
{
name = b.tasubscriptorya;
pos = (310,0);
},
{
name = b.uvowelsignorya;
pos = (366,0);
},
{
name = t.candrabinduorya;
pos = (504,657);
},
{
name = t.ivowelsignorya;
pos = (310,657);
}
);
layerId = "6C4C2116-C5E5-460E-80F0-69F45ED98D3F";
shapes = (
{
closed = 1;
nodes = (
(94,82,l),
(229,69,o),
(359,46,o),
(483,15,c),
(522,82,l),
(392,106,o),
(257,127,o),
(125,135,c),
(135,114,l),
(155,149,o),
(179,180,o),
(206,210,c),
(182,237,l),
(135,204,o),
(113,180,o),
(74,113,c)
);
},
{
closed = 1;
nodes = (
(392,136,l),
(452,150,l),
(452,413,l),
(445,420,l),
(385,405,l),
(385,143,l)
);
},
{
closed = 1;
nodes = (
(140,217,o),
(192,164,o),
(270,164,cs),
(337,164,o),
(392,197,o),
(425,238,c),
(418,281,l),
(396,261,o),
(345,226,o),
(287,226,cs),
(237,226,o),
(204,255,o),
(204,301,cs),
(204,340,o),
(233,376,o),
(286,420,c),
(247,458,l),
(189,409,o),
(140,356,o),
(140,286,cs)
);
},
{
pos = (-2,0);
ref = _part.halfswash;
}
);
width = 613;
},
{
anchors = (
{
name = b.tasubscriptorya;
pos = (335,0);
},
{
name = b.uvowelsignorya;
pos = (384,0);
},
{
name = t.candrabinduorya;
pos = (494,657);
},
{
name = t.ivowelsignorya;
pos = (335,657);
}
);
layerId = "D0F0E2C3-3B53-4823-9924-A34C50245C28";
shapes = (
{
closed = 1;
nodes = (
(70,71,l),
(229,57,o),
(381,36,o),
(526,4,c),
(597,103,l),
(448,127,o),
(295,147,o),
(144,155,c),
(149,123,l),
(165,155,o),
(184,184,o),
(205,211,c),
(183,237,l),
(126,202,o),
(100,174,o),
(52,104,c)
);
},
{
closed = 1;
nodes = (
(398,162,l),
(511,192,l),
(511,394,l),
(504,401,l),
(391,371,l),
(391,169,l)
);
},
{
closed = 1;
nodes = (
(141,229,o),
(179,174,o),
(263,174,cs),
(360,174,o),
(421,243,o),
(437,301,c),
(414,326,l),
(398,296,o),
(356,271,o),
(309,271,cs),
(257,271,o),
(238,295,o),
(238,316,cs),
(238,334,o),
(250,360,o),
(295,398,c),
(249,446,l),
(189,404,o),
(141,346,o),
(141,281,cs)
);
},
{
pos = (-2,0);
ref = _part.halfswash;
}
);
width = 667;
}
);
metricRight = caorya;
script = oriya;
subCategory = Spacing;
},
{
category = Letter;
glyphname = jajaUIorya;
kernLeft = iorya;
lastChange = "2021-07-26 14:53:37 +0000";
layers = (
{
anchors = (
{
name = b.tasubscriptorya;
pos = (355,0);
},
{
name = b.uvowelsignorya;
pos = (569,0);
},
{
name = t.ivowelsignorya;
pos = (355,657);
}
);
layerId = "D0F0E2C3-3B53-4823-9924-A34C50245C28";
shapes = (
{
closed = 1;
nodes = (
(67,140,o),
(133,80,o),
(223,80,cs),
(265,80,o),
(307,88,o),
(345,115,c),
(392,177,l),
(372,180,l),
(357,177,o),
(325,172,o),
(280,172,cs),
(205,172,o),
(162,216,o),
(162,265,cs),
(162,307,o),
(189,339,o),
(244,399,c),
(197,448,l),
(120,379,o),
(67,308,o),
(67,225,cs)
);
},
{
closed = 1;
nodes = (
(231,216,o),
(259,173,o),
(284,144,c),
(392,177,l),
(392,191,l),
(359,223,o),
(334,256,o),
(335,275,cs),
(335,284,o),
(337,289,o),
(348,289,cs),
(464,289,l),
(421,334,l),
(421,75,l),
(428,68,l),
(532,95,l),
(532,381,l),
(525,388,l),
(376,388,ls),
(325,388,o),
(303,369,o),
(271,335,cs),
(233,292,o),
(231,275,o),
(231,257,cs)
);
},
{
closed = 1;
nodes = (
(27,349,o),
(45,284,o),
(98,227,c),
(163,343,l),
(139,367,o),
(126,397,o),
(126,429,cs),
(126,502,o),
(192,550,o),
(290,550,cs),
(400,550,o),
(492,490,o),
(561,400,c),
(571,400,l),
(660,499,l),
(572,599,o),
(461,667,o),
(325,667,cs),
(153,667,o),
(27,559,o),
(27,407,cs)
);
},
{
pos = (557,122);
ref = jasubscriptorya;
}
);
width = 715;
},
{
anchors = (
{
name = b.tasubscriptorya;
pos = (327,0);
},
{
name = b.uvowelsignorya;
pos = (567,0);
},
{
name = t.ivowelsignorya;
pos = (327,657);
}
);
layerId = "6C4C2116-C5E5-460E-80F0-69F45ED98D3F";
shapes = (
{
closed = 1;
nodes = (
(87,102,o),
(151,50,o),
(233,50,cs),
(290,50,o),
(338,75,o),
(369,105,c),
(398,170,l),
(377,175,l),
(348,148,o),
(298,112,o),
(246,112,cs),
(195,112,o),
(150,146,o),
(150,209,cs),
(150,261,o),
(180,326,o),
(259,399,c),
(225,436,l),
(138,362,o),
(87,279,o),
(87,196,cs)
);
},
{
closed = 1;
nodes = (
(253,232,o),
(299,176,o),
(343,139,c),
(398,170,l),
(398,179,l),
(354,226,o),
(320,270,o),
(320,296,cs),
(320,303,o),
(322,306,o),
(328,306,cs),
(493,306,l),
(448,351,l),
(448,60,l),
(455,53,l),
(515,67,l),
(515,363,l),
(508,370,l),
(347,370,ls),
(314,370,o),
(299,358,o),
(279,336,cs),
(255,307,o),
(253,296,o),
(253,285,cs)
);
},
{
closed = 1;
nodes = (
(32,355,o),
(60,283,o),
(117,225,c),
(148,315,l),
(119,343,o),
(100,387,o),
(100,436,cs),
(100,534,o),
(177,601,o),
(289,601,cs),
(426,601,o),
(522,491,o),
(559,398,c),
(569,398,l),
(618,450,l),
(575,539,o),
(477,667,o),
(303,667,cs),
(138,667,o),
(32,559,o),
(32,424,cs)
);
},
{
pos = (558,121);
ref = jasubscriptorya;
}
);
width = 659;
}
);
metricLeft = iorya;
script = oriya;
subCategory = Spacing;
},
{
category = Letter;
glyphname = janyaorya;
lastChange = "2021-07-22 07:42:59 +0000";
layers = (
{
anchors = (
{
name = b.tasubscriptorya;
pos = (330,0);
},
{
name = b.uvowelsignorya;
pos = (555,0);
},
{
name = t.ivowelsignorya;
pos = (308,657);
}
);
layerId = "6C4C2116-C5E5-460E-80F0-69F45ED98D3F";
shapes = (
{
closed = 1;
nodes = (
(337,-7,l),
(397,7,l),
(397,270,ls),
(397,288,o),
(415,307,o),
(440,307,cs),
(471,307,o),
(488,276,o),
(488,225,cs),
(488,0,l),
(494,-7,l),
(555,7,l),
(555,248,ls),
(555,337,o),
(518,373,o),
(460,373,cs),
(409,373,o),
(347,335,o),
(347,268,cs),
(347,130,l),
(330,130,l),
(330,0,l)
);
},
{
closed = 1;
nodes = (
(54,129,o),
(90,72,o),
(149,72,cs),
(216,72,o),
(258,135,o),
(258,234,cs),
(258,316,o),
(223,373,o),
(162,373,cs),
(97,373,o),
(54,308,o),
(54,210,cs)
);
},
{
closed = 1;
nodes = (
(115,278,o),
(128,314,o),
(151,314,cs),
(179,314,o),
(197,264,o),
(197,215,cs),
(197,164,o),
(183,129,o),
(161,129,cs),
(134,129,o),
(115,181,o),
(115,229,cs)
);
},
{
closed = 1;
nodes = (
(197,129,o),
(233,72,o),
(292,72,cs),
(351,72,o),
(396,137,o),
(396,234,cs),
(396,316,o),
(363,373,o),
(305,373,cs),
(240,373,o),
(197,308,o),
(197,210,cs)
);
},
{
closed = 1;
nodes = (
(258,278,o),
(271,314,o),
(294,314,cs),
(322,314,o),
(340,264,o),
(340,215,cs),
(340,164,o),
(326,129,o),
(304,129,cs),
(277,129,o),
(258,181,o),
(258,229,cs)
);
},
{
closed = 1;
nodes = (
(179,506,o),
(196,456,o),
(212,422,c),
(286,444,l),
(260,489,o),
(245,528,o),
(245,561,cs),
(245,586,o),
(263,607,o),
(286,607,cs),
(327,607,o),
(356,565,o),
(356,509,cs),
(356,437,l),
(362,430,l),
(419,449,l),
(419,560,ls),
(419,590,o),
(433,606,o),
(452,606,cs),
(488,606,o),
(525,542,o),
(525,445,cs),
(525,405,o),
(489,376,o),
(446,361,c),
(503,322,l),
(554,351,o),
(590,400,o),
(590,474,cs),
(590,587,o),
(535,667,o),
(475,667,cs),
(433,667,o),
(394,638,o),
(376,599,c),
(405,577,l),
(393,631,o),
(350,667,o),
(300,667,cs),
(238,667,o),
(179,610,o),
(179,545,cs)
);
},
{
closed = 1;
nodes = (
(32,392,o),
(61,342,o),
(127,314,c),
(192,356,l),
(117,386,o),
(97,418,o),
(97,461,cs),
(97,512,o),
(117,566,o),
(153,638,c),
(108,665,l),
(61,588,o),
(32,518,o),
(32,443,cs)
);
}
);
width = 620;
},
{
anchors = (
{
name = b.tasubscriptorya;
pos = (333,0);
},
{
name = b.uvowelsignorya;
pos = (641,0);
},
{
name = t.ivowelsignorya;
pos = (346,657);
}
);
layerId = "D0F0E2C3-3B53-4823-9924-A34C50245C28";
shapes = (
{
closed = 1;
nodes = (
(345,-8,l),
(452,21,l),
(452,234,ls),
(452,250,o),
(465,260,o),
(479,260,cs),
(499,260,o),
(520,246,o),
(520,178,cs),
(520,1,l),
(534,-8,l),
(640,21,l),
(640,191,ls),
(640,323,o),
(576,355,o),
(517,355,cs),
(447,355,o),
(368,301,o),
(368,246,cs),
(368,109,l),
(332,95,l),
(332,1,l)
);
},
{
closed = 1;
nodes = (
(69,138,o),
(108,83,o),
(174,83,cs),
(249,83,o),
(300,144,o),
(300,240,cs),
(300,321,o),
(261,377,o),
(194,377,cs),
(120,377,o),
(69,312,o),
(69,216,cs)
);
},
{
closed = 1;
nodes = (
(157,269,o),
(167,296,o),
(181,296,cs),
(200,296,o),
(212,259,o),
(212,223,cs),
(212,186,o),
(202,161,o),
(187,161,cs),
(169,161,o),
(157,198,o),
(157,233,cs)
);
},
{
closed = 1;
nodes = (
(213,138,o),
(251,83,o),
(317,83,cs),
(393,83,o),
(443,144,o),
(443,240,cs),
(443,321,o),
(404,377,o),
(337,377,cs),
(263,377,o),
(213,312,o),
(213,216,cs)
);
},
{
closed = 1;
nodes = (
(301,269,o),
(310,296,o),
(324,296,cs),
(343,296,o),
(355,259,o),
(355,223,cs),
(355,186,o),
(345,161,o),
(331,161,cs),
(312,161,o),
(301,198,o),
(301,233,cs)
);
},
{
closed = 1;
nodes = (
(193,484,o),
(206,447,o),
(218,421,c),
(325,449,l),
(306,480,o),
(290,512,o),
(290,542,cs),
(290,558,o),
(300,570,o),
(318,570,cs),
(347,570,o),
(381,546,o),
(381,470,cs),
(381,436,l),
(388,429,l),
(467,450,l),
(467,512,ls),
(467,544,o),
(479,564,o),
(499,564,cs),
(532,564,o),
(556,510,o),
(556,456,cs),
(556,375,o),
(491,341,o),
(391,339,c),
(388,280,l),
(579,287,o),
(660,353,o),
(660,497,cs),
(660,598,o),
(612,667,o),
(543,667,cs),
(488,667,o),
(437,626,o),
(424,576,c),
(444,565,l),
(436,636,o),
(393,667,o),
(345,667,cs),
(267,667,o),
(193,602,o),
(193,522,cs)
);
},
{
closed = 1;
nodes = (
(27,381,o),
(58,336,o),
(118,306,c),
(213,368,l),
(156,392,o),
(122,428,o),
(122,471,cs),
(122,512,o),
(144,559,o),
(199,631,c),
(145,666,l),
(76,589,o),
(27,510,o),
(27,438,cs)
);
}
);
width = 691;
}
);
metricLeft = iorya;
script = oriya;
subCategory = Spacing;
},
{
category = Letter;
glyphname = kassannaorya;
kernLeft = yaorya;
kernRight = kassannaorya;
lastChange = "2021-07-29 09:44:16 +0000";
layers = (
{
anchors = (
{
name = b.tasubscriptorya;
pos = (419,0);
},
{
name = t.candrabinduorya;
pos = (539,657);
},
{
name = t.ivowelsignorya;
pos = (337,657);
}
);
layerId = "6C4C2116-C5E5-460E-80F0-69F45ED98D3F";
shapes = (
{
closed = 1;
nodes = (
(46,357,o),
(103,271,o),
(206,245,c),
(232,311,l),
(158,333,o),
(114,392,o),
(114,456,cs),
(114,535,o),
(181,601,o),
(298,601,cs),
(415,601,o),
(503,536,o),
(548,460,c),
(585,511,l),
(547,586,o),
(446,667,o),
(308,667,cs),
(152,667,o),
(46,563,o),
(46,444,cs)
);
},
{
closed = 1;
nodes = (
(10,58,o),
(42,38,o),
(71,38,cs),
(103,38,o),
(132,63,o),
(132,98,cs),
(132,128,o),
(111,152,o),
(75,163,c),
(80,141,l),
(109,199,o),
(176,252,o),
(261,283,c),
(250,317,l),
(147,295,o),
(10,182,o),
(10,106,cs)
);
},
{
closed = 1;
nodes = (
(546,33,l),
(606,47,l),
(606,657,l),
(599,664,l),
(539,650,l),
(539,40,l)
);
},
{
closed = 1;
nodes = (
(517,61,l),
(560,80,l),
(210,602,l),
(173,578,l)
);
},
{
closed = 1;
nodes = (
(157,69,o),
(221,-21,o),
(355,-21,cs),
(440,-21,o),
(524,13,o),
(583,68,c),
(567,111,l),
(513,71,o),
(447,44,o),
(376,44,cs),
(271,44,o),
(225,108,o),
(225,172,cs),
(225,223,o),
(254,273,o),
(347,342,c),
(309,382,l),
(208,309,o),
(157,233,o),
(157,156,cs)
);
},
{
pos = (705,81);
ref = nnasubscriptorya;
}
);
width = 737;
},
{
anchors = (
{
name = b.tasubscriptorya;
pos = (499,0);
},
{
name = t.candrabinduorya;
pos = (590,657);
},
{
name = t.ivowelsignorya;
pos = (405,657);
}
);
layerId = "D0F0E2C3-3B53-4823-9924-A34C50245C28";
shapes = (
{
closed = 1;
nodes = (
(90,330,o),
(122,272,o),
(194,219,c),
(314,297,l),
(239,318,o),
(190,370,o),
(190,428,cs),
(190,499,o),
(262,547,o),
(365,547,cs),
(483,547,o),
(580,481,o),
(624,379,c),
(671,500,l),
(624,598,o),
(511,667,o),
(383,667,cs),
(217,667,o),
(90,554,o),
(90,404,cs)
);
},
{
closed = 1;
nodes = (
(32,63,o),
(65,20,o),
(116,20,cs),
(164,20,o),
(205,54,o),
(205,110,cs),
(205,159,o),
(169,198,o),
(126,202,c),
(145,178,l),
(154,198,o),
(214,227,o),
(329,241,c),
(296,297,l),
(117,269,o),
(32,202,o),
(32,114,cs)
);
},
{
closed = 1;
nodes = (
(597,27,l),
(710,54,l),
(710,663,l),
(703,670,l),
(590,643,l),
(590,34,l)
);
},
{
closed = 1;
nodes = (
(574,66,l),
(630,118,l),
(301,588,l),
(245,536,l)
);
},
{
closed = 1;
nodes = (
(233,32,o),
(320,-38,o),
(428,-36,cs),
(535,-35,o),
(637,40,o),
(669,97,c),
(685,167,l),
(634,108,o),
(570,71,o),
(490,71,cs),
(395,71,o),
(335,121,o),
(335,180,cs),
(335,214,o),
(356,256,o),
(428,316,c),
(375,369,l),
(291,297,o),
(233,223,o),
(233,137,cs)
);
},
{
pos = (794,81);
ref = nnasubscriptorya;
}
);
width = 829;
}
);
metricLeft = yaorya;
script = oriya;
subCategory = Spacing;
},
{
category = Letter;
glyphname = kassaorya;
kernLeft = yaorya;
lastChange = "2021-07-21 17:09:43 +0000";
layers = (
{
anchors = (
{
name = b.uvowelsignorya;
pos = (616,0);
},
{
name = t.ivowelsignorya;
pos = (352,657);
}
);
layerId = "6C4C2116-C5E5-460E-80F0-69F45ED98D3F";
shapes = (
{
closed = 1;
nodes = (
(517,72,l),
(548,108,l),
(217,602,l),
(180,578,l)
);
},
{
ref = yaorya;
}
);
width = 677;
},
{
anchors = (
{
name = b.uvowelsignorya;
pos = (705,0);
},
{
name = t.ivowelsignorya;
pos = (390,657);
}
);
layerId = "D0F0E2C3-3B53-4823-9924-A34C50245C28";
shapes = (
{
closed = 1;
nodes = (
(526,96,l),
(582,148,l),
(289,584,l),
(233,532,l)
);
},
{
ref = yaorya;
}
);
width = 762;
}
);
metricLeft = yaorya;
metricRight = aorya;
script = oriya;
subCategory = Spacing;
},
{
category = Letter;
glyphname = laphaorya;
kernRight = iorya;
lastChange = "2021-07-22 07:46:18 +0000";
layers = (
{
anchors = (
{
name = b.rrvocalicvowelsignleftorya;
pos = (447,-49);
},
{
name = b.tasubscriptorya;
pos = (326,0);
},
{
name = b.uvowelsignorya;
pos = (484,0);
},
{
name = t.candrabinduorya;
pos = (528,657);
},
{
name = t.ivowelsignorya;
pos = (326,657);
}
);
layerId = "6C4C2116-C5E5-460E-80F0-69F45ED98D3F";
shapes = (
{
closed = 1;
nodes = (
(32,370,o),
(68,295,o),
(137,256,c),
(166,343,l),
(132,363,o),
(100,399,o),
(100,455,cs),
(100,544,o),
(179,601,o),
(313,601,cs),
(452,601,o),
(569,540,o),
(569,421,cs),
(569,364,o),
(543,305,o),
(518,265,c),
(518,240,l),
(639,105,l),
(653,105,l),
(700,148,l),
(545,294,l),
(561,251,l),
(599,301,o),
(640,361,o),
(640,438,cs),
(640,574,o),
(510,667,o),
(328,667,cs),
(141,667,o),
(32,571,o),
(32,444,cs)
);
},
{
closed = 1;
nodes = (
(442,-6,o),
(477,-46,o),
(525,-46,cs),
(587,-46,o),
(619,6,o),
(619,49,cs),
(619,97,o),
(583,139,o),
(530,139,cs),
(476,139,o),
(442,91,o),
(442,45,cs)
);
},
{
closed = 1;
nodes = (
(485,78,o),
(499,88,o),
(517,88,cs),
(546,88,o),
(568,64,o),
(568,38,cs),
(568,17,o),
(553,7,o),
(534,7,cs),
(506,7,o),
(485,31,o),
(485,57,cs)
);
},
{
pos = (461,259);
ref = pasubscriptloworya;
},
{
pos = (-10,6);
ref = _part.lahalf;
}
);
width = 711;
},
{
anchors = (
{
name = b.rrvocalicvowelsignleftorya;
pos = (505,-49);
},
{
name = b.tasubscriptorya;
pos = (355,0);
},
{
name = b.uvowelsignorya;
pos = (542,0);
},
{
name = t.candrabinduorya;
pos = (539,657);
},
{
name = t.ivowelsignorya;
pos = (355,657);
}
);
layerId = "D0F0E2C3-3B53-4823-9924-A34C50245C28";
shapes = (
{
closed = 1;
nodes = (
(27,334,o),
(66,259,o),
(135,211,c),
(196,356,l),
(156,368,o),
(127,397,o),
(127,436,cs),
(127,518,o),
(236,548,o),
(333,548,cs),
(462,548,o),
(603,488,o),
(603,362,cs),
(603,325,o),
(593,299,o),
(580,275,c),
(580,250,l),
(686,115,l),
(700,115,l),
(792,198,l),
(637,344,l),
(659,266,l),
(700,313,o),
(719,361,o),
(719,416,cs),
(719,547,o),
(581,667,o),
(366,667,cs),
(162,667,o),
(27,565,o),
(27,407,cs)
);
},
{
closed = 1;
nodes = (
(490,-6,o),
(525,-46,o),
(573,-46,cs),
(635,-46,o),
(667,6,o),
(667,49,cs),
(667,97,o),
(631,139,o),
(578,139,cs),
(524,139,o),
(490,91,o),
(490,45,cs)
);
},
{
closed = 1;
nodes = (
(545,69,o),
(555,76,o),
(568,76,cs),
(588,76,o),
(604,59,o),
(604,41,cs),
(604,26,o),
(593,19,o),
(580,19,cs),
(560,19,o),
(545,36,o),
(545,54,cs)
);
},
{
pos = (499,259);
ref = pasubscriptloworya;
},
{
pos = (-8,0);
ref = _part.lahalf;
}
);
width = 797;
}
);
metricLeft = iorya;
metricRight = caorya;
script = oriya;
subCategory = Spacing;
},
{
category = Letter;
glyphname = llaphaorya;
lastChange = "2021-07-22 07:42:59 +0000";
layers = (
{
anchors = (
{
name = b.rrvocalicvowelsignleftorya;
pos = (477,-49);
},
{
name = b.tasubscriptorya;
pos = (331,0);
},
{
name = b.uvowelsignorya;
pos = (493,0);
},
{
name = t.candrabinduorya;
pos = (533,657);
},
{
name = t.ivowelsignorya;
pos = (331,657);
}
);
layerId = "6C4C2116-C5E5-460E-80F0-69F45ED98D3F";
shapes = (
{
closed = 1;
nodes = (
(484,139,o),
(450,91,o),
(450,45,cs),
(450,-6,o),
(485,-46,o),
(533,-46,cs),
(595,-46,o),
(627,6,o),
(627,49,cs),
(627,97,o),
(591,139,o),
(538,139,cs)
);
},
{
closed = 1;
nodes = (
(493,78,o),
(507,88,o),
(525,88,cs),
(554,88,o),
(576,64,o),
(576,38,cs),
(576,17,o),
(561,7,o),
(542,7,cs),
(514,7,o),
(493,31,o),
(493,57,cs)
);
},
{
ref = llapaorya;
}
);
width = 663;
},
{
anchors = (
{
name = b.rrvocalicvowelsignleftorya;
pos = (536,-49);
},
{
name = b.tasubscriptorya;
pos = (360,0);
},
{
name = b.uvowelsignorya;
pos = (559,0);
},
{
name = t.candrabinduorya;
pos = (544,657);
},
{
name = t.ivowelsignorya;
pos = (360,657);
}
);
layerId = "D0F0E2C3-3B53-4823-9924-A34C50245C28";
shapes = (
{
closed = 1;
nodes = (
(538,139,o),
(504,91,o),
(504,45,cs),
(504,-6,o),
(539,-46,o),
(587,-46,cs),
(649,-46,o),
(681,6,o),
(681,49,cs),
(681,97,o),
(645,139,o),
(592,139,cs)
);
},
{
closed = 1;
nodes = (
(559,69,o),
(569,76,o),
(582,76,cs),
(602,76,o),
(618,59,o),
(618,41,cs),
(618,26,o),
(607,19,o),
(594,19,cs),
(574,19,o),
(559,36,o),
(559,54,cs)
);
},
{
ref = llapaorya;
}
);
width = 701;
}
);
metricLeft = iorya;
script = oriya;
subCategory = Spacing;
},
{
category = Letter;
glyphname = mabhaorya;
kernRight = kassannaorya;
lastChange = "2021-07-26 14:53:37 +0000";
layers = (
{
anchors = (
{
name = b.tasubscriptorya;
pos = (396,0);
},
{
name = b.uvowelsignorya;
pos = (583,0);
},
{
name = t.candrabinduorya;
pos = (516,657);
},
{
name = t.ivowelsignorya;
pos = (320,657);
}
);
layerId = "6C4C2116-C5E5-460E-80F0-69F45ED98D3F";
shapes = (
{
closed = 1;
nodes = (
(622,-35,l),
(636,-35,l),
(680,8,l),
(542,127,l),
(530,83,l),
(618,149,o),
(643,183,o),
(643,217,cs),
(643,254,o),
(607,273,o),
(543,280,c),
(583,247,l),
(583,657,l),
(576,664,l),
(516,649,l),
(516,233,l),
(558,226,o),
(574,217,o),
(574,200,cs),
(574,182,o),
(562,166,o),
(500,118,c),
(500,90,l)
);
},
{
closed = 1;
nodes = (
(102,14,o),
(133,-7,o),
(162,-7,cs),
(193,-7,o),
(218,17,o),
(218,50,cs),
(218,83,o),
(196,108,o),
(158,114,c),
(167,97,l),
(193,185,o),
(252,258,o),
(384,304,c),
(358,363,l),
(188,299,o),
(102,175,o),
(102,69,cs)
);
},
{
closed = 1;
nodes = (
(32,337,o),
(85,250,o),
(175,196,c),
(233,270,l),
(154,296,o),
(100,362,o),
(100,443,cs),
(100,527,o),
(164,601,o),
(289,601,cs),
(404,601,o),
(508,535,o),
(536,419,c),
(571,470,l),
(550,585,o),
(435,667,o),
(296,667,cs),
(135,667,o),
(32,554,o),
(32,431,cs)
);
}
);
width = 682;
},
{
anchors = (
{
name = b.tasubscriptorya;
pos = (434,0);
},
{
name = b.uvowelsignorya;
pos = (612,0);
},
{
name = t.candrabinduorya;
pos = (526,657);
},
{
name = t.ivowelsignorya;
pos = (349,657);
}
);
layerId = "D0F0E2C3-3B53-4823-9924-A34C50245C28";
shapes = (
{
closed = 1;
nodes = (
(633,-82,l),
(644,-82,l),
(738,2,l),
(613,115,l),
(617,71,l),
(669,93,o),
(726,133,o),
(726,181,cs),
(726,220,o),
(696,257,o),
(591,253,c),
(646,206,l),
(646,663,l),
(639,670,l),
(526,643,l),
(526,201,l),
(592,197,o),
(612,185,o),
(612,167,cs),
(612,147,o),
(588,126,o),
(512,91,c),
(512,59,l)
);
},
{
closed = 1;
nodes = (
(129,28,o),
(163,-10,o),
(218,-10,cs),
(270,-10,o),
(312,30,o),
(312,86,cs),
(312,135,o),
(275,171,o),
(232,172,c),
(248,148,l),
(247,194,o),
(296,254,o),
(421,290,c),
(386,362,l),
(210,310,o),
(129,195,o),
(129,87,cs)
);
},
{
closed = 1;
nodes = (
(27,312,o),
(70,239,o),
(157,178,c),
(247,292,l),
(174,313,o),
(127,366,o),
(127,424,cs),
(127,497,o),
(199,547,o),
(302,547,cs),
(420,547,o),
(517,481,o),
(561,379,c),
(608,500,l),
(561,598,o),
(448,667,o),
(320,667,cs),
(154,667,o),
(27,552,o),
(27,401,cs)
);
}
);
width = 736;
}
);
metricLeft = iorya;
metricRight = iorya;
script = oriya;
subCategory = Spacing;
},
{
category = Letter;
glyphname = mamaUIorya;
lastChange = "2021-07-22 07:42:59 +0000";
layers = (
{
anchors = (
{
name = b.uvowelsignorya;
pos = (585,0);
},
{
name = t.ivowelsignorya;
pos = (322,657);
}
);
layerId = "6C4C2116-C5E5-460E-80F0-69F45ED98D3F";
shapes = (
{
closed = 1;
nodes = (
(242,29,o),
(267,-18,o),
(306,-47,c),
(345,15,l),
(313,36,o),
(299,62,o),
(299,86,cs),
(299,125,o),
(337,148,o),
(385,148,cs),
(449,148,o),
(511,109,o),
(540,33,c),
(546,134,l),
(509,190,o),
(444,210,o),
(397,210,cs),
(309,210,o),
(242,151,o),
(242,75,cs)
);
},
{
closed = 1;
nodes = (
(525,-160,l),
(585,-144,l),
(585,197,l),
(518,197,l),
(518,-153,l)
);
},
{
closed = 1;
nodes = (
(262,-139,o),
(282,-160,o),
(309,-160,cs),
(338,-160,o),
(361,-139,o),
(361,-113,cs),
(361,-84,o),
(337,-66,o),
(311,-65,c),
(333,-104,l),
(332,-57,o),
(344,-31,o),
(434,4,c),
(414,50,l),
(316,15,o),
(262,-49,o),
(262,-107,cs)
);
},
{
pos = (-2,0);
ref = _part.ma;
}
);
width = 646;
},
{
anchors = (
{
name = b.uvowelsignorya;
pos = (656,0);
},
{
name = t.ivowelsignorya;
pos = (356,657);
}
);
layerId = "D0F0E2C3-3B53-4823-9924-A34C50245C28";
shapes = (
{
closed = 1;
nodes = (
(271,11,o),
(306,-34,o),
(351,-54,c),
(408,25,l),
(380,33,o),
(353,58,o),
(353,82,cs),
(353,109,o),
(381,125,o),
(424,125,cs),
(489,125,o),
(544,86,o),
(570,41,c),
(603,134,l),
(568,175,o),
(516,215,o),
(442,215,cs),
(352,215,o),
(271,148,o),
(271,62,cs)
);
},
{
closed = 1;
nodes = (
(543,-161,l),
(656,-134,l),
(656,199,l),
(536,199,l),
(536,-154,l)
);
},
{
closed = 1;
nodes = (
(290,-126,o),
(312,-154,o),
(352,-154,cs),
(384,-154,o),
(411,-129,o),
(411,-93,cs),
(411,-58,o),
(385,-33,o),
(354,-32,c),
(375,-41,l),
(374,-24,o),
(407,-2,o),
(461,13,c),
(444,59,l),
(347,39,o),
(290,-30,o),
(290,-86,cs)
);
},
{
pos = (5,0);
ref = _part.ma;
}
);
width = 712;
}
);
metricLeft = iorya;
metricRight = aorya;
script = oriya;
subCategory = Spacing;
},
{
category = Letter;
glyphname = mamaorya;
lastChange = "2021-07-22 07:42:59 +0000";
layers = (
{
anchors = (
{
name = b.uvowelsignorya;
pos = (585,0);
},
{
name = t.ivowelsignorya;
pos = (322,657);
}
);
layerId = "6C4C2116-C5E5-460E-80F0-69F45ED98D3F";
shapes = (
{
closed = 1;
nodes = (
(233,-30,o),
(258,-77,o),
(297,-106,c),
(336,-44,l),
(304,-23,o),
(290,3,o),
(290,27,cs),
(290,66,o),
(328,89,o),
(376,89,cs),
(440,89,o),
(502,50,o),
(531,-26,c),
(537,75,l),
(500,131,o),
(435,151,o),
(388,151,cs),
(300,151,o),
(233,92,o),
(233,16,cs)
);
},
{
closed = 1;
nodes = (
(525,-218,l),
(585,-202,l),
(585,139,l),
(518,139,l),
(518,-211,l)
);
},
{
closed = 1;
nodes = (
(253,-198,o),
(273,-219,o),
(300,-219,cs),
(329,-219,o),
(352,-198,o),
(352,-172,cs),
(352,-143,o),
(328,-125,o),
(302,-124,c),
(324,-163,l),
(323,-116,o),
(335,-90,o),
(425,-55,c),
(405,-9,l),
(307,-44,o),
(253,-108,o),
(253,-166,cs)
);
},
{
pos = (-2,0);
ref = _part.ma;
}
);
width = 646;
},
{
anchors = (
{
name = b.uvowelsignorya;
pos = (656,0);
},
{
name = t.ivowelsignorya;
pos = (359,657);
}
);
layerId = "D0F0E2C3-3B53-4823-9924-A34C50245C28";
shapes = (
{
closed = 1;
nodes = (
(268,-53,o),
(303,-98,o),
(348,-118,c),
(405,-39,l),
(377,-31,o),
(350,-6,o),
(350,18,cs),
(350,45,o),
(378,61,o),
(421,61,cs),
(486,61,o),
(541,22,o),
(567,-23,c),
(600,70,l),
(565,111,o),
(513,151,o),
(439,151,cs),
(349,151,o),
(268,84,o),
(268,-2,cs)
);
},
{
closed = 1;
nodes = (
(543,-219,l),
(656,-192,l),
(656,124,l),
(536,124,l),
(536,-212,l)
);
},
{
closed = 1;
nodes = (
(292,-190,o),
(314,-218,o),
(354,-218,cs),
(386,-218,o),
(413,-193,o),
(413,-157,cs),
(413,-122,o),
(387,-97,o),
(356,-96,c),
(377,-105,l),
(376,-88,o),
(409,-66,o),
(463,-51,c),
(446,-5,l),
(349,-25,o),
(292,-94,o),
(292,-150,cs)
);
},
{
pos = (5,0);
ref = _part.ma;
}
);
width = 712;
}
);
metricLeft = iorya;
metricRight = aorya;
script = oriya;
subCategory = Spacing;
},
{
category = Letter;
glyphname = mapaorya;
lastChange = "2021-07-28 18:33:22 +0000";
layers = (
{
anchors = (
{
name = b.uvowelsignorya;
pos = (595,0);
},
{
name = t.ivowelsignorya;
pos = (323,657);
}
);
layerId = "6C4C2116-C5E5-460E-80F0-69F45ED98D3F";
shapes = (
{
closed = 1;
nodes = (
(654,346,l),
(689,370,l),
(459,724,l),
(424,701,l)
);
},
{
closed = 1;
nodes = (
(291,430,o),
(339,382,o),
(411,382,cs),
(498,382,o),
(557,453,o),
(568,564,c),
(533,610,l),
(533,510,o),
(495,447,o),
(427,447,cs),
(387,447,o),
(358,470,o),
(358,510,cs),
(358,546,o),
(382,591,o),
(426,635,c),
(426,649,l),
(365,628,l),
(313,579,o),
(291,539,o),
(291,495,cs)
);
},
{
closed = 1;
nodes = (
(32,350,o),
(77,271,o),
(150,221,c),
(209,278,l),
(149,314,o),
(100,369,o),
(100,445,cs),
(100,519,o),
(161,601,o),
(296,601,cs),
(322,601,o),
(356,598,o),
(377,595,c),
(426,649,l),
(399,659,o),
(352,667,o),
(306,667,cs),
(126,667,o),
(32,548,o),
(32,430,cs)
);
},
{
closed = 1;
nodes = (
(89,14,o),
(120,-7,o),
(149,-7,cs),
(180,-7,o),
(205,17,o),
(205,50,cs),
(205,83,o),
(183,108,o),
(145,114,c),
(154,97,l),
(178,179,o),
(231,247,o),
(350,290,c),
(324,349,l),
(168,288,o),
(89,170,o),
(89,69,cs)
);
},
{
pos = (458,0);
ref = aavowelsignorya;
}
);
width = 674;
},
{
anchors = (
{
name = b.uvowelsignorya;
pos = (691,0);
},
{
name = t.ivowelsignorya;
pos = (368,657);
}
);
layerId = "D0F0E2C3-3B53-4823-9924-A34C50245C28";
shapes = (
{
closed = 1;
nodes = (
(719,306,l),
(770,340,l),
(513,732,l),
(463,701,l)
);
},
{
closed = 1;
nodes = (
(314,421,o),
(363,368,o),
(444,368,cs),
(543,368,o),
(618,442,o),
(639,587,c),
(606,587,l),
(590,533,o),
(548,471,o),
(474,471,cs),
(439,471,o),
(416,495,o),
(416,525,cs),
(416,556,o),
(433,588,o),
(456,630,c),
(452,651,l),
(434,641,l),
(365,597,o),
(314,555,o),
(314,488,cs)
);
},
{
closed = 1;
nodes = (
(27,312,o),
(61,241,o),
(130,183,c),
(219,297,l),
(164,316,o),
(129,367,o),
(129,422,cs),
(129,497,o),
(194,547,o),
(289,547,cs),
(314,547,o),
(341,544,o),
(367,537,c),
(452,651,l),
(405,664,o),
(364,667,o),
(335,667,cs),
(154,667,o),
(27,551,o),
(27,394,cs)
);
},
{
closed = 1;
nodes = (
(97,28,o),
(130,-10,o),
(185,-10,cs),
(237,-10,o),
(279,30,o),
(279,86,cs),
(279,135,o),
(242,171,o),
(199,172,c),
(215,148,l),
(214,192,o),
(260,249,o),
(377,283,c),
(342,355,l),
(173,304,o),
(97,192,o),
(97,84,cs)
);
},
{
pos = (510,0);
ref = aavowelsignorya;
}
);
width = 750;
}
);
metricLeft = iorya;
script = oriya;
subCategory = Spacing;
},
{
category = Letter;
glyphname = maphaorya;
lastChange = "2021-07-26 15:10:36 +0000";
layers = (
{
anchors = (
{
name = b.tasubscriptorya;
pos = (409,0);
},
{
name = b.uvowelsignorya;
pos = (596,0);
},
{
name = t.candrabinduorya;
pos = (529,657);
},
{
name = t.ivowelsignorya;
pos = (363,657);
}
);
layerId = "6C4C2116-C5E5-460E-80F0-69F45ED98D3F";
shapes = (
{
closed = 1;
nodes = (
(32,342,o),
(78,257,o),
(163,206,c),
(215,283,l),
(143,316,o),
(100,371,o),
(100,444,cs),
(100,531,o),
(175,601,o),
(302,601,cs),
(329,601,o),
(356,597,o),
(381,589,c),
(426,649,l),
(391,661,o),
(353,667,o),
(313,667,cs),
(146,667,o),
(32,558,o),
(32,430,cs)
);
},
{
closed = 1;
nodes = (
(291,430,o),
(339,382,o),
(411,382,cs),
(498,382,o),
(557,453,o),
(568,564,c),
(533,610,l),
(533,510,o),
(495,447,o),
(427,447,cs),
(387,447,o),
(358,470,o),
(358,510,cs),
(358,546,o),
(382,591,o),
(426,635,c),
(426,649,l),
(365,628,l),
(313,579,o),
(291,539,o),
(291,495,cs)
);
},
{
closed = 1;
nodes = (
(89,14,o),
(120,-7,o),
(149,-7,cs),
(180,-7,o),
(205,17,o),
(205,50,cs),
(205,83,o),
(183,108,o),
(145,114,c),
(154,97,l),
(178,179,o),
(231,247,o),
(350,290,c),
(324,349,l),
(168,288,o),
(89,170,o),
(89,69,cs)
);
},
{
closed = 1;
nodes = (
(668,244,l),
(704,266,l),
(444,731,l),
(407,711,l)
);
},
{
pos = (219,0);
ref = _part.oo;
},
{
pos = (458,0);
ref = aavowelsignorya;
}
);
width = 802;
},
{
anchors = (
{
name = b.tasubscriptorya;
pos = (474,0);
},
{
name = b.uvowelsignorya;
pos = (691,0);
},
{
name = t.candrabinduorya;
pos = (572,657);
},
{
name = t.ivowelsignorya;
pos = (408,657);
}
);
layerId = "D0F0E2C3-3B53-4823-9924-A34C50245C28";
shapes = (
{
closed = 1;
nodes = (
(27,310,o),
(61,241,o),
(130,183,c),
(219,297,l),
(164,316,o),
(129,367,o),
(129,425,cs),
(129,497,o),
(194,547,o),
(289,547,cs),
(314,547,o),
(341,544,o),
(367,537,c),
(452,651,l),
(405,664,o),
(364,667,o),
(334,667,cs),
(154,667,o),
(27,549,o),
(27,393,cs)
);
},
{
closed = 1;
nodes = (
(314,421,o),
(363,368,o),
(444,368,cs),
(543,368,o),
(618,442,o),
(639,587,c),
(606,587,l),
(590,533,o),
(548,471,o),
(474,471,cs),
(439,471,o),
(416,495,o),
(416,525,cs),
(416,556,o),
(433,588,o),
(456,630,c),
(452,651,l),
(434,641,l),
(365,597,o),
(314,555,o),
(314,488,cs)
);
},
{
closed = 1;
nodes = (
(97,28,o),
(130,-10,o),
(185,-10,cs),
(237,-10,o),
(279,30,o),
(279,86,cs),
(279,135,o),
(242,171,o),
(199,172,c),
(215,148,l),
(214,192,o),
(260,249,o),
(377,283,c),
(342,355,l),
(173,304,o),
(97,192,o),
(97,84,cs)
);
},
{
closed = 1;
nodes = (
(770,209,l),
(821,243,l),
(499,742,l),
(449,711,l)
);
},
{
pos = (4,-9);
ref = _part.oo;
},
{
pos = (509,0);
ref = aavowelsignorya;
}
);
width = 873;
}
);
metricLeft = iorya;
script = oriya;
subCategory = Spacing;
},
{
category = Letter;
glyphname = nadaorya;
kernLeft = nadaorya;
kernRight = caorya;
lastChange = "2021-07-28 10:47:56 +0000";
layers = (
{
anchors = (
{
name = b.tasubscriptorya;
pos = (353,0);
},
{
name = b.uvowelsignorya;
pos = (472,0);
},
{
name = t.ivowelsignorya;
pos = (334,657);
}
);
layerId = "6C4C2116-C5E5-460E-80F0-69F45ED98D3F";
shapes = (
{
closed = 1;
nodes = (
(413,-7,l),
(473,7,l),
(473,315,l),
(466,322,l),
(406,307,l),
(406,0,l)
);
},
{
closed = 1;
nodes = (
(20,50,o),
(50,30,o),
(78,30,cs),
(107,30,o),
(134,54,o),
(134,87,cs),
(134,117,o),
(114,141,o),
(80,152,c),
(90,133,l),
(111,174,o),
(150,213,o),
(202,243,c),
(225,299,l),
(129,263,o),
(20,166,o),
(20,98,cs)
);
},
{
closed = 1;
nodes = (
(158,115,o),
(215,56,o),
(301,56,cs),
(368,56,o),
(423,89,o),
(456,130,c),
(449,173,l),
(427,153,o),
(376,118,o),
(318,118,cs),
(260,118,o),
(222,152,o),
(222,206,cs),
(222,245,o),
(251,281,o),
(304,325,c),
(265,363,l),
(207,314,o),
(158,261,o),
(158,191,cs)
);
},
{
pos = (18,0);
ref = _part.swash5;
}
);
width = 635;
},
{
anchors = (
{
name = b.tasubscriptorya;
pos = (407,0);
},
{
name = b.uvowelsignorya;
pos = (561,0);
},
{
name = t.ivowelsignorya;
pos = (407,657);
}
);
layerId = "D0F0E2C3-3B53-4823-9924-A34C50245C28";
shapes = (
{
closed = 1;
nodes = (
(451,-7,l),
(561,22,l),
(561,323,l),
(554,330,l),
(444,301,l),
(444,0,l)
);
},
{
closed = 1;
nodes = (
(32,47,o),
(62,10,o),
(114,10,cs),
(157,10,o),
(193,43,o),
(193,91,cs),
(193,137,o),
(158,171,o),
(117,172,c),
(145,160,l),
(144,185,o),
(193,218,o),
(275,239,c),
(277,300,l),
(113,273,o),
(32,178,o),
(32,100,cs)
);
},
{
closed = 1;
nodes = (
(206,122,o),
(250,56,o),
(343,56,cs),
(439,56,o),
(507,119,o),
(521,176,c),
(503,214,l),
(472,185,o),
(421,157,o),
(381,157,cs),
(327,157,o),
(311,189,o),
(311,216,cs),
(311,241,o),
(323,272,o),
(374,320,c),
(326,370,l),
(257,319,o),
(206,256,o),
(206,186,cs)
);
},
{
pos = (55,0);
ref = _part.swash5;
}
);
width = 725;
}
);
metricRight = caorya;
script = oriya;
subCategory = Spacing;
},
{
category = Letter;
glyphname = nadhaorya;
kernLeft = nadaorya;
kernRight = caorya;
lastChange = "2021-07-22 07:46:18 +0000";
layers = (
{
anchors = (
{
name = b.tasubscriptorya;
pos = (353,0);
},
{
name = b.uvowelsignorya;
pos = (472,0);
},
{
name = t.ivowelsignorya;
pos = (334,657);
}
);
layerId = "6C4C2116-C5E5-460E-80F0-69F45ED98D3F";
shapes = (
{
closed = 1;
nodes = (
(443,228,l),
(473,275,l),
(230,607,l),
(184,575,l)
);
},
{
ref = nadaorya;
}
);
width = 635;
},
{
anchors = (
{
name = b.tasubscriptorya;
pos = (386,0);
},
{
name = b.uvowelsignorya;
pos = (560,0);
},
{
name = t.ivowelsignorya;
pos = (386,657);
}
);
layerId = "D0F0E2C3-3B53-4823-9924-A34C50245C28";
shapes = (
{
closed = 1;
nodes = (
(444,257,l),
(497,313,l),
(269,598,l),
(216,543,l)
);
},
{
ref = nadaorya;
}
);
width = 725;
}
);
metricRight = caorya;
script = oriya;
subCategory = Spacing;
},
{
category = Letter;
glyphname = ngakaorya;
kernRight = caorya;
lastChange = "2021-07-28 11:15:06 +0000";
layers = (
{
anchors = (
{
name = b.tasubscriptorya;
pos = (331,0);
},
{
name = b.uvowelsignorya;
pos = (580,0);
},
{
name = t.ivowelsignorya;
pos = (327,657);
}
);
layerId = "6C4C2116-C5E5-460E-80F0-69F45ED98D3F";
shapes = (
{
closed = 1;
nodes = (
(169,319,l),
(126,348,o),
(100,406,o),
(100,459,cs),
(100,544,o),
(162,602,o),
(250,602,cs),
(331,602,o),
(413,553,o),
(477,428,c),
(521,462,l),
(457,622,o),
(352,667,o),
(260,667,cs),
(134,667,o),
(32,569,o),
(32,442,cs),
(32,374,o),
(67,302,o),
(120,261,c)
);
},
{
pos = (-5,0);
ref = _part.osmall;
},
{
pos = (70,0);
ref = _part.ngaka;
}
);
width = 763;
},
{
anchors = (
{
name = b.tasubscriptorya;
pos = (390,0);
},
{
name = b.uvowelsignorya;
pos = (663,0);
},
{
name = t.ivowelsignorya;
pos = (395,657);
}
);
layerId = "D0F0E2C3-3B53-4823-9924-A34C50245C28";
shapes = (
{
closed = 1;
nodes = (
(184,323,l),
(147,348,o),
(125,391,o),
(125,427,cs),
(125,515,o),
(214,550,o),
(286,550,cs),
(366,550,o),
(442,517,o),
(513,418,c),
(564,531,l),
(500,620,o),
(413,667,o),
(308,667,cs),
(135,667,o),
(27,550,o),
(27,403,cs),
(27,331,o),
(53,280,o),
(97,216,c)
);
},
{
pos = (-6,0);
ref = _part.osmall;
},
{
pos = (-5,0);
ref = _part.ngaka;
}
);
width = 802;
}
);
metricLeft = iorya;
script = oriya;
subCategory = Spacing;
},
{
category = Letter;
glyphname = ngakassaorya;
lastChange = "2021-07-22 08:03:14 +0000";
layers = (
{
anchors = (
{
name = b.rrvocalicvowelsignleftorya;
pos = (502,-49);
},
{
name = b.tasubscriptorya;
pos = (316,0);
},
{
name = b.uvowelsignorya;
pos = (539,0);
},
{
name = t.candrabinduorya;
pos = (577,657);
},
{
name = t.ivowelsignorya;
pos = (340,657);
}
);
layerId = "6C4C2116-C5E5-460E-80F0-69F45ED98D3F";
shapes = (
{
closed = 1;
nodes = (
(32,404,o),
(65,342,o),
(115,312,c),
(169,370,l),
(125,389,o),
(99,437,o),
(99,487,cs),
(99,557,o),
(151,603,o),
(221,603,cs),
(288,603,o),
(354,557,o),
(407,438,c),
(445,471,l),
(392,624,o),
(308,667,o),
(232,667,cs),
(124,667,o),
(32,582,o),
(32,470,cs)
);
},
{
pos = (-70,0);
ref = _part.osmall;
},
{
pos = (516,145);
ref = kassasubscriptorya;
},
{
pos = (-28,90);
ref = _part.u;
scale = (0.9322,0.9322);
}
);
width = 701;
},
{
anchors = (
{
name = b.rrvocalicvowelsignleftorya;
pos = (587,-49);
},
{
name = b.tasubscriptorya;
pos = (342,0);
},
{
name = b.uvowelsignorya;
pos = (624,0);
},
{
name = t.candrabinduorya;
pos = (592,657);
},
{
name = t.ivowelsignorya;
pos = (371,657);
}
);
layerId = "D0F0E2C3-3B53-4823-9924-A34C50245C28";
shapes = (
{
closed = 1;
nodes = (
(27,329,o),
(67,264,o),
(133,209,c),
(217,325,l),
(156,343,o),
(125,383,o),
(125,435,cs),
(125,515,o),
(197,550,o),
(264,550,cs),
(325,550,o),
(401,521,o),
(466,419,c),
(518,531,l),
(460,620,o),
(381,667,o),
(282,667,cs),
(126,667,o),
(27,550,o),
(27,413,cs)
);
},
{
pos = (-52,0);
ref = _part.osmall;
},
{
pos = (581,145);
ref = kassasubscriptorya;
},
{
pos = (6,62);
ref = _part.u;
scale = (0.9322,0.9322);
}
);
width = 757;
}
);
metricLeft = iorya;
script = oriya;
subCategory = Spacing;
},
{
category = Letter;
glyphname = ngakhaorya;
lastChange = "2021-07-26 15:11:14 +0000";
layers = (
{
anchors = (
{
name = b.tasubscriptorya;
pos = (405,0);
},
{
name = b.uvowelsignorya;
pos = (592,0);
},
{
name = t.candrabinduorya;
pos = (525,657);
},
{
name = t.ivowelsignorya;
pos = (358,657);
}
);
layerId = "6C4C2116-C5E5-460E-80F0-69F45ED98D3F";
shapes = (
{
closed = 1;
nodes = (
(285,430,o),
(333,382,o),
(405,382,cs),
(492,382,o),
(551,453,o),
(562,564,c),
(527,610,l),
(527,510,o),
(489,447,o),
(421,447,cs),
(381,447,o),
(352,470,o),
(352,510,cs),
(352,546,o),
(376,591,o),
(420,635,c),
(420,649,l),
(359,628,l),
(307,579,o),
(285,539,o),
(285,495,cs)
);
},
{
closed = 1;
nodes = (
(32,366,o),
(57,303,o),
(103,254,c),
(179,303,l),
(129,336,o),
(100,384,o),
(100,444,cs),
(100,531,o),
(175,601,o),
(302,601,cs),
(327,601,o),
(353,598,o),
(376,591,c),
(420,649,l),
(387,661,o),
(351,667,o),
(313,667,cs),
(146,667,o),
(32,558,o),
(32,430,cs)
);
},
{
pos = (454,0);
ref = aavowelsignorya;
},
{
pos = (213,1);
ref = _part.oo;
},
{
pos = (-15,0);
ref = _part.ooo;
}
);
width = 799;
},
{
anchors = (
{
name = b.tasubscriptorya;
pos = (471,0);
},
{
name = b.uvowelsignorya;
pos = (682,0);
},
{
name = t.candrabinduorya;
pos = (562,657);
},
{
name = t.ivowelsignorya;
pos = (406,657);
}
);
layerId = "D0F0E2C3-3B53-4823-9924-A34C50245C28";
shapes = (
{
closed = 1;
nodes = (
(314,421,o),
(363,368,o),
(444,368,cs),
(550,368,o),
(631,442,o),
(647,587,c),
(606,587,l),
(590,533,o),
(548,471,o),
(474,471,cs),
(439,471,o),
(416,495,o),
(416,525,cs),
(416,555,o),
(437,586,o),
(481,627,c),
(477,648,l),
(434,641,l),
(365,597,o),
(314,555,o),
(314,488,cs)
);
},
{
closed = 1;
nodes = (
(27,310,o),
(61,241,o),
(130,183,c),
(219,297,l),
(164,316,o),
(129,367,o),
(129,425,cs),
(129,497,o),
(194,547,o),
(289,547,cs),
(314,547,o),
(341,544,o),
(367,537,c),
(477,648,l),
(411,663,o),
(367,667,o),
(334,667,cs),
(154,667,o),
(27,549,o),
(27,393,cs)
);
},
{
pos = (500,0);
ref = aavowelsignorya;
},
{
pos = (-5,-10);
ref = _part.oo;
},
{
pos = (-5,0);
ref = _part.ooo;
}
);
width = 876;
}
);
metricLeft = iorya;
script = oriya;
subCategory = Spacing;
},
{
category = Letter;
glyphname = nnaddaUIorya;
kernRight = nnaddaUIorya;
lastChange = "2021-07-22 07:46:18 +0000";
layers = (
{
anchors = (
{
name = b.uvowelsignorya;
pos = (582,0);
},
{
name = t.ivowelsignorya;
pos = (316,657);
}
);
layerId = "6C4C2116-C5E5-460E-80F0-69F45ED98D3F";
shapes = (
{
closed = 1;
nodes = (
(522,63,l),
(582,77,l),
(582,657,l),
(575,664,l),
(515,650,l),
(515,70,l)
);
},
{
closed = 1;
nodes = (
(228,-137,o),
(331,-154,o),
(424,-154,cs),
(572,-154,o),
(664,-105,o),
(664,-17,cs),
(664,50,o),
(606,104,o),
(537,104,cs),
(470,104,o),
(425,55,o),
(425,0,cs),
(425,-36,o),
(447,-84,o),
(493,-107,c),
(573,-81,l),
(523,-63,o),
(486,-22,o),
(486,11,cs),
(486,30,o),
(500,43,o),
(521,43,cs),
(564,43,o),
(602,3,o),
(602,-32,cs),
(602,-68,o),
(536,-94,o),
(440,-94,cs),
(358,-94,o),
(256,-74,o),
(177,-45,c),
(149,-106,l)
);
},
{
pos = (3,0);
ref = _part.nnahalf;
}
);
width = 675;
},
{
anchors = (
{
name = b.uvowelsignorya;
pos = (643,0);
},
{
name = t.ivowelsignorya;
pos = (338,657);
}
);
layerId = "D0F0E2C3-3B53-4823-9924-A34C50245C28";
shapes = (
{
closed = 1;
nodes = (
(530,60,l),
(643,87,l),
(643,657,l),
(636,664,l),
(523,637,l),
(523,67,l)
);
},
{
closed = 1;
nodes = (
(262,-142,o),
(364,-153,o),
(458,-153,cs),
(627,-153,o),
(714,-86,o),
(714,5,cs),
(714,69,o),
(657,120,o),
(586,120,cs),
(509,120,o),
(459,59,o),
(459,2,cs),
(459,-35,o),
(487,-75,o),
(523,-108,c),
(607,-54,l),
(561,-34,o),
(543,-4,o),
(543,10,cs),
(543,21,o),
(551,28,o),
(566,28,cs),
(591,28,o),
(622,6,o),
(622,-17,cs),
(622,-41,o),
(581,-60,o),
(488,-60,cs),
(395,-60,o),
(298,-46,o),
(220,-28,c),
(175,-122,l)
);
},
{
pos = (-3,0);
ref = _part.nnahalf;
}
);
width = 719;
}
);
metricLeft = iorya;
metricRight = caorya;
script = oriya;
subCategory = Spacing;
},
{
category = Letter;
glyphname = nnaddhaorya;
kernRight = nnaddhaorya;
lastChange = "2021-07-22 08:03:32 +0000";
layers = (
{
anchors = (
{
name = b.uvowelsignorya;
pos = (587,0);
},
{
name = t.candrabinduorya;
pos = (520,657);
},
{
name = t.ivowelsignorya;
pos = (325,657);
}
);
layerId = "6C4C2116-C5E5-460E-80F0-69F45ED98D3F";
shapes = (
{
closed = 1;
nodes = (
(527,73,l),
(587,87,l),
(587,657,l),
(580,664,l),
(520,650,l),
(520,80,l)
);
},
{
pos = (3,0);
ref = _part.nnahalf;
},
{
pos = (675,118);
ref = ddhasubscriptorya;
}
);
width = 671;
},
{
anchors = (
{
name = b.uvowelsignorya;
pos = (661,0);
},
{
name = t.candrabinduorya;
pos = (541,657);
},
{
name = t.ivowelsignorya;
pos = (357,657);
}
);
layerId = "D0F0E2C3-3B53-4823-9924-A34C50245C28";
shapes = (
{
closed = 1;
nodes = (
(547,40,l),
(660,67,l),
(660,657,l),
(653,664,l),
(540,637,l),
(540,47,l)
);
},
{
pos = (-3,0);
ref = _part.nnahalf;
},
{
pos = (689,118);
ref = ddhasubscriptorya;
}
);
width = 720;
}
);
metricLeft = iorya;
script = oriya;
subCategory = Spacing;
},
{
category = Letter;
glyphname = nnannaUIorya;
kernRight = nnattaorya;
lastChange = "2021-07-22 08:03:38 +0000";
layers = (
{
anchors = (
{
name = b.uvowelsignorya;
pos = (587,0);
},
{
name = t.ivowelsignorya;
pos = (325,657);
}
);
layerId = "6C4C2116-C5E5-460E-80F0-69F45ED98D3F";
shapes = (
{
closed = 1;
nodes = (
(289,-82,o),
(361,-160,o),
(485,-160,cs),
(587,-160,o),
(656,-101,o),
(656,-34,cs),
(656,2,o),
(639,24,o),
(610,39,cs),
(592,48,o),
(566,56,o),
(539,55,c),
(542,42,l),
(598,62,o),
(643,100,o),
(643,157,cs),
(643,209,o),
(601,246,o),
(544,246,cs),
(487,246,o),
(429,211,o),
(429,152,cs),
(429,141,o),
(432,128,o),
(439,112,c),
(497,138,l),
(493,149,o),
(491,159,o),
(491,164,cs),
(491,180,o),
(509,187,o),
(529,187,cs),
(566,187,o),
(582,165,o),
(582,144,cs),
(582,102,o),
(511,73,o),
(475,63,c),
(455,22,l),
(461,15,l),
(475,14,o),
(501,10,o),
(526,5,cs),
(562,-2,o),
(592,-14,o),
(592,-42,cs),
(592,-76,o),
(542,-96,o),
(499,-96,cs),
(384,-96,o),
(351,-15,o),
(351,48,cs),
(351,64,o),
(353,79,o),
(356,95,c),
(309,100,l),
(297,77,o),
(289,54,o),
(289,31,cs)
);
},
{
closed = 1;
nodes = (
(527,213,l),
(587,227,l),
(587,657,l),
(580,664,l),
(520,650,l),
(520,220,l)
);
},
{
pos = (3,0);
ref = _part.nnahalf;
}
);
width = 671;
},
{
anchors = (
{
name = b.uvowelsignorya;
pos = (643,0);
},
{
name = t.ivowelsignorya;
pos = (348,657);
}
);
layerId = "D0F0E2C3-3B53-4823-9924-A34C50245C28";
shapes = (
{
closed = 1;
nodes = (
(308,-96,o),
(394,-160,o),
(524,-160,cs),
(642,-160,o),
(708,-101,o),
(708,-27,cs),
(708,17,o),
(683,42,o),
(660,55,cs),
(643,66,o),
(618,71,o),
(591,74,c),
(600,54,l),
(643,79,o),
(686,111,o),
(686,168,cs),
(686,219,o),
(641,258,o),
(577,258,cs),
(521,258,o),
(458,222,o),
(458,159,cs),
(458,148,o),
(461,133,o),
(469,117,c),
(542,142,l),
(538,153,o),
(536,163,o),
(536,169,cs),
(536,185,o),
(549,191,o),
(563,191,cs),
(591,191,o),
(603,170,o),
(603,151,cs),
(603,120,o),
(541,93,o),
(510,84,c),
(487,18,l),
(493,11,l),
(515,11,o),
(538,9,o),
(559,5,cs),
(591,-1,o),
(615,-14,o),
(615,-34,cs),
(615,-55,o),
(573,-67,o),
(539,-67,cs),
(438,-67,o),
(392,2,o),
(392,61,cs),
(392,79,o),
(394,99,o),
(398,120,c),
(344,165,l),
(321,121,o),
(308,71,o),
(308,25,cs)
);
},
{
closed = 1;
nodes = (
(530,210,l),
(643,237,l),
(643,663,l),
(636,670,l),
(523,643,l),
(523,217,l)
);
},
{
pos = (-3,0);
ref = _part.nnahalf;
}
);
width = 705;
}
);
metricLeft = iorya;
script = oriya;
subCategory = Spacing;
},
{
category = Letter;
glyphname = nnannaorya;
kernRight = nnannaorya;
lastChange = "2021-07-29 15:51:53 +0000";
layers = (
{
anchors = (
{
name = b.uvowelsignorya;
pos = (572,0);
},
{
name = t.candrabinduorya;
pos = (505,657);
},
{
name = t.ivowelsignorya;
pos = (310,657);
}
);
layerId = "6C4C2116-C5E5-460E-80F0-69F45ED98D3F";
shapes = (
{
closed = 1;
nodes = (
(512,73,l),
(572,87,l),
(572,657,l),
(565,664,l),
(505,650,l),
(505,80,l)
);
},
{
closed = 1;
nodes = (
(271,-204,o),
(350,-282,o),
(487,-282,cs),
(593,-282,o),
(664,-223,o),
(664,-156,cs),
(664,-120,o),
(645,-96,o),
(616,-81,cs),
(598,-72,o),
(574,-66,o),
(547,-67,c),
(550,-73,l),
(599,-54,o),
(639,-19,o),
(639,35,cs),
(639,87,o),
(597,124,o),
(540,124,cs),
(485,124,o),
(430,89,o),
(430,30,cs),
(430,19,o),
(433,6,o),
(440,-10,c),
(498,16,l),
(494,27,o),
(492,37,o),
(492,42,cs),
(492,59,o),
(508,67,o),
(525,67,cs),
(562,67,o),
(578,44,o),
(578,22,cs),
(578,-20,o),
(508,-49,o),
(472,-59,c),
(452,-100,l),
(458,-107,l),
(479,-107,o),
(501,-109,o),
(525,-114,cs),
(565,-123,o),
(600,-137,o),
(600,-164,cs),
(600,-199,o),
(547,-219,o),
(501,-219,cs),
(369,-219,o),
(332,-137,o),
(332,-74,cs),
(332,-16,o),
(359,42,o),
(378,75,c),
(361,133,l),
(319,68,o),
(271,-13,o),
(271,-91,cs)
);
},
{
pos = (-12,0);
ref = _part.nna;
}
);
width = 663;
},
{
anchors = (
{
name = b.uvowelsignorya;
pos = (663,0);
},
{
name = t.candrabinduorya;
pos = (543,657);
},
{
name = t.ivowelsignorya;
pos = (368,657);
}
);
layerId = "D0F0E2C3-3B53-4823-9924-A34C50245C28";
shapes = (
{
closed = 1;
nodes = (
(550,74,l),
(663,101,l),
(663,657,l),
(656,664,l),
(543,637,l),
(543,81,l)
);
},
{
closed = 1;
nodes = (
(324,-217,o),
(414,-281,o),
(550,-281,cs),
(668,-281,o),
(734,-222,o),
(734,-148,cs),
(734,-104,o),
(709,-79,o),
(686,-66,cs),
(669,-55,o),
(644,-50,o),
(617,-47,c),
(626,-67,l),
(669,-42,o),
(712,-10,o),
(712,47,cs),
(712,98,o),
(667,137,o),
(603,137,cs),
(547,137,o),
(484,101,o),
(484,38,cs),
(484,27,o),
(487,12,o),
(495,-4,c),
(568,21,l),
(564,32,o),
(562,42,o),
(562,48,cs),
(562,64,o),
(575,70,o),
(589,70,cs),
(617,70,o),
(629,49,o),
(629,30,cs),
(629,-1,o),
(567,-28,o),
(536,-37,c),
(513,-103,l),
(519,-110,l),
(541,-110,o),
(564,-112,o),
(585,-116,cs),
(617,-122,o),
(641,-135,o),
(641,-155,cs),
(641,-176,o),
(599,-188,o),
(565,-188,cs),
(457,-188,o),
(408,-119,o),
(408,-60,cs),
(408,-20,o),
(418,26,o),
(438,79,c),
(410,111,l),
(358,62,o),
(324,-23,o),
(324,-96,cs)
);
},
{
pos = (-3,0);
ref = _part.nna;
}
);
width = 719;
}
);
metricLeft = iorya;
script = oriya;
subCategory = Spacing;
},
{
category = Letter;
glyphname = nnattaUIorya;
kernRight = kassannaorya;
lastChange = "2023-11-23 07:16:37 +0000";
layers = (
{
anchors = (
{
name = b.tasubscriptorya;
pos = (400,0);
},
{
name = b.uvowelsignorya;
pos = (586,0);
},
{
name = t.candrabinduorya;
pos = (519,657);
},
{
name = t.ivowelsignorya;
pos = (320,657);
}
);
layerId = "6C4C2116-C5E5-460E-80F0-69F45ED98D3F";
shapes = (
{
closed = 1;
nodes = (
(526,163,l),
(586,177,l),
(586,657,l),
(579,664,l),
(519,650,l),
(519,170,l)
);
},
{
pos = (3,0);
ref = _part.nnahalf;
},
{
pos = (654,203);
ref = ttasubscriptorya;
}
);
width = 712;
},
{
anchors = (
{
name = b.tasubscriptorya;
pos = (423,0);
},
{
name = b.uvowelsignorya;
pos = (634,0);
},
{
name = t.candrabinduorya;
pos = (514,657);
},
{
name = t.ivowelsignorya;
pos = (339,657);
}
);
layerId = "D0F0E2C3-3B53-4823-9924-A34C50245C28";
shapes = (
{
closed = 1;
nodes = (
(521,140,l),
(634,167,l),
(634,657,l),
(627,664,l),
(514,637,l),
(514,147,l)
);
},
{
pos = (-3,0);
ref = _part.nnahalf;
},
{
pos = (715,203);
ref = ttasubscriptorya;
}
);
width = 774;
}
);
metricLeft = iorya;
script = oriya;
subCategory = Spacing;
},
{
category = Letter;
glyphname = nnattaorya;
kernRight = nnattaorya;
lastChange = "2023-11-23 07:16:47 +0000";
layers = (
{
anchors = (
{
name = b.tasubscriptorya;
pos = (400,0);
},
{
name = b.uvowelsignorya;
pos = (587,0);
},
{
name = t.candrabinduorya;
pos = (520,657);
},
{
name = t.ivowelsignorya;
pos = (321,657);
}
);
layerId = "6C4C2116-C5E5-460E-80F0-69F45ED98D3F";
shapes = (
{
closed = 1;
nodes = (
(527,93,l),
(587,107,l),
(587,657,l),
(580,664,l),
(520,650,l),
(520,100,l)
);
},
{
pos = (669,145);
ref = ttasubscriptorya;
},
{
pos = (3,0);
ref = _part.nnahalf;
}
);
width = 723;
},
{
anchors = (
{
name = b.tasubscriptorya;
pos = (432,0);
},
{
name = b.uvowelsignorya;
pos = (643,0);
},
{
name = t.candrabinduorya;
pos = (523,657);
},
{
name = t.ivowelsignorya;
pos = (348,657);
}
);
layerId = "D0F0E2C3-3B53-4823-9924-A34C50245C28";
shapes = (
{
closed = 1;
nodes = (
(530,80,l),
(643,107,l),
(643,657,l),
(636,664,l),
(523,637,l),
(523,87,l)
);
},
{
pos = (724,145);
ref = ttasubscriptorya;
},
{
pos = (-3,0);
ref = _part.nnahalf;
}
);
width = 779;
}
);
metricLeft = iorya;
script = oriya;
subCategory = Spacing;
},
{
category = Letter;
glyphname = nnatthaUIorya;
kernRight = nnattaorya;
lastChange = "2023-11-23 07:16:54 +0000";
layers = (
{
anchors = (
{
name = b.tasubscriptorya;
pos = (400,0);
},
{
name = b.uvowelsignorya;
pos = (587,0);
},
{
name = t.candrabinduorya;
pos = (520,657);
},
{
name = t.ivowelsignorya;
pos = (325,657);
}
);
layerId = "6C4C2116-C5E5-460E-80F0-69F45ED98D3F";
shapes = (
{
closed = 1;
nodes = (
(527,113,l),
(587,113,l),
(587,657,l),
(580,664,l),
(520,650,l),
(520,120,l)
);
},
{
pos = (3,0);
ref = _part.nnahalf;
},
{
pos = (618,159);
ref = tthasubscriptorya;
}
);
width = 664;
},
{
anchors = (
{
name = b.tasubscriptorya;
pos = (432,0);
},
{
name = b.uvowelsignorya;
pos = (643,0);
},
{
name = t.candrabinduorya;
pos = (523,657);
},
{
name = t.ivowelsignorya;
pos = (348,657);
}
);
layerId = "D0F0E2C3-3B53-4823-9924-A34C50245C28";
shapes = (
{
closed = 1;
nodes = (
(530,80,l),
(643,107,l),
(643,663,l),
(636,670,l),
(523,643,l),
(523,87,l)
);
},
{
pos = (-3,0);
ref = _part.nnahalf;
},
{
pos = (682,159);
ref = tthasubscriptorya;
}
);
width = 709;
}
);
metricLeft = iorya;
script = oriya;
subCategory = Spacing;
},
{
category = Letter;
glyphname = nnatthaorya;
kernRight = nnattaorya;
lastChange = "2021-07-22 08:03:50 +0000";
layers = (
{
anchors = (
{
name = b.tasubscriptorya;
pos = (400,0);
},
{
name = b.uvowelsignorya;
pos = (587,0);
},
{
name = t.candrabinduorya;
pos = (520,657);
},
{
name = t.ivowelsignorya;
pos = (325,657);
}
);
layerId = "6C4C2116-C5E5-460E-80F0-69F45ED98D3F";
shapes = (
{
closed = 1;
nodes = (
(527,73,l),
(587,87,l),
(587,657,l),
(580,664,l),
(520,650,l),
(520,80,l)
);
},
{
pos = (3,0);
ref = _part.nnahalf;
},
{
pos = (641,100);
ref = tthasubscriptorya;
}
);
width = 674;
},
{
anchors = (
{
name = b.tasubscriptorya;
pos = (432,0);
},
{
name = b.uvowelsignorya;
pos = (643,0);
},
{
name = t.candrabinduorya;
pos = (523,657);
},
{
name = t.ivowelsignorya;
pos = (348,657);
}
);
layerId = "D0F0E2C3-3B53-4823-9924-A34C50245C28";
shapes = (
{
closed = 1;
nodes = (
(529,40,l),
(642,67,l),
(642,657,l),
(635,664,l),
(522,637,l),
(522,47,l)
);
},
{
pos = (-3,0);
ref = _part.nnahalf;
},
{
pos = (699,99);
ref = tthasubscriptorya;
}
);
width = 710;
}
);
metricLeft = iorya;
script = oriya;
subCategory = Spacing;
},
{
category = Letter;
glyphname = nyacaorya;
lastChange = "2021-07-22 07:42:59 +0000";
layers = (
{
anchors = (
{
name = b.uvowelsignorya;
pos = (555,0);
},
{
name = t.candrabinduorya;
pos = (488,657);
},
{
name = t.ivowelsignorya;
pos = (303,657);
}
);
layerId = "6C4C2116-C5E5-460E-80F0-69F45ED98D3F";
shapes = (
{
closed = 1;
nodes = (
(177,506,o),
(194,456,o),
(210,422,c),
(284,444,l),
(258,489,o),
(243,528,o),
(243,561,cs),
(243,586,o),
(261,607,o),
(284,607,cs),
(325,607,o),
(354,565,o),
(354,509,cs),
(354,437,l),
(360,430,l),
(417,449,l),
(417,560,ls),
(417,590,o),
(431,606,o),
(450,606,cs),
(486,606,o),
(521,557,o),
(521,479,cs),
(521,409,o),
(465,370,o),
(378,351,c),
(435,309,l),
(525,341,o),
(586,408,o),
(586,496,cs),
(586,601,o),
(533,667,o),
(473,667,cs),
(431,667,o),
(392,638,o),
(374,599,c),
(403,577,l),
(391,631,o),
(348,667,o),
(298,667,cs),
(236,667,o),
(177,610,o),
(177,545,cs)
);
},
{
closed = 1;
nodes = (
(32,389,o),
(69,340,o),
(151,304,c),
(221,349,l),
(139,372,o),
(97,414,o),
(97,468,cs),
(97,510,o),
(114,565,o),
(151,638,c),
(106,665,l),
(58,588,o),
(32,517,o),
(32,450,cs)
);
},
{
closed = 1;
nodes = (
(103,31,o),
(162,-10,o),
(266,-10,cs),
(363,-10,o),
(474,27,o),
(529,99,c),
(529,158,l),
(469,83,o),
(356,53,o),
(277,53,cs),
(209,53,o),
(170,73,o),
(170,98,cs),
(170,122,o),
(197,140,o),
(264,156,cs),
(310,167,ls),
(375,183,o),
(443,209,o),
(443,277,cs),
(443,335,o),
(383,374,o),
(292,374,cs),
(210,374,o),
(130,343,o),
(130,280,cs),
(130,263,o),
(136,245,o),
(143,228,c),
(206,242,l),
(198,257,o),
(194,271,o),
(194,280,cs),
(194,313,o),
(241,321,o),
(280,321,cs),
(342,321,o),
(377,300,o),
(377,271,cs),
(377,242,o),
(346,230,o),
(283,215,cs),
(244,206,ls),
(168,188,o),
(103,158,o),
(103,93,cs)
);
},
{
closed = 1;
nodes = (
(495,-7,l),
(555,7,l),
(555,403,l),
(548,410,l),
(499,386,l),
(489,356,o),
(488,311,o),
(488,270,cs),
(488,0,l)
);
}
);
width = 621;
},
{
anchors = (
{
name = b.uvowelsignorya;
pos = (642,0);
},
{
name = t.candrabinduorya;
pos = (523,657);
},
{
name = t.ivowelsignorya;
pos = (335,657);
}
);
layerId = "D0F0E2C3-3B53-4823-9924-A34C50245C28";
shapes = (
{
closed = 1;
nodes = (
(193,484,o),
(206,447,o),
(218,421,c),
(325,449,l),
(306,480,o),
(290,512,o),
(290,542,cs),
(290,558,o),
(300,570,o),
(318,570,cs),
(347,570,o),
(381,546,o),
(381,470,cs),
(381,436,l),
(388,429,l),
(467,450,l),
(467,512,ls),
(467,544,o),
(479,564,o),
(499,564,cs),
(532,564,o),
(556,510,o),
(556,456,cs),
(556,389,o),
(491,360,o),
(390,359,c),
(388,280,l),
(579,300,o),
(660,353,o),
(660,497,cs),
(660,598,o),
(612,667,o),
(543,667,cs),
(488,667,o),
(437,626,o),
(424,576,c),
(444,565,l),
(436,636,o),
(393,667,o),
(345,667,cs),
(267,667,o),
(193,602,o),
(193,522,cs)
);
},
{
closed = 1;
nodes = (
(27,360,o),
(85,305,o),
(193,280,c),
(240,366,l),
(163,385,o),
(122,424,o),
(122,471,cs),
(122,512,o),
(144,559,o),
(199,631,c),
(145,666,l),
(76,589,o),
(27,510,o),
(27,438,cs)
);
},
{
closed = 1;
nodes = (
(92,24,o),
(180,-10,o),
(293,-10,cs),
(459,-10,o),
(576,68,o),
(612,167,c),
(570,211,l),
(523,136,o),
(428,81,o),
(308,81,cs),
(257,81,o),
(213,90,o),
(213,110,cs),
(213,122,o),
(233,132,o),
(293,145,cs),
(330,153,ls),
(409,170,o),
(478,201,o),
(478,270,cs),
(478,336,o),
(410,378,o),
(308,378,cs),
(198,378,o),
(114,330,o),
(114,264,cs),
(114,250,o),
(117,233,o),
(123,216,c),
(234,241,l),
(230,251,o),
(228,263,o),
(228,269,cs),
(228,290,o),
(256,300,o),
(298,300,cs),
(345,300,o),
(379,283,o),
(379,262,cs),
(379,242,o),
(355,228,o),
(269,210,cs),
(241,204,ls),
(164,187,o),
(92,158,o),
(92,94,cs)
);
},
{
closed = 1;
nodes = (
(530,-7,l),
(643,20,l),
(643,477,l),
(636,484,l),
(544,396,l),
(532,359,o),
(523,322,o),
(523,258,cs),
(523,0,l)
);
}
);
width = 693;
}
);
metricLeft = iorya;
script = oriya;
subCategory = Spacing;
},
{
category = Letter;
glyphname = nyachaorya;
lastChange = "2021-07-21 16:09:18 +0000";
layers = (
{
anchors = (
{
name = b.tasubscriptorya;
pos = (313,0);
},
{
name = b.uvowelsignorya;
pos = (524,0);
},
{
name = t.candrabinduorya;
pos = (450,657);
},
{
name = t.ivowelsignorya;
pos = (293,657);
}
);
layerId = "6C4C2116-C5E5-460E-80F0-69F45ED98D3F";
shapes = (
{
closed = 1;
nodes = (
(464,27,l),
(524,41,l),
(524,383,l),
(517,390,l),
(468,372,l),
(458,342,o),
(457,297,o),
(457,256,cs),
(457,34,l)
);
},
{
closed = 1;
nodes = (
(35,407,o),
(67,365,o),
(140,337,c),
(210,382,l),
(129,399,o),
(99,431,o),
(99,477,cs),
(99,516,o),
(116,568,o),
(154,638,c),
(109,665,l),
(61,591,o),
(35,523,o),
(35,463,cs)
);
},
{
closed = 1;
nodes = (
(170,509,o),
(183,464,o),
(195,432,c),
(269,454,l),
(248,496,o),
(236,531,o),
(236,561,cs),
(236,586,o),
(254,607,o),
(277,607,cs),
(318,607,o),
(347,565,o),
(347,509,cs),
(347,443,l),
(353,436,l),
(410,455,l),
(410,560,ls),
(410,590,o),
(424,606,o),
(443,606,cs),
(478,606,o),
(511,546,o),
(511,482,cs),
(511,403,o),
(439,378,o),
(332,365,c),
(389,317,l),
(509,346,o),
(576,404,o),
(576,499,cs),
(576,599,o),
(526,667,o),
(465,667,cs),
(423,667,o),
(385,638,o),
(367,599,c),
(396,577,l),
(384,631,o),
(341,667,o),
(291,667,cs),
(229,667,o),
(170,610,o),
(170,545,cs)
);
},
{
closed = 1;
nodes = (
(59,61,o),
(118,20,o),
(222,20,cs),
(319,20,o),
(430,57,o),
(485,129,c),
(485,188,l),
(425,111,o),
(312,81,o),
(233,81,cs),
(165,81,o),
(126,102,o),
(126,128,cs),
(126,152,o),
(153,170,o),
(220,186,cs),
(266,197,ls),
(331,213,o),
(399,239,o),
(399,307,cs),
(399,365,o),
(339,404,o),
(248,404,cs),
(166,404,o),
(86,373,o),
(86,310,cs),
(86,293,o),
(92,275,o),
(99,258,c),
(162,272,l),
(154,287,o),
(150,301,o),
(150,310,cs),
(150,343,o),
(197,351,o),
(236,351,cs),
(298,351,o),
(333,330,o),
(333,301,cs),
(333,272,o),
(302,260,o),
(239,245,cs),
(200,236,ls),
(124,218,o),
(59,188,o),
(59,123,cs)
);
},
{
pos = (565,42);
ref = thasubscriptorya;
}
);
width = 593;
},
{
anchors = (
{
name = b.tasubscriptorya;
pos = (348,0);
},
{
name = b.uvowelsignorya;
pos = (594,0);
},
{
name = t.candrabinduorya;
pos = (482,657);
},
{
name = t.ivowelsignorya;
pos = (329,657);
}
);
layerId = "D0F0E2C3-3B53-4823-9924-A34C50245C28";
shapes = (
{
closed = 1;
nodes = (
(482,37,l),
(595,64,l),
(595,460,l),
(588,467,l),
(496,368,l),
(484,334,o),
(475,298,o),
(475,250,cs),
(475,44,l)
);
},
{
closed = 1;
nodes = (
(22,386,o),
(55,335,o),
(117,304,c),
(184,382,l),
(140,405,o),
(117,443,o),
(117,480,cs),
(117,521,o),
(133,559,o),
(173,631,c),
(119,666,l),
(62,589,o),
(22,519,o),
(22,447,cs)
);
},
{
closed = 1;
nodes = (
(171,490,o),
(180,459,o),
(189,437,c),
(296,465,l),
(281,491,o),
(268,517,o),
(268,542,cs),
(268,558,o),
(278,570,o),
(296,570,cs),
(325,570,o),
(359,546,o),
(359,470,cs),
(359,458,l),
(366,451,l),
(445,472,l),
(445,512,ls),
(445,544,o),
(457,564,o),
(477,564,cs),
(510,564,o),
(534,517,o),
(534,463,cs),
(534,396,o),
(469,360,o),
(368,359,c),
(366,280,l),
(557,303,o),
(638,353,o),
(638,497,cs),
(638,598,o),
(587,667,o),
(518,667,cs),
(462,667,o),
(422,626,o),
(397,576,c),
(422,565,l),
(414,636,o),
(371,667,o),
(323,667,cs),
(245,667,o),
(171,602,o),
(171,522,cs)
);
},
{
closed = 1;
nodes = (
(59,66,o),
(140,29,o),
(245,29,cs),
(404,29,o),
(516,113,o),
(550,220,c),
(508,264,l),
(464,181,o),
(374,120,o),
(260,120,cs),
(217,120,o),
(180,132,o),
(180,157,cs),
(180,166,o),
(196,173,o),
(245,184,cs),
(282,192,ls),
(349,206,o),
(430,240,o),
(430,309,cs),
(430,375,o),
(362,417,o),
(260,417,cs),
(156,417,o),
(76,369,o),
(76,303,cs),
(76,289,o),
(79,272,o),
(85,255,c),
(196,280,l),
(192,290,o),
(190,302,o),
(190,308,cs),
(190,329,o),
(214,339,o),
(250,339,cs),
(297,339,o),
(331,322,o),
(331,301,cs),
(331,281,o),
(307,267,o),
(221,249,cs),
(193,243,ls),
(123,228,o),
(59,200,o),
(59,141,cs)
);
},
{
pos = (616,42);
ref = thasubscriptorya;
}
);
width = 658;
}
);
script = oriya;
subCategory = Spacing;
},
{
category = Letter;
glyphname = nyajaorya;
lastChange = "2021-07-28 11:34:08 +0000";
layers = (
{
anchors = (
{
name = b.uvowelsignorya;
pos = (728,0);
},
{
name = t.candrabinduorya;
pos = (636,657);
},
{
name = t.ivowelsignorya;
pos = (375,657);
}
);
layerId = "6C4C2116-C5E5-460E-80F0-69F45ED98D3F";
shapes = (
{
closed = 1;
nodes = (
(65,53,o),
(172,-10,o),
(315,-10,cs),
(450,-10,o),
(534,40,o),
(534,108,cs),
(534,176,o),
(446,194,o),
(356,201,c),
(352,181,l),
(422,204,o),
(489,235,o),
(489,300,cs),
(489,352,o),
(436,389,o),
(363,389,cs),
(291,389,o),
(232,352,o),
(232,301,cs),
(232,287,o),
(236,269,o),
(242,255,c),
(304,265,l),
(298,279,o),
(294,290,o),
(294,301,cs),
(294,323,o),
(319,335,o),
(356,335,cs),
(398,335,o),
(428,315,o),
(428,294,cs),
(428,261,o),
(368,231,o),
(281,205,c),
(268,167,l),
(274,152,l),
(334,154,o),
(472,139,o),
(472,104,cs),
(472,76,o),
(411,53,o),
(327,53,cs),
(214,53,o),
(132,100,o),
(132,186,cs),
(132,238,o),
(148,299,o),
(187,370,c),
(138,388,l),
(94,312,o),
(65,231,o),
(65,173,cs)
);
},
{
closed = 1;
nodes = (
(161,519,o),
(176,475,o),
(190,450,c),
(253,483,l),
(240,508,o),
(228,540,o),
(228,561,cs),
(228,589,o),
(242,607,o),
(265,607,cs),
(304,607,o),
(331,565,o),
(331,509,cs),
(331,462,l),
(337,455,l),
(394,474,l),
(394,571,ls),
(394,593,o),
(407,606,o),
(424,606,cs),
(462,606,o),
(494,553,o),
(494,470,cs),
(494,420,o),
(431,391,o),
(365,381,c),
(405,336,l),
(493,355,o),
(559,405,o),
(559,486,cs),
(559,597,o),
(510,667,o),
(447,667,cs),
(411,667,o),
(376,645,o),
(352,610,c),
(380,577,l),
(368,631,o),
(327,667,o),
(279,667,cs),
(217,667,o),
(161,615,o),
(161,550,cs)
);
},
{
closed = 1;
nodes = (
(581,326,l),
(616,341,o),
(651,360,o),
(685,384,c),
(661,389,l),
(661,0,l),
(668,-7,l),
(728,7,l),
(728,469,l),
(713,479,l),
(664,441,o),
(611,404,o),
(556,370,c)
);
},
{
closed = 1;
nodes = (
(32,401,o),
(106,350,o),
(255,327,c),
(311,376,l),
(166,392,o),
(97,432,o),
(97,495,cs),
(97,533,o),
(117,584,o),
(145,638,c),
(100,665,l),
(60,595,o),
(32,540,o),
(32,483,cs)
);
}
);
width = 783;
},
{
anchors = (
{
name = b.uvowelsignorya;
pos = (880,0);
},
{
name = t.candrabinduorya;
pos = (699,657);
},
{
name = t.ivowelsignorya;
pos = (374,657);
}
);
layerId = "D0F0E2C3-3B53-4823-9924-A34C50245C28";
shapes = (
{
closed = 1;
nodes = (
(68,62,o),
(169,-10,o),
(343,-10,cs),
(507,-10,o),
(615,47,o),
(615,125,cs),
(615,195,o),
(531,221,o),
(462,225,c),
(455,206,l),
(520,225,o),
(582,260,o),
(582,323,cs),
(582,383,o),
(511,429,o),
(423,429,cs),
(340,429,o),
(252,384,o),
(252,305,cs),
(252,287,o),
(255,268,o),
(262,249,c),
(357,272,l),
(350,289,o),
(348,302,o),
(348,311,cs),
(348,329,o),
(369,345,o),
(408,345,cs),
(455,345,o),
(479,326,o),
(479,306,cs),
(479,270,o),
(412,244,o),
(341,229,c),
(313,163,l),
(321,157,l),
(450,158,o),
(510,132,o),
(510,117,cs),
(510,102,o),
(431,94,o),
(372,94,cs),
(220,94,o),
(169,161,o),
(169,230,cs),
(169,281,o),
(190,328,o),
(230,378,c),
(144,398,l),
(118,345,o),
(68,265,o),
(68,194,cs)
);
},
{
closed = 1;
nodes = (
(182,488,o),
(191,459,o),
(200,437,c),
(311,465,l),
(296,491,o),
(283,517,o),
(283,542,cs),
(283,558,o),
(293,570,o),
(311,570,cs),
(340,570,o),
(374,546,o),
(374,470,cs),
(374,458,l),
(381,451,l),
(460,472,l),
(460,512,ls),
(460,544,o),
(472,564,o),
(492,564,cs),
(525,564,o),
(549,514,o),
(549,465,cs),
(549,433,o),
(525,413,o),
(482,404,c),
(519,330,l),
(616,358,o),
(657,406,o),
(657,493,cs),
(657,598,o),
(607,667,o),
(536,667,cs),
(481,667,o),
(430,626,o),
(417,576,c),
(437,565,l),
(428,636,o),
(386,667,o),
(336,667,cs),
(258,667,o),
(182,602,o),
(182,518,cs)
);
},
{
closed = 1;
nodes = (
(660,269,l),
(708,288,o),
(756,311,o),
(803,341,c),
(760,378,l),
(760,0,l),
(767,-7,l),
(880,20,l),
(880,477,l),
(865,487,l),
(790,437,o),
(707,388,o),
(623,344,c)
);
},
{
closed = 1;
nodes = (
(27,328,o),
(161,294,o),
(309,308,c),
(341,383,l),
(247,381,o),
(122,398,o),
(122,491,cs),
(122,525,o),
(134,562,o),
(181,628,c),
(113,666,l),
(62,592,o),
(27,525,o),
(27,463,cs)
);
}
);
width = 934;
}
);
metricLeft = iorya;
script = oriya;
subCategory = Spacing;
},
{
category = Letter;
glyphname = nyajhaorya;
kernRight = nyajhaorya;
lastChange = "2021-07-22 08:04:08 +0000";
layers = (
{
anchors = (
{
name = b.tasubscriptorya;
pos = (380,0);
},
{
name = b.uvowelsignorya;
pos = (552,0);
},
{
name = t.candrabinduorya;
pos = (527,657);
},
{
name = t.ivowelsignorya;
pos = (359,657);
}
);
layerId = "6C4C2116-C5E5-460E-80F0-69F45ED98D3F";
shapes = (
{
closed = 1;
nodes = (
(525,328,l),
(548,366,o),
(614,448,o),
(715,564,c),
(661,607,l),
(578,495,o),
(521,392,o),
(499,328,c)
);
},
{
closed = 1;
nodes = (
(509,345,l),
(561,254,o),
(605,158,o),
(650,58,c),
(712,95,l),
(652,200,o),
(589,302,o),
(524,402,c)
);
},
{
ref = nyacaorya;
}
);
width = 720;
},
{
anchors = (
{
name = b.tasubscriptorya;
pos = (395,0);
},
{
name = b.uvowelsignorya;
pos = (641,0);
},
{
name = t.candrabinduorya;
pos = (595,657);
},
{
name = t.ivowelsignorya;
pos = (399,657);
}
);
layerId = "D0F0E2C3-3B53-4823-9924-A34C50245C28";
shapes = (
{
closed = 1;
nodes = (
(615,298,l),
(638,338,o),
(703,425,o),
(802,544,c),
(729,606,l),
(652,488,o),
(598,378,o),
(578,311,c)
);
},
{
closed = 1;
nodes = (
(564,331,l),
(620,243,o),
(666,150,o),
(712,53,c),
(804,111,l),
(742,205,o),
(677,298,o),
(605,387,c)
);
},
{
ref = nyacaorya;
}
);
width = 795;
}
);
metricLeft = iorya;
script = oriya;
subCategory = Spacing;
},
{
category = Letter;
glyphname = omorya;
lastChange = "2021-07-28 10:48:20 +0000";
layers = (
{
layerId = "6C4C2116-C5E5-460E-80F0-69F45ED98D3F";
shapes = (
{
closed = 1;
nodes = (
(35,167,o),
(162,-10,o),
(385,-10,cs),
(539,-10,o),
(646,70,o),
(646,184,cs),
(646,247,o),
(615,291,o),
(554,319,cs),
(520,334,o),
(481,341,o),
(437,347,c),
(439,328,l),
(485,347,o),
(522,370,o),
(550,395,cs),
(593,434,o),
(611,475,o),
(611,521,cs),
(611,606,o),
(545,667,o),
(457,667,cs),
(366,667,o),
(292,600,o),
(292,519,cs),
(292,495,o),
(299,470,o),
(311,447,c),
(376,473,l),
(365,493,o),
(359,516,o),
(359,533,cs),
(359,574,o),
(395,601,o),
(444,601,cs),
(503,601,o),
(545,563,o),
(545,512,cs),
(545,484,o),
(533,456,o),
(510,434,cs),
(493,418,o),
(468,401,o),
(434,382,cs),
(406,367,o),
(381,356,o),
(359,347,c),
(341,303,l),
(350,292,l),
(382,292,o),
(413,289,o),
(437,285,cs),
(534,270,o),
(578,232,o),
(578,176,cs),
(578,107,o),
(501,55,o),
(392,55,cs),
(212,55,o),
(107,202,o),
(107,433,cs),
(107,679,o),
(230,795,o),
(337,795,cs),
(379,795,o),
(417,778,o),
(474,743,cs),
(536,705,o),
(575,684,o),
(635,684,cs),
(706,684,o),
(765,725,o),
(820,849,c),
(789,864,l),
(748,794,o),
(707,749,o),
(643,749,cs),
(595,749,o),
(555,773,o),
(514,798,cs),
(469,826,o),
(413,860,o),
(342,860,cs),
(176,860,o),
(35,678,o),
(35,419,cs)
);
},
{
closed = 1;
nodes = (
(609,843,o),
(628,826,o),
(646,805,c),
(699,863,l),
(680,884,o),
(662,900,o),
(642,916,c),
(588,858,l)
);
}
);
width = 695;
},
{
layerId = "D0F0E2C3-3B53-4823-9924-A34C50245C28";
shapes = (
{
closed = 1;
nodes = (
(28,115,o),
(181,-10,o),
(382,-10,cs),
(557,-10,o),
(656,82,o),
(656,202,cs),
(656,270,o),
(617,308,o),
(581,330,cs),
(551,348,o),
(513,356,o),
(471,360,c),
(467,342,l),
(510,356,o),
(540,374,o),
(559,390,cs),
(605,429,o),
(621,475,o),
(621,518,cs),
(621,603,o),
(550,667,o),
(450,667,cs),
(360,667,o),
(260,606,o),
(260,504,cs),
(260,484,o),
(265,461,o),
(277,434,c),
(380,475,l),
(373,492,o),
(369,509,o),
(369,522,cs),
(369,550,o),
(396,563,o),
(429,563,cs),
(487,563,o),
(513,528,o),
(513,492,cs),
(513,473,o),
(506,462,o),
(494,448,cs),
(484,436,o),
(469,425,o),
(446,411,cs),
(415,392,o),
(371,375,o),
(336,365,c),
(305,287,l),
(314,276,l),
(351,276,o),
(387,274,o),
(419,269,cs),
(494,257,o),
(550,232,o),
(550,189,cs),
(550,138,o),
(478,111,o),
(413,111,cs),
(224,111,o),
(135,265,o),
(135,423,cs),
(135,640,o),
(244,754,o),
(366,754,cs),
(415,754,o),
(448,743,o),
(525,710,cs),
(598,678,o),
(635,667,o),
(672,667,cs),
(765,667,o),
(826,734,o),
(876,856,c),
(837,879,l),
(794,821,o),
(764,777,o),
(696,777,cs),
(662,777,o),
(628,786,o),
(560,819,cs),
(490,852,o),
(441,871,o),
(381,871,cs),
(177,871,o),
(28,634,o),
(28,403,cs)
);
},
{
closed = 1;
nodes = (
(648,843,o),
(667,826,o),
(685,805,c),
(738,863,l),
(719,884,o),
(701,900,o),
(681,916,c),
(627,858,l)
);
}
);
width = 695;
}
);
metricLeft = aicandrabinduorya;
script = oriya;
subCategory = Spacing;
},
{
category = Letter;
glyphname = pataUIorya;
kernRight = nyajhaorya;
lastChange = "2021-07-22 07:42:59 +0000";
layers = (
{
anchors = (
{
name = b.uvowelsignorya;
pos = (585,0);
},
{
name = t.ivowelsignorya;
pos = (322,657);
}
);
layerId = "6C4C2116-C5E5-460E-80F0-69F45ED98D3F";
shapes = (
{
closed = 1;
nodes = (
(578,77,l),
(578,657,l),
(571,664,l),
(511,650,l),
(511,77,l)
);
},
{
pos = (-2,0);
ref = _part.pahalf;
},
{
pos = (652,116);
ref = tasubscriptorya;
}
);
width = 648;
},
{
anchors = (
{
name = b.uvowelsignorya;
pos = (646,0);
},
{
name = t.ivowelsignorya;
pos = (349,657);
}
);
layerId = "D0F0E2C3-3B53-4823-9924-A34C50245C28";
shapes = (
{
closed = 1;
nodes = (
(646,34,l),
(646,657,l),
(639,664,l),
(526,637,l),
(526,34,l)
);
},
{
pos = (-5,0);
ref = _part.pahalf;
},
{
pos = (703,116);
ref = tasubscriptorya;
}
);
width = 702;
}
);
metricLeft = iorya;
script = oriya;
subCategory = Spacing;
},
{
category = Letter;
glyphname = sakhaUIorya;
kernRight = kassannaorya;
lastChange = "2021-07-22 08:05:43 +0000";
layers = (
{
anchors = (
{
name = b.tasubscriptorya;
pos = (397,0);
},
{
name = b.uvowelsignorya;
pos = (585,0);
},
{
name = t.candrabinduorya;
pos = (516,657);
},
{
name = t.ivowelsignorya;
pos = (322,657);
}
);
layerId = "6C4C2116-C5E5-460E-80F0-69F45ED98D3F";
shapes = (
{
closed = 1;
nodes = (
(573,185,l),
(583,185,l),
(583,657,l),
(576,664,l),
(516,650,l),
(516,184,l)
);
},
{
pos = (1,0);
ref = _part.sa;
},
{
pos = (683,203);
ref = khasubscriptorya;
}
);
width = 714;
},
{
anchors = (
{
name = b.tasubscriptorya;
pos = (432,0);
},
{
name = b.uvowelsignorya;
pos = (782,0);
},
{
name = t.candrabinduorya;
pos = (523,657);
},
{
name = t.ivowelsignorya;
pos = (348,657);
}
);
layerId = "D0F0E2C3-3B53-4823-9924-A34C50245C28";
shapes = (
{
closed = 1;
nodes = (
(636,187,l),
(643,196,l),
(643,657,l),
(636,664,l),
(523,637,l),
(523,188,l)
);
},
{
pos = (-5,0);
ref = _part.sa;
},
{
pos = (740,203);
ref = khasubscriptorya;
}
);
width = 794;
}
);
metricLeft = iorya;
script = oriya;
subCategory = Spacing;
},
{
category = Letter;
glyphname = sakhaorya;
kernRight = nnaddhaorya;
lastChange = "2021-07-22 08:05:45 +0000";
layers = (
{
anchors = (
{
name = b.tasubscriptorya;
pos = (397,0);
},
{
name = b.uvowelsignorya;
pos = (574,0);
},
{
name = t.candrabinduorya;
pos = (516,657);
},
{
name = t.ivowelsignorya;
pos = (322,657);
}
);
layerId = "6C4C2116-C5E5-460E-80F0-69F45ED98D3F";
shapes = (
{
closed = 1;
nodes = (
(571,125,l),
(583,125,l),
(583,657,l),
(576,664,l),
(516,650,l),
(516,125,l)
);
},
{
pos = (1,0);
ref = _part.sa;
},
{
pos = (687,146);
ref = khasubscriptorya;
}
);
width = 706;
},
{
anchors = (
{
name = b.tasubscriptorya;
pos = (430,0);
},
{
name = b.uvowelsignorya;
pos = (780,0);
},
{
name = t.candrabinduorya;
pos = (521,657);
},
{
name = t.ivowelsignorya;
pos = (346,657);
}
);
layerId = "D0F0E2C3-3B53-4823-9924-A34C50245C28";
shapes = (
{
closed = 1;
nodes = (
(629,123,l),
(641,139,l),
(641,657,l),
(634,664,l),
(521,637,l),
(521,128,l)
);
},
{
pos = (-5,0);
ref = _part.sa;
},
{
pos = (738,146);
ref = khasubscriptorya;
}
);
width = 783;
}
);
metricLeft = iorya;
script = oriya;
subCategory = Spacing;
},
{
category = Letter;
glyphname = sapaUIorya;
lastChange = "2021-07-22 07:42:59 +0000";
layers = (
{
anchors = (
{
name = b.uvowelsignorya;
pos = (583,0);
},
{
name = t.ivowelsignorya;
pos = (319,657);
}
);
layerId = "6C4C2116-C5E5-460E-80F0-69F45ED98D3F";
shapes = (
{
closed = 1;
nodes = (
(571,125,l),
(583,125,l),
(583,657,l),
(576,664,l),
(516,650,l),
(516,125,l)
);
},
{
closed = 1;
nodes = (
(101,106,l),
(159,97,o),
(216,85,o),
(271,69,c),
(289,136,l),
(234,149,o),
(178,160,o),
(123,166,c),
(159,144,l),
(192,210,o),
(244,279,o),
(299,338,c),
(261,379,l),
(193,307,o),
(141,246,o),
(81,137,c)
);
},
{
closed = 1;
nodes = (
(32,349,o),
(73,272,o),
(143,217,c),
(184,291,l),
(132,326,o),
(100,380,o),
(100,443,cs),
(100,527,o),
(164,601,o),
(289,601,cs),
(404,601,o),
(508,535,o),
(536,419,c),
(571,470,l),
(550,585,o),
(435,667,o),
(296,667,cs),
(135,667,o),
(32,554,o),
(32,431,cs)
);
},
{
pos = (560,318);
ref = pasubscriptloworya;
}
);
width = 644;
},
{
anchors = (
{
name = b.uvowelsignorya;
pos = (641,0);
},
{
name = t.ivowelsignorya;
pos = (340,657);
}
);
layerId = "D0F0E2C3-3B53-4823-9924-A34C50245C28";
shapes = (
{
closed = 1;
nodes = (
(634,157,l),
(641,166,l),
(641,657,l),
(634,664,l),
(521,637,l),
(521,158,l)
);
},
{
closed = 1;
nodes = (
(77,87,l),
(159,70,o),
(240,49,o),
(321,25,c),
(357,143,l),
(293,160,o),
(229,174,o),
(163,185,c),
(181,164,l),
(194,196,o),
(228,250,o),
(315,337,c),
(268,386,l),
(155,284,o),
(88,188,o),
(59,126,c)
);
},
{
closed = 1;
nodes = (
(27,309,o),
(69,239,o),
(155,180,c),
(244,294,l),
(173,314,o),
(127,367,o),
(127,427,cs),
(127,497,o),
(189,546,o),
(285,546,cs),
(398,546,o),
(502,481,o),
(550,381,c),
(597,510,l),
(549,604,o),
(432,667,o),
(308,667,cs),
(145,667,o),
(27,549,o),
(27,399,cs)
);
},
{
pos = (598,318);
ref = pasubscriptloworya;
}
);
width = 697;
}
);
metricLeft = iorya;
metricRight = aorya;
script = oriya;
subCategory = Spacing;
},
{
category = Letter;
glyphname = sapaorya;
lastChange = "2021-07-22 07:42:59 +0000";
layers = (
{
anchors = (
{
name = b.uvowelsignorya;
pos = (583,0);
},
{
name = t.ivowelsignorya;
pos = (322,657);
}
);
layerId = "6C4C2116-C5E5-460E-80F0-69F45ED98D3F";
shapes = (
{
closed = 1;
nodes = (
(32,349,o),
(73,272,o),
(143,217,c),
(184,291,l),
(132,326,o),
(100,380,o),
(100,443,cs),
(100,527,o),
(164,601,o),
(289,601,cs),
(404,601,o),
(508,535,o),
(536,419,c),
(571,470,l),
(550,585,o),
(435,667,o),
(296,667,cs),
(135,667,o),
(32,554,o),
(32,431,cs)
);
},
{
closed = 1;
nodes = (
(101,128,l),
(169,114,o),
(236,94,o),
(301,70,c),
(373,121,l),
(289,149,o),
(206,173,o),
(123,184,c),
(159,166,l),
(192,232,o),
(244,301,o),
(299,360,c),
(261,401,l),
(193,329,o),
(141,268,o),
(81,159,c)
);
},
{
closed = 1;
nodes = (
(571,26,l),
(583,32,l),
(583,657,l),
(576,664,l),
(516,650,l),
(516,26,l)
);
},
{
pos = (560,260);
ref = pasubscriptloworya;
}
);
width = 644;
},
{
anchors = (
{
name = b.uvowelsignorya;
pos = (641,0);
},
{
name = t.ivowelsignorya;
pos = (346,657);
}
);
layerId = "D0F0E2C3-3B53-4823-9924-A34C50245C28";
shapes = (
{
closed = 1;
nodes = (
(27,309,o),
(69,239,o),
(155,180,c),
(244,294,l),
(173,314,o),
(127,367,o),
(127,427,cs),
(127,497,o),
(189,546,o),
(285,546,cs),
(398,546,o),
(502,482,o),
(550,383,c),
(597,512,l),
(549,604,o),
(432,667,o),
(308,667,cs),
(145,667,o),
(27,549,o),
(27,399,cs)
);
},
{
closed = 1;
nodes = (
(77,87,l),
(159,68,o),
(240,44,o),
(321,17,c),
(403,132,l),
(318,155,o),
(232,174,o),
(144,189,c),
(181,164,l),
(194,196,o),
(228,250,o),
(315,337,c),
(268,386,l),
(155,284,o),
(88,188,o),
(59,126,c)
);
},
{
closed = 1;
nodes = (
(634,57,l),
(641,66,l),
(641,657,l),
(634,664,l),
(521,637,l),
(521,58,l)
);
},
{
pos = (598,260);
ref = pasubscriptloworya;
}
);
width = 697;
}
);
metricLeft = iorya;
metricRight = aorya;
script = oriya;
subCategory = Spacing;
},
{
category = Letter;
glyphname = saphaUIorya;
lastChange = "2021-07-22 08:05:50 +0000";
layers = (
{
anchors = (
{
name = b.tasubscriptorya;
pos = (402,0);
},
{
name = b.uvowelsignorya;
pos = (584,0);
},
{
name = t.candrabinduorya;
pos = (522,657);
},
{
name = t.ivowelsignorya;
pos = (325,657);
}
);
layerId = "6C4C2116-C5E5-460E-80F0-69F45ED98D3F";
shapes = (
{
closed = 1;
nodes = (
(580,200,o),
(546,152,o),
(546,106,cs),
(546,55,o),
(581,15,o),
(629,15,cs),
(691,15,o),
(723,67,o),
(723,110,cs),
(723,158,o),
(687,200,o),
(634,200,cs)
);
},
{
closed = 1;
nodes = (
(589,139,o),
(603,149,o),
(621,149,cs),
(650,149,o),
(672,125,o),
(672,99,cs),
(672,78,o),
(657,68,o),
(638,68,cs),
(610,68,o),
(589,92,o),
(589,118,cs)
);
},
{
ref = sapaUIorya;
}
);
width = 698;
},
{
anchors = (
{
name = b.tasubscriptorya;
pos = (447,0);
},
{
name = b.uvowelsignorya;
pos = (645,0);
},
{
name = t.candrabinduorya;
pos = (538,657);
},
{
name = t.ivowelsignorya;
pos = (357,657);
}
);
layerId = "D0F0E2C3-3B53-4823-9924-A34C50245C28";
shapes = (
{
closed = 1;
nodes = (
(639,199,o),
(605,151,o),
(605,105,cs),
(605,54,o),
(640,14,o),
(688,14,cs),
(750,14,o),
(782,66,o),
(782,109,cs),
(782,157,o),
(746,199,o),
(693,199,cs)
);
},
{
closed = 1;
nodes = (
(660,129,o),
(670,136,o),
(683,136,cs),
(703,136,o),
(719,119,o),
(719,101,cs),
(719,86,o),
(708,79,o),
(695,79,cs),
(675,79,o),
(660,96,o),
(660,114,cs)
);
},
{
ref = sapaUIorya;
}
);
width = 782;
}
);
metricLeft = iorya;
script = oriya;
subCategory = Spacing;
},
{
category = Letter;
glyphname = saphaorya;
kernRight = ssaphaorya;
lastChange = "2021-07-28 11:30:08 +0000";
layers = (
{
anchors = (
{
name = b.tasubscriptorya;
pos = (396,0);
},
{
name = b.uvowelsignorya;
pos = (585,0);
},
{
name = t.candrabinduorya;
pos = (515,657);
},
{
name = t.ivowelsignorya;
pos = (321,657);
}
);
layerId = "6C4C2116-C5E5-460E-80F0-69F45ED98D3F";
shapes = (
{
closed = 1;
nodes = (
(573,145,o),
(539,97,o),
(539,51,cs),
(539,0,o),
(574,-40,o),
(622,-40,cs),
(684,-40,o),
(716,12,o),
(716,55,cs),
(716,103,o),
(680,145,o),
(627,145,cs)
);
},
{
closed = 1;
nodes = (
(582,84,o),
(596,94,o),
(614,94,cs),
(643,94,o),
(665,70,o),
(665,44,cs),
(665,23,o),
(650,13,o),
(631,13,cs),
(603,13,o),
(582,37,o),
(582,63,cs)
);
},
{
ref = sapaorya;
}
);
width = 691;
},
{
anchors = (
{
name = b.tasubscriptorya;
pos = (435,0);
},
{
name = b.uvowelsignorya;
pos = (646,0);
},
{
name = t.candrabinduorya;
pos = (526,657);
},
{
name = t.ivowelsignorya;
pos = (351,657);
}
);
layerId = "D0F0E2C3-3B53-4823-9924-A34C50245C28";
shapes = (
{
closed = 1;
nodes = (
(627,139,o),
(593,91,o),
(593,45,cs),
(593,-6,o),
(628,-46,o),
(676,-46,cs),
(738,-46,o),
(770,6,o),
(770,49,cs),
(770,97,o),
(734,139,o),
(681,139,cs)
);
},
{
closed = 1;
nodes = (
(648,69,o),
(658,76,o),
(671,76,cs),
(691,76,o),
(707,59,o),
(707,41,cs),
(707,26,o),
(696,19,o),
(683,19,cs),
(663,19,o),
(648,36,o),
(648,54,cs)
);
},
{
ref = sapaorya;
}
);
width = 762;
}
);
metricLeft = iorya;
script = oriya;
subCategory = Spacing;
},
{
category = Letter;
glyphname = sataUIorya;
lastChange = "2021-07-22 08:05:52 +0000";
layers = (
{
anchors = (
{
name = b.uvowelsignorya;
pos = (583,25);
},
{
name = t.ivowelsignorya;
pos = (322,657);
}
);
layerId = "6C4C2116-C5E5-460E-80F0-69F45ED98D3F";
shapes = (
{
closed = 1;
nodes = (
(32,349,o),
(73,272,o),
(143,217,c),
(184,291,l),
(132,326,o),
(100,380,o),
(100,443,cs),
(100,527,o),
(164,601,o),
(289,601,cs),
(404,601,o),
(508,535,o),
(536,419,c),
(571,470,l),
(550,585,o),
(435,667,o),
(296,667,cs),
(135,667,o),
(32,554,o),
(32,431,cs)
);
},
{
closed = 1;
nodes = (
(583,66,l),
(583,657,l),
(576,664,l),
(516,650,l),
(516,85,l)
);
},
{
closed = 1;
nodes = (
(101,128,l),
(211,105,o),
(320,73,o),
(425,35,c),
(497,86,l),
(371,129,o),
(247,167,o),
(123,184,c),
(159,166,l),
(192,232,o),
(244,301,o),
(299,360,c),
(261,401,l),
(193,329,o),
(141,268,o),
(81,159,c)
);
},
{
pos = (662,147);
ref = tasubscriptorya;
}
);
width = 644;
},
{
anchors = (
{
name = b.uvowelsignorya;
pos = (611,36);
},
{
name = t.ivowelsignorya;
pos = (346,657);
}
);
layerId = "D0F0E2C3-3B53-4823-9924-A34C50245C28";
shapes = (
{
closed = 1;
nodes = (
(27,322,o),
(67,258,o),
(150,203,c),
(239,317,l),
(171,335,o),
(127,381,o),
(127,433,cs),
(127,499,o),
(189,546,o),
(285,546,cs),
(398,546,o),
(502,481,o),
(550,381,c),
(597,510,l),
(549,604,o),
(432,667,o),
(308,667,cs),
(145,667,o),
(27,552,o),
(27,405,cs)
);
},
{
closed = 1;
nodes = (
(641,117,l),
(641,657,l),
(634,664,l),
(521,637,l),
(521,118,l)
);
},
{
closed = 1;
nodes = (
(77,150,l),
(217,123,o),
(354,89,o),
(495,48,c),
(553,162,l),
(419,198,o),
(283,229,o),
(144,252,c),
(181,204,l),
(194,236,o),
(228,290,o),
(315,377,c),
(268,426,l),
(155,333,o),
(88,246,o),
(59,189,c)
);
},
{
pos = (738,169);
ref = tasubscriptorya;
}
);
width = 717;
}
);
metricLeft = iorya;
script = oriya;
subCategory = Spacing;
},
{
category = Letter;
glyphname = sataorya;
lastChange = "2021-07-22 08:05:57 +0000";
layers = (
{
anchors = (
{
name = b.uvowelsignorya;
pos = (583,0);
},
{
name = t.ivowelsignorya;
pos = (322,657);
}
);
layerId = "6C4C2116-C5E5-460E-80F0-69F45ED98D3F";
shapes = (
{
closed = 1;
nodes = (
(32,349,o),
(73,272,o),
(143,217,c),
(184,291,l),
(132,326,o),
(100,380,o),
(100,443,cs),
(100,527,o),
(164,601,o),
(289,601,cs),
(404,601,o),
(508,535,o),
(536,419,c),
(571,470,l),
(550,585,o),
(435,667,o),
(296,667,cs),
(135,667,o),
(32,554,o),
(32,431,cs)
);
},
{
closed = 1;
nodes = (
(101,106,l),
(238,84,o),
(368,47,o),
(471,5,c),
(540,61,l),
(403,107,o),
(262,148,o),
(123,164,c),
(159,144,l),
(192,210,o),
(244,279,o),
(299,338,c),
(261,379,l),
(193,307,o),
(141,246,o),
(81,137,c)
);
},
{
closed = 1;
nodes = (
(571,15,l),
(583,15,l),
(583,657,l),
(576,664,l),
(516,650,l),
(516,15,l)
);
},
{
pos = (653,85);
ref = tasubscriptorya;
}
);
width = 644;
},
{
anchors = (
{
name = b.uvowelsignorya;
pos = (641,0);
},
{
name = t.ivowelsignorya;
pos = (346,657);
}
);
layerId = "D0F0E2C3-3B53-4823-9924-A34C50245C28";
shapes = (
{
closed = 1;
nodes = (
(27,309,o),
(69,239,o),
(155,180,c),
(244,294,l),
(173,314,o),
(127,367,o),
(127,427,cs),
(127,497,o),
(189,546,o),
(285,546,cs),
(398,546,o),
(502,481,o),
(550,381,c),
(597,510,l),
(549,604,o),
(432,667,o),
(308,667,cs),
(145,667,o),
(27,549,o),
(27,399,cs)
);
},
{
closed = 1;
nodes = (
(77,87,l),
(222,49,o),
(365,-2,o),
(471,-46,c),
(543,70,l),
(412,115,o),
(280,155,o),
(144,183,c),
(181,164,l),
(194,196,o),
(228,250,o),
(315,337,c),
(268,386,l),
(155,284,o),
(88,188,o),
(59,126,c)
);
},
{
closed = 1;
nodes = (
(528,-19,l),
(641,8,l),
(641,663,l),
(634,670,l),
(521,643,l),
(521,-12,l)
);
},
{
pos = (697,67);
ref = tasubscriptorya;
}
);
width = 696;
}
);
metricLeft = iorya;
script = oriya;
subCategory = Spacing;
},
{
category = Letter;
glyphname = sataraUIorya;
lastChange = "2021-07-22 08:05:59 +0000";
layers = (
{
anchors = (
{
name = b.tasubscriptorya;
pos = (397,0);
},
{
name = b.uvowelsignorya;
pos = (583,0);
},
{
name = t.candrabinduorya;
pos = (516,657);
},
{
name = t.ivowelsignorya;
pos = (322,657);
}
);
layerId = "6C4C2116-C5E5-460E-80F0-69F45ED98D3F";
shapes = (
{
closed = 1;
nodes = (
(583,185,l),
(583,657,l),
(576,664,l),
(516,650,l),
(516,185,l)
);
},
{
pos = (1,0);
ref = _part.sa;
},
{
pos = (608,203);
ref = tarasubscriptorya;
}
);
width = 649;
},
{
anchors = (
{
name = b.tasubscriptorya;
pos = (430,0);
},
{
name = b.uvowelsignorya;
pos = (641,0);
},
{
name = t.candrabinduorya;
pos = (521,657);
},
{
name = t.ivowelsignorya;
pos = (346,657);
}
);
layerId = "D0F0E2C3-3B53-4823-9924-A34C50245C28";
shapes = (
{
closed = 1;
nodes = (
(641,147,l),
(641,657,l),
(634,664,l),
(521,637,l),
(521,148,l)
);
},
{
pos = (-5,0);
ref = _part.sa;
},
{
pos = (643,196);
ref = tarasubscriptorya;
}
);
width = 702;
}
);
metricLeft = iorya;
script = oriya;
subCategory = Spacing;
},
{
category = Letter;
glyphname = sataraorya;
lastChange = "2021-07-22 07:42:59 +0000";
layers = (
{
anchors = (
{
name = b.tasubscriptorya;
pos = (397,0);
},
{
name = b.uvowelsignorya;
pos = (583,0);
},
{
name = t.candrabinduorya;
pos = (516,657);
},
{
name = t.ivowelsignorya;
pos = (322,657);
}
);
layerId = "6C4C2116-C5E5-460E-80F0-69F45ED98D3F";
shapes = (
{
closed = 1;
nodes = (
(583,125,l),
(583,657,l),
(576,664,l),
(516,650,l),
(516,115,l)
);
},
{
pos = (599,144);
ref = tarasubscriptorya;
},
{
pos = (1,0);
ref = _part.sa;
}
);
width = 649;
},
{
anchors = (
{
name = b.tasubscriptorya;
pos = (430,0);
},
{
name = b.uvowelsignorya;
pos = (641,0);
},
{
name = t.candrabinduorya;
pos = (521,657);
},
{
name = t.ivowelsignorya;
pos = (346,657);
}
);
layerId = "D0F0E2C3-3B53-4823-9924-A34C50245C28";
shapes = (
{
closed = 1;
nodes = (
(641,136,l),
(641,663,l),
(634,670,l),
(521,643,l),
(521,108,l)
);
},
{
pos = (643,140);
ref = tarasubscriptorya;
},
{
pos = (-5,0);
ref = _part.sa;
}
);
width = 700;
}
);
metricLeft = iorya;
script = oriya;
subCategory = Spacing;
},
{
category = Letter;
glyphname = sathaorya;
lastChange = "2021-07-22 07:42:59 +0000";
layers = (
{
anchors = (
{
name = b.uvowelsignorya;
pos = (583,0);
},
{
name = t.ivowelsignorya;
pos = (322,657);
}
);
layerId = "6C4C2116-C5E5-460E-80F0-69F45ED98D3F";
shapes = (
{
closed = 1;
nodes = (
(583,5,l),
(583,657,l),
(576,664,l),
(516,650,l),
(516,5,l)
);
},
{
closed = 1;
nodes = (
(32,349,o),
(73,272,o),
(143,217,c),
(184,291,l),
(132,326,o),
(100,380,o),
(100,443,cs),
(100,527,o),
(164,601,o),
(289,601,cs),
(404,601,o),
(508,535,o),
(536,419,c),
(571,470,l),
(550,585,o),
(435,667,o),
(296,667,cs),
(135,667,o),
(32,554,o),
(32,431,cs)
);
},
{
closed = 1;
nodes = (
(101,138,l),
(243,113,o),
(378,71,o),
(509,14,c),
(555,79,l),
(413,131,o),
(267,178,o),
(123,196,c),
(159,176,l),
(192,242,o),
(244,311,o),
(299,370,c),
(261,411,l),
(193,339,o),
(141,278,o),
(81,169,c)
);
},
{
pos = (646,93);
ref = thasubscriptorya;
}
);
width = 644;
},
{
anchors = (
{
name = b.uvowelsignorya;
pos = (641,0);
},
{
name = t.ivowelsignorya;
pos = (346,657);
}
);
layerId = "D0F0E2C3-3B53-4823-9924-A34C50245C28";
shapes = (
{
closed = 1;
nodes = (
(641,8,l),
(641,663,l),
(634,670,l),
(521,643,l),
(521,8,l)
);
},
{
closed = 1;
nodes = (
(27,326,o),
(71,259,o),
(160,202,c),
(249,316,l),
(175,335,o),
(127,384,o),
(127,440,cs),
(127,502,o),
(189,546,o),
(285,546,cs),
(398,546,o),
(502,481,o),
(550,381,c),
(597,510,l),
(549,604,o),
(432,667,o),
(308,667,cs),
(145,667,o),
(27,555,o),
(27,412,cs)
);
},
{
closed = 1;
nodes = (
(102,151,l),
(257,125,o),
(408,87,o),
(560,46,c),
(591,170,l),
(461,202,o),
(342,221,o),
(207,241,c),
(235,217,l),
(249,243,o),
(283,286,o),
(372,355,c),
(325,404,l),
(195,320,o),
(117,241,o),
(84,190,c)
);
},
{
pos = (699,114);
ref = thasubscriptorya;
}
);
width = 697;
}
);
metricLeft = iorya;
script = oriya;
subCategory = Spacing;
},
{
category = Letter;
glyphname = shacaorya;
kernRight = lagaorya;
lastChange = "2021-07-22 08:06:03 +0000";
layers = (
{
anchors = (
{
name = b.tasubscriptorya;
pos = (438,0);
},
{
name = b.uvowelsignorya;
pos = (623,0);
},
{
name = t.candrabinduorya;
pos = (557,657);
},
{
name = t.ivowelsignorya;
pos = (343,657);
}
);
layerId = "6C4C2116-C5E5-460E-80F0-69F45ED98D3F";
shapes = (
{
closed = 1;
nodes = (
(588,107,l),
(588,657,l),
(581,664,l),
(521,649,l),
(521,107,l)
);
},
{
closed = 1;
nodes = (
(129,493,o),
(158,461,o),
(191,439,c),
(338,439,l),
(338,449,l),
(225,479,o),
(197,518,o),
(197,540,cs),
(197,574,o),
(243,601,o),
(315,601,cs),
(412,601,o),
(522,542,o),
(563,409,c),
(589,482,l),
(555,594,o),
(449,667,o),
(324,667,cs),
(208,667,o),
(129,600,o),
(129,537,cs)
);
},
{
closed = 1;
nodes = (
(32,270,o),
(60,218,o),
(111,180,c),
(150,263,l),
(118,280,o),
(100,305,o),
(100,339,cs),
(100,392,o),
(145,421,o),
(199,421,cs),
(236,421,o),
(272,408,o),
(296,394,c),
(338,439,l),
(284,452,o),
(250,475,o),
(210,475,cs),
(99,475,o),
(32,409,o),
(32,324,cs)
);
},
{
pos = (25,0);
ref = _part.vo;
},
{
pos = (692,145);
ref = casubscriptorya;
}
);
width = 721;
},
{
anchors = (
{
name = b.tasubscriptorya;
pos = (473,0);
},
{
name = b.uvowelsignorya;
pos = (663,0);
},
{
name = t.candrabinduorya;
pos = (564,657);
},
{
name = t.ivowelsignorya;
pos = (368,657);
}
);
layerId = "D0F0E2C3-3B53-4823-9924-A34C50245C28";
shapes = (
{
closed = 1;
nodes = (
(663,121,l),
(663,663,l),
(656,670,l),
(543,643,l),
(543,120,l)
);
},
{
closed = 1;
nodes = (
(135,460,o),
(183,424,o),
(221,415,c),
(358,427,l),
(358,437,l),
(269,462,o),
(229,489,o),
(229,513,cs),
(229,540,o),
(278,555,o),
(327,555,cs),
(424,555,o),
(527,496,o),
(547,399,c),
(604,520,l),
(547,625,o),
(451,667,o),
(355,667,cs),
(227,667,o),
(135,593,o),
(135,510,cs)
);
},
{
closed = 1;
nodes = (
(27,281,o),
(54,223,o),
(120,168,c),
(205,268,l),
(150,281,o),
(120,321,o),
(120,356,cs),
(120,386,o),
(147,397,o),
(178,397,cs),
(216,397,o),
(267,385,o),
(302,371,c),
(358,427,l),
(316,449,o),
(276,471,o),
(196,471,cs),
(107,471,o),
(27,416,o),
(27,330,cs)
);
},
{
pos = (-17,0);
ref = _part.vo;
},
{
pos = (740,145);
ref = casubscriptorya;
}
);
width = 770;
}
);
metricLeft = iorya;
script = oriya;
subCategory = Spacing;
},
{
category = Letter;
glyphname = shachaUIorya;
lastChange = "2021-07-26 15:07:06 +0000";
layers = (
{
anchors = (
{
name = b.uvowelsignorya;
pos = (613,0);
},
{
name = t.ivowelsignorya;
pos = (337,657);
}
);
layerId = "6C4C2116-C5E5-460E-80F0-69F45ED98D3F";
shapes = (
{
closed = 1;
nodes = (
(613,17,l),
(613,657,l),
(606,664,l),
(546,649,l),
(546,17,l)
);
},
{
closed = 1;
nodes = (
(129,493,o),
(158,461,o),
(191,439,c),
(338,439,l),
(338,449,l),
(225,479,o),
(197,518,o),
(197,540,cs),
(197,574,o),
(243,601,o),
(315,601,cs),
(417,601,o),
(534,544,o),
(577,418,c),
(603,491,l),
(567,597,o),
(456,667,o),
(324,667,cs),
(208,667,o),
(129,600,o),
(129,537,cs)
);
},
{
closed = 1;
nodes = (
(32,270,o),
(60,218,o),
(111,180,c),
(150,263,l),
(118,280,o),
(100,306,o),
(100,339,cs),
(100,393,o),
(145,421,o),
(199,421,cs),
(236,421,o),
(272,408,o),
(296,394,c),
(338,439,l),
(284,452,o),
(250,475,o),
(210,475,cs),
(99,475,o),
(32,409,o),
(32,322,cs)
);
},
{
pos = (27,9);
ref = _part.vo;
},
{
pos = (675,295);
ref = thasubscriptlowerorya;
}
);
width = 674;
},
{
anchors = (
{
name = b.uvowelsignorya;
pos = (680,0);
},
{
name = t.ivowelsignorya;
pos = (366,657);
}
);
layerId = "D0F0E2C3-3B53-4823-9924-A34C50245C28";
shapes = (
{
closed = 1;
nodes = (
(680,21,l),
(680,657,l),
(673,664,l),
(560,637,l),
(560,20,l)
);
},
{
closed = 1;
nodes = (
(135,460,o),
(183,424,o),
(221,415,c),
(358,427,l),
(358,437,l),
(269,462,o),
(229,489,o),
(229,513,cs),
(229,540,o),
(278,555,o),
(327,555,cs),
(432,555,o),
(544,492,o),
(566,387,c),
(623,508,l),
(561,622,o),
(458,667,o),
(355,667,cs),
(227,667,o),
(135,593,o),
(135,510,cs)
);
},
{
closed = 1;
nodes = (
(27,281,o),
(54,223,o),
(120,168,c),
(205,268,l),
(150,281,o),
(120,321,o),
(120,356,cs),
(120,386,o),
(147,397,o),
(178,397,cs),
(216,397,o),
(267,385,o),
(302,371,c),
(358,427,l),
(316,449,o),
(276,471,o),
(196,471,cs),
(107,471,o),
(27,416,o),
(27,330,cs)
);
},
{
pos = (3,0);
ref = _part.vo;
},
{
pos = (725,318);
ref = thasubscriptlowerorya;
}
);
width = 736;
}
);
metricLeft = iorya;
script = oriya;
subCategory = Spacing;
},
{
category = Letter;
glyphname = shalaUIorya;
kernRight = yyaorya;
lastChange = "2021-07-22 08:06:13 +0000";
layers = (
{
anchors = (
{
name = b.tasubscriptorya;
pos = (427,0);
},
{
name = b.uvowelsignorya;
pos = (534,0);
},
{
name = t.ivowelsignorya;
pos = (335,657);
}
);
layerId = "6C4C2116-C5E5-460E-80F0-69F45ED98D3F";
shapes = (
{
closed = 1;
nodes = (
(129,493,o),
(158,461,o),
(191,439,c),
(338,439,l),
(338,449,l),
(225,479,o),
(197,518,o),
(197,540,cs),
(197,574,o),
(243,601,o),
(315,601,cs),
(415,601,o),
(529,547,o),
(571,432,c),
(597,505,l),
(562,601,o),
(453,667,o),
(324,667,cs),
(208,667,o),
(129,600,o),
(129,537,cs)
);
},
{
closed = 1;
nodes = (
(613,87,l),
(613,657,l),
(606,664,l),
(546,649,l),
(546,87,l)
);
},
{
closed = 1;
nodes = (
(32,270,o),
(60,218,o),
(111,180,c),
(150,263,l),
(118,280,o),
(100,306,o),
(100,339,cs),
(100,393,o),
(145,421,o),
(199,421,cs),
(236,421,o),
(272,408,o),
(296,394,c),
(338,439,l),
(284,452,o),
(250,475,o),
(210,475,cs),
(99,475,o),
(32,409,o),
(32,322,cs)
);
},
{
pos = (45,0);
ref = _part.vo;
},
{
pos = (123,61);
ref = _part.lasub;
}
);
width = 674;
},
{
anchors = (
{
name = b.tasubscriptorya;
pos = (473,0);
},
{
name = b.uvowelsignorya;
pos = (684,0);
},
{
name = t.ivowelsignorya;
pos = (369,657);
}
);
layerId = "D0F0E2C3-3B53-4823-9924-A34C50245C28";
shapes = (
{
closed = 1;
nodes = (
(135,460,o),
(183,424,o),
(221,415,c),
(358,427,l),
(358,437,l),
(269,462,o),
(229,489,o),
(229,513,cs),
(229,540,o),
(278,555,o),
(327,555,cs),
(434,555,o),
(548,492,o),
(570,388,c),
(627,509,l),
(565,622,o),
(460,667,o),
(355,667,cs),
(227,667,o),
(135,593,o),
(135,510,cs)
);
},
{
closed = 1;
nodes = (
(684,41,l),
(684,657,l),
(677,664,l),
(564,637,l),
(564,40,l)
);
},
{
closed = 1;
nodes = (
(27,281,o),
(54,223,o),
(135,158,c),
(205,268,l),
(150,281,o),
(120,321,o),
(120,356,cs),
(120,386,o),
(147,397,o),
(178,397,cs),
(216,397,o),
(267,385,o),
(302,371,c),
(358,427,l),
(316,449,o),
(276,471,o),
(196,471,cs),
(107,471,o),
(27,416,o),
(27,330,cs)
);
},
{
pos = (23,0);
ref = _part.vo;
},
{
pos = (123,61);
ref = _part.lasub;
}
);
width = 752;
}
);
metricLeft = iorya;
script = oriya;
subCategory = Spacing;
},
{
category = Letter;
glyphname = shalaorya;
lastChange = "2021-07-22 07:42:59 +0000";
layers = (
{
anchors = (
{
name = b.tasubscriptorya;
pos = (427,0);
},
{
name = b.uvowelsignorya;
pos = (523,0);
},
{
name = t.ivowelsignorya;
pos = (335,657);
}
);
layerId = "6C4C2116-C5E5-460E-80F0-69F45ED98D3F";
shapes = (
{
closed = 1;
nodes = (
(613,37,l),
(613,657,l),
(606,664,l),
(546,649,l),
(546,37,l)
);
},
{
closed = 1;
nodes = (
(129,493,o),
(158,461,o),
(191,439,c),
(338,439,l),
(338,449,l),
(225,479,o),
(197,518,o),
(197,540,cs),
(197,574,o),
(243,601,o),
(315,601,cs),
(414,601,o),
(526,548,o),
(568,440,c),
(594,513,l),
(559,602,o),
(451,667,o),
(324,667,cs),
(208,667,o),
(129,600,o),
(129,537,cs)
);
},
{
closed = 1;
nodes = (
(32,267,o),
(66,213,o),
(129,173,c),
(168,256,l),
(124,275,o),
(100,303,o),
(100,339,cs),
(100,393,o),
(145,421,o),
(199,421,cs),
(236,421,o),
(272,408,o),
(296,394,c),
(338,439,l),
(284,452,o),
(250,475,o),
(210,475,cs),
(99,475,o),
(32,409,o),
(32,322,cs)
);
},
{
pos = (73,0);
ref = _part.vo;
},
{
pos = (113,0);
ref = _part.lasub;
}
);
width = 674;
},
{
anchors = (
{
name = b.tasubscriptorya;
pos = (452,0);
},
{
name = b.uvowelsignorya;
pos = (663,0);
},
{
name = t.ivowelsignorya;
pos = (358,657);
}
);
layerId = "D0F0E2C3-3B53-4823-9924-A34C50245C28";
shapes = (
{
closed = 1;
nodes = (
(663,21,l),
(663,657,l),
(656,664,l),
(543,637,l),
(543,20,l)
);
},
{
closed = 1;
nodes = (
(135,460,o),
(183,424,o),
(221,415,c),
(358,427,l),
(358,437,l),
(269,462,o),
(229,489,o),
(229,513,cs),
(229,540,o),
(278,555,o),
(327,555,cs),
(424,555,o),
(527,496,o),
(547,399,c),
(604,520,l),
(547,625,o),
(451,667,o),
(355,667,cs),
(227,667,o),
(135,593,o),
(135,510,cs)
);
},
{
closed = 1;
nodes = (
(27,281,o),
(54,223,o),
(120,168,c),
(205,268,l),
(150,281,o),
(120,321,o),
(120,356,cs),
(120,386,o),
(147,397,o),
(178,397,cs),
(216,397,o),
(267,385,o),
(302,371,c),
(358,427,l),
(316,449,o),
(276,471,o),
(196,471,cs),
(107,471,o),
(27,416,o),
(27,330,cs)
);
},
{
pos = (3,0);
ref = _part.vo;
},
{
pos = (53,0);
ref = _part.lasub;
}
);
width = 719;
}
);
metricLeft = iorya;
script = oriya;
subCategory = Spacing;
},
{
category = Letter;
glyphname = shallaUIorya;
kernRight = yyaorya;
lastChange = "2021-07-22 08:06:15 +0000";
layers = (
{
anchors = (
{
name = b.tasubscriptorya;
pos = (427,0);
},
{
name = b.uvowelsignorya;
pos = (538,0);
},
{
name = t.ivowelsignorya;
pos = (335,657);
}
);
layerId = "6C4C2116-C5E5-460E-80F0-69F45ED98D3F";
shapes = (
{
closed = 1;
nodes = (
(613,87,l),
(613,657,l),
(606,664,l),
(546,649,l),
(546,87,l)
);
},
{
closed = 1;
nodes = (
(129,493,o),
(158,461,o),
(191,439,c),
(338,439,l),
(338,449,l),
(225,479,o),
(197,518,o),
(197,540,cs),
(197,574,o),
(243,601,o),
(315,601,cs),
(414,601,o),
(526,548,o),
(568,440,c),
(594,513,l),
(559,602,o),
(451,667,o),
(324,667,cs),
(208,667,o),
(129,600,o),
(129,537,cs)
);
},
{
closed = 1;
nodes = (
(32,267,o),
(66,213,o),
(129,173,c),
(168,256,l),
(124,275,o),
(100,303,o),
(100,339,cs),
(100,393,o),
(145,421,o),
(199,421,cs),
(236,421,o),
(272,408,o),
(296,394,c),
(338,439,l),
(284,452,o),
(250,475,o),
(210,475,cs),
(99,475,o),
(32,409,o),
(32,322,cs)
);
},
{
pos = (50,0);
ref = _part.vo;
},
{
pos = (674,121);
ref = llasubscriptorya;
}
);
width = 674;
},
{
anchors = (
{
name = b.tasubscriptorya;
pos = (473,0);
},
{
name = b.uvowelsignorya;
pos = (684,0);
},
{
name = t.ivowelsignorya;
pos = (369,657);
}
);
layerId = "D0F0E2C3-3B53-4823-9924-A34C50245C28";
shapes = (
{
closed = 1;
nodes = (
(684,41,l),
(684,657,l),
(677,664,l),
(564,637,l),
(564,40,l)
);
},
{
closed = 1;
nodes = (
(135,460,o),
(183,424,o),
(221,415,c),
(358,427,l),
(358,437,l),
(269,462,o),
(229,489,o),
(229,513,cs),
(229,540,o),
(278,555,o),
(327,555,cs),
(434,555,o),
(548,492,o),
(570,388,c),
(627,509,l),
(565,622,o),
(460,667,o),
(355,667,cs),
(227,667,o),
(135,593,o),
(135,510,cs)
);
},
{
closed = 1;
nodes = (
(27,281,o),
(54,223,o),
(135,158,c),
(205,268,l),
(150,281,o),
(120,321,o),
(120,356,cs),
(120,386,o),
(147,397,o),
(178,397,cs),
(216,397,o),
(267,385,o),
(302,371,c),
(358,427,l),
(316,449,o),
(276,471,o),
(196,471,cs),
(107,471,o),
(27,416,o),
(27,330,cs)
);
},
{
pos = (23,0);
ref = _part.vo;
},
{
pos = (740,122);
ref = llasubscriptorya;
}
);
width = 742;
}
);
metricLeft = iorya;
script = oriya;
subCategory = Spacing;
},
{
category = Letter;
glyphname = shallaorya;
lastChange = "2021-07-26 15:06:27 +0000";
layers = (
{
anchors = (
{
name = b.tasubscriptorya;
pos = (431,0);
},
{
name = b.uvowelsignorya;
pos = (512,0);
},
{
name = t.ivowelsignorya;
pos = (339,657);
}
);
layerId = "6C4C2116-C5E5-460E-80F0-69F45ED98D3F";
shapes = (
{
closed = 1;
nodes = (
(588,17,l),
(588,657,l),
(581,664,l),
(521,649,l),
(521,17,l)
);
},
{
closed = 1;
nodes = (
(129,493,o),
(158,461,o),
(191,439,c),
(338,439,l),
(338,449,l),
(225,479,o),
(197,518,o),
(197,540,cs),
(197,574,o),
(243,601,o),
(318,601,cs),
(406,601,o),
(510,553,o),
(546,399,c),
(577,466,l),
(555,601,o),
(434,667,o),
(331,667,cs),
(203,667,o),
(129,600,o),
(129,537,cs)
);
},
{
closed = 1;
nodes = (
(32,269,o),
(60,218,o),
(114,180,c),
(153,263,l),
(118,280,o),
(100,305,o),
(100,339,cs),
(100,392,o),
(145,421,o),
(199,421,cs),
(236,421,o),
(272,408,o),
(296,394,c),
(338,439,l),
(284,452,o),
(250,475,o),
(210,475,cs),
(99,475,o),
(32,408,o),
(32,324,cs)
);
},
{
pos = (51,0);
ref = _part.vo;
},
{
pos = (649,63);
ref = llasubscriptorya;
}
);
width = 620;
},
{
anchors = (
{
name = b.tasubscriptorya;
pos = (452,0);
},
{
name = b.uvowelsignorya;
pos = (663,0);
},
{
name = t.ivowelsignorya;
pos = (358,657);
}
);
layerId = "D0F0E2C3-3B53-4823-9924-A34C50245C28";
shapes = (
{
closed = 1;
nodes = (
(663,21,l),
(663,657,l),
(656,664,l),
(543,637,l),
(543,20,l)
);
},
{
closed = 1;
nodes = (
(135,460,o),
(183,424,o),
(221,415,c),
(358,427,l),
(358,437,l),
(269,462,o),
(229,489,o),
(229,513,cs),
(229,540,o),
(278,555,o),
(327,555,cs),
(424,555,o),
(527,496,o),
(547,399,c),
(604,520,l),
(547,625,o),
(451,667,o),
(355,667,cs),
(227,667,o),
(135,593,o),
(135,510,cs)
);
},
{
closed = 1;
nodes = (
(27,281,o),
(54,223,o),
(120,168,c),
(205,268,l),
(150,281,o),
(120,321,o),
(120,356,cs),
(120,386,o),
(147,397,o),
(178,397,cs),
(216,397,o),
(267,385,o),
(302,371,c),
(358,427,l),
(316,449,o),
(276,471,o),
(196,471,cs),
(107,471,o),
(27,416,o),
(27,330,cs)
);
},
{
pos = (3,-1);
ref = _part.vo;
},
{
pos = (719,62);
ref = llasubscriptorya;
}
);
width = 719;
}
);
metricLeft = iorya;
script = oriya;
subCategory = Spacing;
},
{
category = Letter;
glyphname = ssakaorya;
kernRight = ssakaorya;
lastChange = "2021-07-28 11:30:52 +0000";
layers = (
{
anchors = (
{
name = b.tasubscriptorya;
pos = (397,0);
},
{
name = b.uvowelsignorya;
pos = (631,0);
},
{
name = t.candrabinduorya;
pos = (516,657);
},
{
name = t.ivowelsignorya;
pos = (314,657);
}
);
layerId = "6C4C2116-C5E5-460E-80F0-69F45ED98D3F";
shapes = (
{
closed = 1;
nodes = (
(480,84,l),
(520,106,l),
(189,600,l),
(152,576,l)
);
},
{
pos = (-2,0);
ref = _part.pahalf1;
},
{
pos = (623,127);
ref = kasubscriptorya;
}
);
width = 658;
},
{
anchors = (
{
name = b.tasubscriptorya;
pos = (445,0);
},
{
name = b.uvowelsignorya;
pos = (655,0);
},
{
name = t.candrabinduorya;
pos = (536,657);
},
{
name = t.ivowelsignorya;
pos = (351,657);
}
);
layerId = "D0F0E2C3-3B53-4823-9924-A34C50245C28";
shapes = (
{
closed = 1;
nodes = (
(511,59,l),
(565,114,l),
(228,576,l),
(174,521,l)
);
},
{
pos = (5,0);
ref = _part.pahalf1;
},
{
pos = (790,127);
ref = kasubscriptorya;
}
);
width = 779;
}
);
metricLeft = iorya;
script = oriya;
subCategory = Spacing;
},
{
category = Letter;
glyphname = ssannaUIorya;
kernRight = nnattaorya;
lastChange = "2021-07-22 08:06:30 +0000";
layers = (
{
anchors = (
{
name = b.uvowelsignorya;
pos = (578,0);
},
{
name = t.ivowelsignorya;
pos = (315,657);
}
);
layerId = "6C4C2116-C5E5-460E-80F0-69F45ED98D3F";
shapes = (
{
closed = 1;
nodes = (
(435,145,l),
(473,167,l),
(179,600,l),
(142,576,l)
);
},
{
closed = 1;
nodes = (
(578,217,l),
(578,657,l),
(571,664,l),
(511,649,l),
(511,217,l)
);
},
{
closed = 1;
nodes = (
(590,-160,o),
(661,-101,o),
(661,-34,cs),
(661,2,o),
(642,26,o),
(613,41,cs),
(595,50,o),
(571,56,o),
(544,55,c),
(547,49,l),
(596,68,o),
(636,103,o),
(636,157,cs),
(636,207,o),
(594,243,o),
(537,243,cs),
(521,243,o),
(503,238,o),
(485,230,c),
(504,179,l),
(512,181,o),
(519,181,o),
(525,181,cs),
(560,181,o),
(575,162,o),
(575,144,cs),
(575,102,o),
(505,73,o),
(469,63,c),
(449,22,l),
(455,15,l),
(476,15,o),
(498,13,o),
(522,8,cs),
(562,-1,o),
(597,-15,o),
(597,-42,cs),
(597,-76,o),
(544,-96,o),
(498,-96,cs),
(375,-96,o),
(340,-19,o),
(340,42,cs),
(340,60,o),
(343,78,o),
(348,94,c),
(291,94,l),
(283,71,o),
(278,48,o),
(278,25,cs),
(278,-85,o),
(353,-160,o),
(484,-160,cs)
);
},
{
pos = (-2,0);
ref = _part.pahalf;
}
);
width = 645;
},
{
anchors = (
{
name = b.uvowelsignorya;
pos = (647,0);
},
{
name = t.ivowelsignorya;
pos = (342,657);
}
);
layerId = "D0F0E2C3-3B53-4823-9924-A34C50245C28";
shapes = (
{
closed = 1;
nodes = (
(426,178,l),
(485,219,l),
(169,584,l),
(120,524,l)
);
},
{
closed = 1;
nodes = (
(647,223,l),
(647,657,l),
(640,664,l),
(527,637,l),
(527,223,l)
);
},
{
closed = 1;
nodes = (
(641,-160,o),
(711,-101,o),
(711,-27,cs),
(711,17,o),
(686,42,o),
(663,55,cs),
(646,66,o),
(621,71,o),
(594,74,c),
(603,54,l),
(646,79,o),
(689,113,o),
(689,170,cs),
(689,223,o),
(644,263,o),
(580,263,cs),
(555,263,o),
(534,261,o),
(514,258,c),
(516,174,l),
(531,182,o),
(547,186,o),
(560,186,cs),
(594,186,o),
(606,168,o),
(606,155,cs),
(606,121,o),
(549,93,o),
(521,84,c),
(498,18,l),
(504,11,l),
(523,11,o),
(543,9,o),
(562,5,cs),
(594,-1,o),
(618,-14,o),
(618,-34,cs),
(618,-55,o),
(572,-67,o),
(538,-67,cs),
(433,-67,o),
(390,-6,o),
(390,52,cs),
(390,68,o),
(394,91,o),
(402,116,c),
(328,121,l),
(317,89,o),
(311,56,o),
(311,25,cs),
(311,-96,o),
(393,-160,o),
(523,-160,cs)
);
},
{
pos = (-5,0);
ref = _part.pahalf;
}
);
width = 723;
}
);
metricLeft = iorya;
script = oriya;
subCategory = Spacing;
},
